<?xml version="1.0" encoding="UTF-8" standalone="no"?><!DOCTYPE svg PUBLIC "-//W3C//DTD SVG 1.1//EN" "http://www.w3.org/Graphics/SVG/1.1/DTD/svg11.dtd"><svg width="100%" height="100%" viewBox="0 0 1200 292" version="1.1" xmlns="http://www.w3.org/2000/svg" xmlns:xlink="http://www.w3.org/1999/xlink" xml:space="preserve" xmlns:serif="http://www.serif.com/" style="fill-rule:evenodd;clip-rule:evenodd;stroke-linejoin:round;stroke-miterlimit:2;"><g id="g26"><g id="_82472_18_Katalog_EN_web" serif:id="82472_18_Katalog_EN_web"><g id="g261" serif:id="g26"><g id="g28"><g><g id="g34"><path id="path36" d="M259.882,108.303c71.341,9.552 -64.051,200.433 -39.05,180.437c113.972,-91.184 161.905,-231.758 90.556,-241.317c-71.341,-9.543 -162.613,46.718 -167.015,79.613c-4.401,32.894 44.16,-28.276 115.509,-18.733" style="fill:#313e9c;fill-rule:nonzero;"/></g><g id="g38"><path id="path40" d="M110.079,105.282c-28.598,65.588 135.255,186.898 75.734,156.216c-29.33,-15.111 -163.78,-138.176 -135.183,-203.788c28.59,-65.603 135.602,-46.356 165.857,-33.176c30.247,13.189 -77.811,15.136 -106.408,80.748" style="fill:#313e9c;fill-rule:nonzero;"/></g><g id="g42"><path id="path44" d="M619.283,221.711l146.19,0l0,-31.132l-103.6,-0l0,-27.729l92.955,0l-0,-29.201l-92.955,0l0,-26.207l103.6,-0l0,-31.366l-146.19,-0l-0,145.635Z" style="fill:#313e9c;fill-rule:nonzero;"/></g><g id="g46"><path id="path48" d="M578.607,145.416c9.648,-5.07 14.195,-12.255 14.195,-22.225l-0,-14.693c-0,-22.796 -16.488,-33.884 -50.404,-33.884l-112.331,-0l0,148.564l117.641,0c32.517,0 51.169,-13.381 51.169,-36.7l-0,-14.042c-0,-11.868 -8.071,-22.289 -20.27,-27.02m-106.134,-39.839l61.355,0c1.915,0.032 5.834,0.129 7.009,0.129c14.564,-0 15.055,5.906 15.055,13.695l-0,0.089c-0,7.781 -1.103,13.695 -15.055,13.695c-1.175,0 -5.094,0.097 -7.009,0.129l-61.355,0.257l-0,-27.994Zm89.92,72.291c0,8.167 -1.158,14.379 -15.803,14.379c-1.231,-0 -5.343,0.097 -7.355,0.129l-67.004,0.281l0,-29.394l67.004,0c2.012,0.04 6.124,0.137 7.355,0.137c15.28,-0 15.803,6.204 15.803,14.371l0,0.097Z" style="fill:#313e9c;fill-rule:nonzero;"/></g><g id="g50"><path id="path52" d="M951.728,215.58c6.912,-7.04 6.952,-14.789 6.952,-14.789l0.008,-0l0,-66.578l-85.286,0l0,29.105l48.022,-0l0,27.463c-3.017,0.008 -6.992,0.024 -11.547,0.048c-8.778,0.04 -19.706,0.097 -30.327,0.097c-14.862,-0 -25.283,-0.105 -31.881,-0.306c-18.99,-0.579 -21.549,-9.318 -21.549,-17.799l0,-48.481c0,-9.64 3.67,-16.206 21.581,-16.962c5.174,-0.217 16.222,-0.322 32.822,-0.322c29.467,0 66.707,0.346 67.077,0.354l2.333,0.024l0.033,-32.291l-2.221,-0.088c-24.357,-0.982 -54.138,-1.191 -74.826,-1.191c-8.36,-0 -16.889,0.032 -25.338,0.096c-40.708,0.306 -64.059,16.89 -64.059,45.504l-0,58.861c-0,28.493 23.963,45.503 64.075,45.503l77.134,0c5.311,-0.346 20.753,-1.891 26.997,-8.248" style="fill:#313e9c;fill-rule:nonzero;"/></g><g id="g54"><path id="path56" d="M1147.39,99.586c-5.52,-11.764 -17.333,-25.79 -42.261,-25.79c-0,0 -15.852,-1.102 -38.752,-1.102c-22.909,-0 -38.431,1.102 -38.431,1.102l-0.113,0c-0.49,0.024 -12.15,0.684 -23.962,7.274c-11.016,6.148 -24.14,18.757 -24.14,43.959l-0,49.913c-0,0.515 0.064,12.73 5.962,25.121c5.52,11.604 17.333,25.436 42.253,25.436c0,-0 12.915,1.343 38.592,1.343c25.668,0 38.631,-1.343 38.631,-1.343l0.04,-0c0.491,-0.016 12.159,-0.499 23.979,-6.92c11.024,-5.995 24.156,-18.427 24.156,-43.637l0,-49.913c0,-0.523 -0.064,-12.891 -5.954,-25.443m-32.509,72.065c0,10.412 -8.521,18.934 -18.941,18.934c-0,-0 -10.477,0.241 -28.904,0.241c-18.426,-0 -29.893,-0.241 -29.893,-0.241c-10.42,-0 -18.949,-8.522 -18.949,-18.934l-0,-42.985c-0,-10.42 8.529,-18.942 18.949,-18.942c0,0 14.677,-1.022 29.386,-1.022c14.702,0 29.411,1.022 29.411,1.022c10.42,0 18.941,8.522 18.941,18.942l0,42.985Z" style="fill:#313e9c;fill-rule:nonzero;"/></g></g></g></g></g></g></svg>