<?xml version="1.0" encoding="UTF-8" standalone="no"?><!DOCTYPE svg PUBLIC "-//W3C//DTD SVG 1.1//EN" "http://www.w3.org/Graphics/SVG/1.1/DTD/svg11.dtd"><svg width="100%" height="100%" viewBox="0 0 144 48" version="1.1" xmlns="http://www.w3.org/2000/svg" xmlns:xlink="http://www.w3.org/1999/xlink" xml:space="preserve" xmlns:serif="http://www.serif.com/" style="fill-rule:evenodd;clip-rule:evenodd;stroke-miterlimit:10;"><g><g><g><path id="SVGID_1_" d="M38.979,15.84c-0,-0.792 0.648,-1.44 1.44,-1.44l27.84,0c0.792,0 1.44,0.648 1.44,1.44l-0,16.32c-0,0.792 -0.648,1.44 -1.44,1.44l-27.84,0c-0.792,0 -1.44,-0.648 -1.44,-1.44l-0,-16.32Z" style="fill-rule:nonzero;"/></g><g><clipPath id="_clip1"><path d="M38.979,15.84c-0,-0.792 0.648,-1.44 1.44,-1.44l27.84,0c0.792,0 1.44,0.648 1.44,1.44l-0,16.32c-0,0.792 -0.648,1.44 -1.44,1.44l-27.84,0c-0.792,0 -1.44,-0.648 -1.44,-1.44l-0,-16.32Z"/></clipPath><g clip-path="url(#_clip1)"><path d="M38.979,15.84c-0,-0.792 0.648,-1.44 1.44,-1.44l27.84,0c0.792,0 1.44,0.648 1.44,1.44l-0,16.32c-0,0.792 -0.648,1.44 -1.44,1.44l-27.84,0c-0.792,0 -1.44,-0.648 -1.44,-1.44l-0,-16.32Z" style="fill-rule:nonzero;stroke:#000;stroke-width:0.48px;"/></g></g></g><g><g><clipPath id="_clip2"><path d="M48.783,30.708l-0,-0.912c-0,-0.336 -0.192,-0.552 -0.552,-0.576c-0.192,-0 -0.36,0.048 -0.504,0.264c-0.096,-0.168 -0.264,-0.264 -0.48,-0.264c-0.144,-0 -0.312,0.048 -0.432,0.216l-0,-0.168l-0.288,-0l-0,1.44l0.288,-0l-0,-0.816c-0,-0.24 0.144,-0.384 0.36,-0.384c0.216,-0 0.312,0.144 0.312,0.384l-0,0.816l0.288,-0l-0,-0.816c-0,-0.24 0.144,-0.384 0.36,-0.384c0.216,-0 0.336,0.144 0.336,0.384l-0,0.816l0.312,-0Zm4.656,-1.44l-0.528,-0l-0,-0.432l-0.288,-0l-0,0.432l-0.312,-0l-0,0.264l0.312,-0l-0,0.672c-0,0.336 0.12,0.528 0.48,0.528c0.144,-0 0.288,-0.048 0.384,-0.12l-0.096,-0.264c-0.096,0.048 -0.192,0.072 -0.264,0.072c-0.144,-0 -0.216,-0.096 -0.216,-0.24l-0,-0.672l0.528,-0l-0,-0.24Zm2.664,-0.024c-0.168,-0 -0.312,0.072 -0.384,0.216l-0,-0.168l-0.288,-0l-0,1.44l0.288,-0l-0,-0.816c-0,-0.24 0.12,-0.384 0.312,-0.384c0.072,-0 0.12,-0 0.192,0.048l0.096,-0.264c-0.072,-0.072 -0.168,-0.072 -0.216,-0.072Zm-4.032,0.144c-0.144,-0.096 -0.36,-0.144 -0.576,-0.144c-0.36,-0 -0.576,0.168 -0.576,0.456c-0,0.24 0.168,0.384 0.48,0.408l0.144,0.024c0.168,0.024 0.264,0.072 0.264,0.168c-0,0.12 -0.12,0.192 -0.336,0.192c-0.216,-0 -0.36,-0.072 -0.48,-0.144l-0.144,0.216c0.216,0.144 0.456,0.192 0.624,0.192c0.408,-0 0.648,-0.192 0.648,-0.456c-0,-0.24 -0.168,-0.384 -0.48,-0.432l-0.144,-0.024c-0.144,-0.024 -0.264,-0.048 -0.264,-0.144c-0,-0.096 0.12,-0.168 0.288,-0.168c0.192,-0 0.36,0.072 0.456,0.12l0.096,-0.264Zm4.344,0.6c-0,0.432 0.288,0.744 0.744,0.744c0.216,-0 0.36,-0.048 0.504,-0.168l-0.144,-0.216c-0.12,0.072 -0.24,0.12 -0.384,0.12c-0.24,-0 -0.432,-0.192 -0.432,-0.48c-0,-0.288 0.192,-0.48 0.432,-0.48c0.144,-0 0.264,0.048 0.384,0.12l0.144,-0.216c-0.144,-0.12 -0.288,-0.168 -0.504,-0.168c-0.456,-0 -0.744,0.312 -0.744,0.744Zm-2.016,-0.744c-0.408,-0 -0.696,0.312 -0.696,0.744c-0,0.456 0.288,0.744 0.72,0.744c0.216,-0 0.408,-0.048 0.576,-0.192l-0.144,-0.216c-0.12,0.096 -0.264,0.144 -0.408,0.144c-0.192,-0 -0.408,-0.12 -0.432,-0.36l1.08,-0l-0,-0.12c-0.024,-0.456 -0.288,-0.744 -0.696,-0.744Zm-0,0.264c0.216,-0 0.36,0.144 0.384,0.36l-0.768,-0c0.024,-0.216 0.168,-0.36 0.384,-0.36Zm-3.864,1.152l-0,-1.392l-0.288,-0l-0,0.168c-0.096,-0.12 -0.264,-0.216 -0.456,-0.216c-0.408,-0 -0.696,0.312 -0.696,0.744c-0,0.432 0.312,0.744 0.696,0.744c0.192,-0 0.36,-0.072 0.456,-0.216l-0,0.168l0.288,-0Zm-1.176,-0.672c-0,-0.264 0.168,-0.48 0.456,-0.48c0.264,-0 0.432,0.216 0.432,0.48c-0,0.288 -0.168,0.48 -0.432,0.48c-0.264,-0 -0.456,-0.216 -0.456,-0.48Zm11.064,-0.744c-0.168,-0 -0.312,0.072 -0.384,0.216l-0,-0.168l-0.288,-0l-0,1.44l0.288,-0l-0,-0.816c-0,-0.24 0.12,-0.384 0.312,-0.384c0.072,-0 0.12,-0 0.192,0.048l0.096,-0.264c-0.072,-0.072 -0.168,-0.072 -0.216,-0.072Zm2.256,1.248l0.096,-0c0.024,-0 0.024,0.024 0.048,0.024c0.024,0.024 0.024,0.024 0.024,0.048l-0,0.096c-0,0.024 -0.024,0.024 -0.024,0.048c-0.024,0.024 -0.024,0.024 -0.048,0.024l-0.096,-0c-0.024,-0 -0.024,-0.024 -0.048,-0.024c-0.024,-0.024 -0.024,-0.024 -0.024,-0.048l-0,-0.096c-0,-0.024 0.024,-0.024 0.024,-0.048c0.024,-0.024 0.024,-0.024 0.048,-0.024Zm-0,0.264l0.096,-0c0.024,-0 0.024,-0.024 0.024,-0.024l0.024,-0.024l-0,-0.096c-0,-0.024 -0.024,-0.024 -0.024,-0.024l-0.024,-0.024l-0.096,-0c-0.024,-0 -0.024,0.024 -0.024,0.024l-0.024,0.024l-0,0.096c-0,0.024 0.024,0.024 0.024,0.024l0.024,0.024Zm0.048,-0.192l0.048,-0l0.024,0.024l-0,0.024c-0,-0 -0.024,-0 -0.024,0.024l0.048,0.048l-0.024,-0l-0.048,-0.048l-0.024,-0l-0,0.048l-0.024,-0l-0,-0.144l0.024,-0l-0,0.024Zm-0.024,0.024l0.048,0.024l-0,-0.048l-0.048,0.024Zm-3.384,0.072l-0,-1.392l-0.288,-0l-0,0.168c-0.096,-0.12 -0.264,-0.216 -0.456,-0.216c-0.408,-0 -0.696,0.312 -0.696,0.744c-0,0.432 0.312,0.744 0.696,0.744c0.192,-0 0.36,-0.072 0.456,-0.216l-0,0.168l0.288,-0Zm-1.152,-0.672c-0,-0.264 0.168,-0.48 0.456,-0.48c0.264,-0 0.432,0.216 0.432,0.48c-0,0.288 -0.168,0.48 -0.432,0.48c-0.288,-0 -0.456,-0.216 -0.456,-0.48Zm4.032,0.672l-0,-1.968l-0.288,-0l-0,0.744c-0.096,-0.12 -0.264,-0.216 -0.456,-0.216c-0.408,-0 -0.696,0.312 -0.696,0.744c-0,0.432 0.312,0.744 0.696,0.744c0.192,-0 0.36,-0.072 0.456,-0.216l-0,0.168l0.288,-0Zm-1.152,-0.672c-0,-0.264 0.168,-0.48 0.456,-0.48c0.264,-0 0.432,0.216 0.432,0.48c-0,0.288 -0.168,0.48 -0.432,0.48c-0.288,-0 -0.456,-0.216 -0.456,-0.48Z"/></clipPath><g clip-path="url(#_clip2)"><rect x="45.327" y="27.492" width="18.744" height="4.488" style="fill:#fff;"/></g></g></g><g><g><clipPath id="_clip3"><rect x="51.735" y="18.396" width="5.184" height="8.472"/></clipPath><g clip-path="url(#_clip3)"><rect x="50.535" y="17.196" width="7.584" height="10.872" style="fill:#ff5f00;"/></g></g></g><g><g><clipPath id="_clip4"><path d="M52.287,22.62c-0,-1.728 0.816,-3.24 2.064,-4.224c-0.912,-0.72 -2.064,-1.152 -3.336,-1.152c-2.976,0 -5.376,2.4 -5.376,5.376c-0,2.976 2.4,5.376 5.376,5.376c1.248,-0 2.4,-0.432 3.336,-1.152c-1.272,-0.984 -2.064,-2.52 -2.064,-4.224"/></clipPath><g clip-path="url(#_clip4)"><rect x="44.415" y="16.044" width="11.112" height="13.176" style="fill:#eb001b;"/></g></g></g><g><g><clipPath id="_clip5"><path d="M62.535,25.956l-0,-0.168l0.072,-0l-0,-0.024l-0.168,0l-0,0.024l0.072,-0l0.024,0.168Zm0.336,0l-0,-0.216l-0.048,-0l-0.072,0.144l-0.072,-0.144l-0.048,-0l-0,0.216l0.048,0l-0,-0.168l0.048,0.144l0.048,-0l0.048,-0.144l-0,0.168l0.048,0Z"/></clipPath><g clip-path="url(#_clip5)"><rect x="61.215" y="24.54" width="2.856" height="2.616" style="fill:#f79e1b;"/></g></g></g><g><g><clipPath id="_clip6"><path d="M63.039,22.62c-0,2.976 -2.4,5.376 -5.376,5.376c-1.248,-0 -2.4,-0.432 -3.336,-1.152c1.248,-0.984 2.064,-2.52 2.064,-4.224c-0,-1.728 -0.816,-3.24 -2.064,-4.224c0.912,-0.72 2.064,-1.152 3.336,-1.152c2.976,0 5.376,2.4 5.376,5.376"/></clipPath><g clip-path="url(#_clip6)"><rect x="53.127" y="16.044" width="11.112" height="13.176" style="fill:#f79e1b;"/></g></g></g><g id="Amex"><g><g><clipPath id="_clip7"><path d="M75.774,15.84c0,-0.792 0.648,-1.44 1.44,-1.44l27.84,-0c0.792,-0 1.44,0.648 1.44,1.44l0,16.32c0,0.792 -0.648,1.44 -1.44,1.44l-27.84,0c-0.792,0 -1.44,-0.648 -1.44,-1.44l0,-16.32Z"/></clipPath><g clip-path="url(#_clip7)"><path d="M75.774,15.84c0,-0.792 0.648,-1.44 1.44,-1.44l27.84,-0c0.792,-0 1.44,0.648 1.44,1.44l0,16.32c0,0.792 -0.648,1.44 -1.44,1.44l-27.84,0c-0.792,0 -1.44,-0.648 -1.44,-1.44l0,-16.32Z" style="fill:#246ea9;fill-rule:nonzero;"/></g></g></g><g><clipPath id="_clip8"><path d="M106.158,26.232l-1.536,0c-0.144,0 -0.264,0 -0.336,0.072c-0.096,0.048 -0.12,0.144 -0.12,0.264c0,0.144 0.072,0.216 0.192,0.264c0.096,0.024 0.192,0.048 0.312,0.048l0.456,0c0.456,0.024 0.768,0.096 0.96,0.288c0.024,0.024 0.048,0.048 0.072,0.096l0,-1.032Zm0,2.328c-0.216,0.312 -0.6,0.456 -1.152,0.456l-1.632,0l0,-0.768l1.632,0c0.168,0 0.264,-0.024 0.336,-0.096c0.048,-0.048 0.096,-0.12 0.096,-0.24c0,-0.096 -0.048,-0.192 -0.096,-0.24c-0.072,-0.048 -0.144,-0.072 -0.288,-0.072c-0.792,-0.024 -1.776,0.024 -1.776,-1.104c0,-0.504 0.336,-1.056 1.2,-1.056l1.68,0l0,-0.696l-1.56,0c-0.48,0 -0.816,0.12 -1.056,0.288l0,-0.288l-2.304,0c-0.36,0 -0.792,0.096 -1.008,0.288l0,-0.288l-4.128,0l0,0.288c-0.336,-0.24 -0.888,-0.288 -1.128,-0.288l-2.736,0l0,0.288c-0.264,-0.24 -0.84,-0.288 -1.2,-0.288l-3.024,0l-0.696,0.792l-0.648,-0.744l-4.56,0l0,4.92l4.464,0l0.72,-0.768l0.672,0.768l2.76,0l0,-1.152l0.264,0c0.36,0 0.792,0 1.176,-0.168l0,1.32l2.28,0l0,-1.272l0.12,0c0.144,0 0.144,0 0.144,0.144l0,1.128l6.888,0c0.432,0 0.888,-0.12 1.152,-0.312l0,0.312l2.184,0c0.456,0 0.888,-0.072 1.248,-0.216l0,-0.936l-0.024,0Zm-3.384,-1.416c0.168,0.168 0.264,0.384 0.264,0.744c0,0.768 -0.48,1.104 -1.32,1.104l-1.656,0l0,-0.744l1.632,0c0.168,0 0.264,-0.024 0.336,-0.096c0.048,-0.048 0.096,-0.12 0.096,-0.24c0,-0.096 -0.048,-0.192 -0.096,-0.24c-0.072,-0.048 -0.144,-0.072 -0.312,-0.072c-0.792,-0.024 -1.776,0.024 -1.776,-1.104c0,-0.504 0.312,-1.056 1.2,-1.056l1.68,0l0,0.744l-1.536,0c-0.168,0 -0.264,0 -0.336,0.072c-0.096,0.048 -0.12,0.144 -0.12,0.264c0,0.144 0.072,0.216 0.192,0.264c0.096,0.024 0.192,0.048 0.336,0.048l0.456,0c0.48,0.048 0.768,0.12 0.96,0.312Zm-7.608,-0.216c-0.12,0.072 -0.264,0.072 -0.408,0.072l-1.032,0l0,-0.792l1.032,0c0.144,0 0.312,0 0.408,0.072c0.12,0.048 0.168,0.168 0.168,0.312c0.024,0.144 -0.048,0.264 -0.168,0.336Zm0.528,0.432c0.192,0.072 0.336,0.192 0.408,0.288c0.12,0.168 0.144,0.336 0.144,0.648l0,0.696l-0.84,0l0,-0.432c0,-0.216 0.024,-0.528 -0.144,-0.696c-0.12,-0.12 -0.312,-0.168 -0.624,-0.168l-0.912,0l0,1.296l-0.84,0l0,-3.504l1.944,0c0.432,0 0.744,0.024 1.008,0.168c0.264,0.168 0.432,0.384 0.432,0.792c0,0.552 -0.36,0.84 -0.576,0.912Zm1.056,-1.872l2.808,0l0,0.744l-1.968,0l0,0.648l1.92,0l0,0.72l-1.92,0l0,0.696l1.968,0l0,0.744l-2.808,0l0,-3.552Zm-5.688,1.632l-1.104,0l0,-0.888l1.104,0c0.312,0 0.504,0.12 0.504,0.432c0.024,0.288 -0.192,0.456 -0.504,0.456Zm-1.944,1.584l-1.296,-1.44l1.296,-1.392l0,2.832Zm-3.336,-0.432l-2.064,0l0,-0.696l1.848,0l0,-0.72l-1.848,0l0,-0.648l2.112,0l0.912,1.032l-0.96,1.032Zm6.696,-1.632c0,0.984 -0.72,1.176 -1.464,1.176l-1.056,0l0,1.176l-1.632,0l-1.032,-1.176l-1.08,1.176l-3.336,0l0,-3.504l3.384,0l1.032,1.152l1.08,-1.152l2.688,0c0.672,0 1.416,0.192 1.416,1.152Z"/></clipPath><g clip-path="url(#_clip8)"><rect x="80.91" y="23.592" width="26.448" height="7.32" style="fill:#fffffe;"/></g></g><g><g><clipPath id="_clip9"><path d="M78.846,21.408l-0.576,-1.416l-0.576,1.416l1.152,0Zm12.72,-0.552c-0.12,0.072 -0.264,0.072 -0.408,0.072l-1.032,-0l0,-0.792l1.032,0c0.144,0 0.312,0 0.408,0.072c0.12,0.048 0.168,0.168 0.168,0.312c0,0.168 -0.072,0.288 -0.168,0.336Zm7.32,0.552l-0.576,-1.416l-0.576,1.416l1.152,0Zm-13.632,1.536l-0.864,0l0,-2.76l-1.224,2.76l-0.744,0l-1.224,-2.76l0,2.76l-1.704,0l-0.336,-0.792l-1.752,0l-0.336,0.792l-0.912,0l1.512,-3.528l1.248,0l1.44,3.336l0,-3.336l1.368,0l1.104,2.4l1.008,-2.4l1.392,0l0,3.528l0.024,0Zm3.432,0l-2.808,0l0,-3.528l2.808,0l0,0.744l-1.968,0l0,0.624l1.92,0l0,0.72l-1.92,0l0,0.696l1.968,0l0,0.744Zm3.984,-2.592c0,0.552 -0.384,0.864 -0.6,0.936c0.192,0.072 0.336,0.192 0.408,0.288c0.12,0.168 0.144,0.336 0.144,0.648l0,0.696l-0.84,0l0,-0.456c0,-0.216 0.024,-0.528 -0.144,-0.696c-0.12,-0.12 -0.312,-0.144 -0.624,-0.144l-0.912,0l0,1.272l-0.84,0l0,-3.48l1.944,0c0.432,0 0.744,0.024 1.032,0.168c0.264,0.144 0.432,0.384 0.432,0.768Zm0.48,2.592l0.864,0l0,-3.528l-0.864,0l0,3.528Zm10.872,0l-1.224,0l-1.608,-2.64l0,2.64l-1.728,0l-0.336,-0.792l-1.728,0l-0.312,0.792l-0.984,0c-0.408,0 -0.936,-0.096 -1.224,-0.384c-0.288,-0.312 -0.456,-0.696 -0.456,-1.344c0,-0.528 0.096,-1.008 0.456,-1.368c0.264,-0.288 0.696,-0.408 1.272,-0.408l0.816,0l0,0.744l-0.792,0c-0.312,0 -0.48,0.048 -0.648,0.216c-0.144,0.144 -0.24,0.432 -0.24,0.792c0,0.384 0.072,0.648 0.24,0.84c0.12,0.144 0.36,0.192 0.576,0.192l0.384,-0l1.2,-2.784l1.272,-0l1.416,3.336l0,-3.36l1.296,0l1.488,2.448l0,-2.448l0.864,0l0,3.528Zm-27.888,0.696l1.44,0l0.336,-0.792l0.72,0l0.312,0.792l2.856,0l0,-0.6l0.264,0.6l1.464,0l0.24,-0.6l0,0.6l7.056,0l0,-1.296l0.144,0c0.096,0 0.12,0.024 0.12,0.168l0,1.128l3.648,0l0,-0.312c0.288,0.168 0.744,0.312 1.344,0.312l1.536,0l0.336,-0.792l0.72,0l0.312,0.792l2.952,0l0,-0.744l0.456,0.744l2.376,0l0,-4.92l-2.352,0l0,0.576l-0.336,-0.576l-2.4,0l0,0.576l-0.312,-0.576l-3.24,0c-0.552,0 -1.032,0.072 -1.416,0.288l0,-0.288l-2.232,0l0,0.288c-0.24,-0.216 -0.576,-0.288 -0.96,-0.288l-8.184,0l-0.552,1.272l-0.552,-1.272l-2.592,0l0,0.576l-0.288,-0.576l-2.208,0l-1.008,2.328l0,2.592Z"/></clipPath><g clip-path="url(#_clip9)"><rect x="74.934" y="17.52" width="31.008" height="7.32" style="fill:#fffffe;"/></g></g><rect x="93.15" y="19.416" width="0.864" height="3.528" style="fill:#246ea9;"/></g></g><g id="Visa"><g><path id="SVGID_1_1" serif:id="SVGID_1_" d="M2,15.84c-0,-0.792 0.648,-1.44 1.44,-1.44l27.84,0c0.792,0 1.44,0.648 1.44,1.44l-0,16.32c-0,0.792 -0.648,1.44 -1.44,1.44l-27.84,0c-0.792,0 -1.44,-0.648 -1.44,-1.44l-0,-16.32Z" style="fill:#fff;"/><clipPath id="_clip10"><path d="M2,15.84c-0,-0.792 0.648,-1.44 1.44,-1.44l27.84,0c0.792,0 1.44,0.648 1.44,1.44l-0,16.32c-0,0.792 -0.648,1.44 -1.44,1.44l-27.84,0c-0.792,0 -1.44,-0.648 -1.44,-1.44l-0,-16.32Z"/></clipPath><g clip-path="url(#_clip10)"><path d="M2,15.84c-0,-0.792 0.648,-1.44 1.44,-1.44l27.84,0c0.792,0 1.44,0.648 1.44,1.44l-0,16.32c-0,0.792 -0.648,1.44 -1.44,1.44l-27.84,0c-0.792,0 -1.44,-0.648 -1.44,-1.44l-0,-16.32Z" style="fill:#fff;fill-rule:nonzero;stroke:#cbcbcb;stroke-width:0.48px;"/></g></g><g><clipPath id="_clip11"><rect x="3.272" y="29.76" width="28.152" height="2.568"/></clipPath><g clip-path="url(#_clip11)"><rect x="2.072" y="28.56" width="30.552" height="4.968" style="fill:#f7b600;"/></g></g><g><clipPath id="_clip12"><rect x="3.272" y="15.672" width="28.152" height="2.568"/></clipPath><g clip-path="url(#_clip12)"><rect x="2.072" y="14.472" width="30.552" height="4.968" style="fill:#1a1f71;"/></g></g><g><clipPath id="_clip13"><path d="M17.408,20.616l-1.464,6.888l-1.776,0l1.464,-6.888l1.776,0Zm7.536,4.44l0.936,-2.592l0.552,2.592l-1.488,0Zm1.992,2.448l1.656,-0l-1.44,-6.888l-1.536,0c-0.336,0 -0.648,0.192 -0.768,0.504l-2.688,6.384l1.872,-0l0.36,-1.032l2.304,-0l0.24,1.032Zm-4.656,-2.256c-0,-1.824 -2.52,-1.92 -2.496,-2.736c-0,-0.264 0.24,-0.504 0.768,-0.576c0.6,-0.048 1.224,0.048 1.776,0.312l0.312,-1.464c-0.528,-0.216 -1.104,-0.312 -1.68,-0.312c-1.776,0 -3,0.936 -3.024,2.28c-0.024,1.008 0.888,1.536 1.56,1.872c0.672,0.336 0.936,0.576 0.936,0.864c-0,0.456 -0.576,0.672 -1.08,0.672c-0.648,0.024 -1.272,-0.144 -1.848,-0.432l-0.336,1.512c0.624,0.264 1.296,0.384 1.992,0.36c1.872,0.024 3.096,-0.912 3.12,-2.352Zm-7.416,-4.632l-2.88,6.888l-1.896,-0l-1.416,-5.52c-0.096,-0.336 -0.168,-0.456 -0.408,-0.6c-0.552,-0.264 -1.152,-0.456 -1.776,-0.576l0.048,-0.192l3.048,-0c0.408,-0 0.768,0.312 0.816,0.72l0.72,3.96l1.848,-4.704l1.896,-0l-0,0.024Z"/></clipPath><g clip-path="url(#_clip13)"><rect x="5.288" y="19.272" width="24.504" height="9.528" style="fill:#1a1f71;"/></g></g></g><g id="Diners"><g><path id="SVGID_1_2" serif:id="SVGID_1_" d="M111.28,15.84c0,-0.792 0.648,-1.44 1.44,-1.44l27.84,0c0.792,0 1.44,0.648 1.44,1.44l0,16.32c0,0.792 -0.648,1.44 -1.44,1.44l-27.84,0c-0.792,0 -1.44,-0.648 -1.44,-1.44l0,-16.32Z" style="fill:#fff;"/><clipPath id="_clip14"><path d="M111.28,15.84c0,-0.792 0.648,-1.44 1.44,-1.44l27.84,0c0.792,0 1.44,0.648 1.44,1.44l0,16.32c0,0.792 -0.648,1.44 -1.44,1.44l-27.84,0c-0.792,0 -1.44,-0.648 -1.44,-1.44l0,-16.32Z"/></clipPath><g clip-path="url(#_clip14)"><path d="M111.28,15.84c0,-0.792 0.648,-1.44 1.44,-1.44l27.84,0c0.792,0 1.44,0.648 1.44,1.44l0,16.32c0,0.792 -0.648,1.44 -1.44,1.44l-27.84,0c-0.792,0 -1.44,-0.648 -1.44,-1.44l0,-16.32Z" style="fill:#fff;fill-rule:nonzero;stroke:#cbcbcb;stroke-width:0.48px;"/></g></g><g><clipPath id="_clip15"><path d="M117.496,27.792c0,0.336 0.24,0.36 0.432,0.36c0.912,-0 1.224,-0.696 1.224,-1.32c0,-0.792 -0.504,-1.368 -1.32,-1.368c-0.168,-0 -0.264,0.024 -0.336,0.024l0,2.304Zm-0.432,-1.992c0,-0.384 -0.192,-0.36 -0.384,-0.36l0,-0.12l1.248,0c1.104,0 1.704,0.744 1.704,1.488c0,0.408 -0.24,1.464 -1.752,1.464l-1.2,0l0,-0.12c0.264,-0.024 0.384,-0.024 0.384,-0.312l0,-2.04Z"/></clipPath><g clip-path="url(#_clip15)"><rect x="115.48" y="24.12" width="5.328" height="5.352" style="fill:#1a1919;"/></g></g><g><clipPath id="_clip16"><path d="M120.208,25.704c-0.12,-0 -0.216,-0.096 -0.216,-0.216c0,-0.096 0.096,-0.192 0.216,-0.192c0.12,0 0.216,0.096 0.216,0.192c0,0.12 -0.096,0.216 -0.216,0.216Zm-0.48,2.472l0.096,0c0.12,0 0.192,0 0.192,-0.144l0,-1.152c0,-0.192 -0.072,-0.216 -0.216,-0.288l0,-0.072c0.192,-0.048 0.432,-0.144 0.456,-0.144c0.024,-0.024 0.048,-0.024 0.072,-0.024c0.024,0 0.024,0.024 0.024,0.048l0,1.632c0,0.144 0.096,0.144 0.216,0.144l0.072,0l0,0.12l-0.912,0l0,-0.12Z"/></clipPath><g clip-path="url(#_clip16)"><rect x="118.552" y="24.072" width="3.312" height="5.4" style="fill:#1a1919;"/></g></g><g><clipPath id="_clip17"><path d="M121.072,26.904c0,-0.168 -0.048,-0.192 -0.24,-0.288l0,-0.072c0.192,-0.048 0.36,-0.12 0.552,-0.192c0.024,0 0.024,0 0.024,0.048l0,0.264c0.24,-0.168 0.456,-0.312 0.744,-0.312c0.36,0 0.48,0.264 0.48,0.6l0,1.104c0,0.144 0.096,0.144 0.216,0.144l0.072,0l0,0.12l-0.912,0l0,-0.12l0.072,0c0.12,0 0.192,0 0.192,-0.144l0,-1.104c0,-0.24 -0.144,-0.36 -0.384,-0.36c-0.144,0 -0.36,0.12 -0.504,0.192l0,1.248c0,0.144 0.096,0.144 0.216,0.144l0.072,0l0,0.12l-0.912,0l0,-0.12l0.072,0c0.12,0 0.192,0 0.192,-0.144l0,-1.128"/></clipPath><g clip-path="url(#_clip17)"><rect x="119.584" y="25.152" width="4.536" height="4.344" style="fill:#1a1919;"/></g></g><g><clipPath id="_clip18"><path d="M124,26.976c0.096,0 0.12,-0.048 0.12,-0.096c0,-0.216 -0.12,-0.384 -0.36,-0.384c-0.264,0 -0.432,0.192 -0.48,0.504l0.72,0l0,-0.024Zm-0.768,0.144l0,0.24c0.024,0.408 0.288,0.744 0.624,0.744c0.24,0 0.408,-0.12 0.576,-0.288l0.048,0.048c-0.192,0.264 -0.432,0.48 -0.792,0.48c-0.672,0 -0.816,-0.648 -0.816,-0.912c0,-0.84 0.552,-1.08 0.864,-1.08c0.336,0 0.72,0.216 0.72,0.672l0,0.072l-0.024,0.024l-1.2,0Z"/></clipPath><g clip-path="url(#_clip18)"><rect x="121.696" y="25.152" width="3.984" height="4.392" style="fill:#1a1919;"/></g></g><g><clipPath id="_clip19"><path d="M124.576,28.176l0.12,0c0.12,0 0.192,0 0.192,-0.144l0,-1.2c0,-0.12 -0.168,-0.168 -0.216,-0.192l0,-0.072c0.312,-0.12 0.48,-0.24 0.528,-0.24c0.024,-0 0.048,0.024 0.048,0.048l0,0.384c0.096,-0.168 0.288,-0.432 0.552,-0.432c0.096,-0 0.24,0.072 0.24,0.216c0,0.12 -0.072,0.216 -0.192,0.216c-0.12,-0 -0.12,-0.096 -0.288,-0.096c-0.072,-0 -0.312,0.096 -0.312,0.36l0,0.984c0,0.144 0.096,0.144 0.192,0.144l0.24,-0l0,0.12l-1.104,-0l0,-0.096"/></clipPath><g clip-path="url(#_clip19)"><rect x="123.376" y="25.152" width="3.84" height="4.344" style="fill:#1a1919;"/></g></g><g><clipPath id="_clip20"><path d="M126.208,27.696c0.048,0.288 0.216,0.528 0.528,0.528c0.24,0 0.336,-0.144 0.336,-0.312c0,-0.504 -0.912,-0.336 -0.912,-1.032c0,-0.24 0.192,-0.552 0.648,-0.552c0.144,0 0.312,0.048 0.48,0.12l0.024,0.432l-0.096,0c-0.048,-0.264 -0.192,-0.408 -0.456,-0.408c-0.168,0 -0.336,0.096 -0.336,0.288c0,0.504 0.984,0.336 0.984,1.008c0,0.288 -0.216,0.576 -0.72,0.576c-0.168,0 -0.36,-0.048 -0.528,-0.144l-0.048,-0.48l0.096,-0.024"/></clipPath><g clip-path="url(#_clip20)"><rect x="124.912" y="25.152" width="3.696" height="4.392" style="fill:#1a1919;"/></g></g><g><clipPath id="_clip21"><path d="M131.248,26.088l-0.096,0c-0.072,-0.504 -0.432,-0.696 -0.912,-0.696c-0.48,0 -1.2,0.336 -1.2,1.344c0,0.864 0.6,1.464 1.272,1.464c0.408,-0 0.768,-0.288 0.84,-0.744l0.096,0.024l-0.096,0.624c-0.168,0.12 -0.648,0.216 -0.936,0.216c-0.984,-0 -1.608,-0.648 -1.608,-1.584c0,-0.864 0.768,-1.488 1.608,-1.488c0.336,-0 0.672,0.12 1.008,0.216l0.024,0.624"/></clipPath><g clip-path="url(#_clip21)"><rect x="127.384" y="24.072" width="5.064" height="5.496" style="fill:#1a1919;"/></g></g><g><clipPath id="_clip22"><path d="M131.392,28.176l0.072,0c0.12,0 0.192,0 0.192,-0.144l0,-2.352c0,-0.264 -0.072,-0.288 -0.216,-0.336l0,-0.072c0.168,-0.048 0.336,-0.12 0.432,-0.192c0.048,-0.024 0.072,-0.048 0.096,-0.048c0.024,-0 0.024,0.024 0.024,0.048l0,2.928c0,0.144 0.096,0.144 0.216,0.144l0.072,-0l0,0.12l-0.912,-0l0,-0.096"/></clipPath><g clip-path="url(#_clip22)"><rect x="130.192" y="23.856" width="3.312" height="5.64" style="fill:#1a1919;"/></g></g><g><clipPath id="_clip23"><path d="M134.104,28.056c0,0.072 0.048,0.072 0.12,0.072l0.168,0l0,0.096c-0.192,0.024 -0.528,0.096 -0.6,0.12l-0.024,-0.024l0,-0.336c-0.264,0.216 -0.456,0.36 -0.744,0.36c-0.24,0 -0.456,-0.144 -0.456,-0.504l0,-1.08c0,-0.12 -0.024,-0.216 -0.264,-0.24l0,-0.072c0.144,0 0.48,-0.024 0.552,-0.024c0.048,0 0.048,0.024 0.048,0.12l0,1.104c0,0.12 0,0.48 0.36,0.48c0.144,0 0.336,-0.12 0.504,-0.264l0,-1.152c0,-0.096 -0.192,-0.12 -0.36,-0.168l0,-0.072c0.384,-0.024 0.624,-0.048 0.672,-0.048c0.024,0 0.024,0.024 0.024,0.072l0,1.56"/></clipPath><g clip-path="url(#_clip23)"><rect x="131.104" y="25.2" width="4.512" height="4.344" style="fill:#1a1919;"/></g></g><g><clipPath id="_clip24"><path d="M134.968,27.816c0,0.168 0.144,0.432 0.432,0.432c0.456,0 0.648,-0.456 0.648,-0.816c0,-0.456 -0.336,-0.84 -0.672,-0.84c-0.168,0 -0.288,0.096 -0.408,0.192l0,1.032Zm0,-1.152c0.168,-0.144 0.408,-0.312 0.624,-0.312c0.48,0 0.792,0.432 0.792,0.888c0,0.552 -0.408,1.104 -1.008,1.104c-0.312,0 -0.48,-0.096 -0.6,-0.144l-0.12,0.096l-0.096,-0.048c0.048,-0.24 0.048,-0.504 0.048,-0.744l0,-1.824c0,-0.264 -0.072,-0.288 -0.216,-0.336l0,-0.072c0.168,-0.048 0.336,-0.12 0.432,-0.192c0.048,-0.024 0.072,-0.048 0.096,-0.048c0.024,-0 0.024,0.024 0.024,0.048l0,1.584l0.024,-0Z"/></clipPath><g clip-path="url(#_clip24)"><rect x="133.192" y="23.856" width="4.392" height="5.712" style="fill:#1a1919;"/></g></g><g><clipPath id="_clip25"><path d="M116.68,30.744l0.024,0c0.072,0 0.168,0 0.168,-0.12l0,-1.2c0,-0.12 -0.096,-0.12 -0.168,-0.12l-0.024,0l0,-0.072l0.696,0l0,0.048l-0.024,0c-0.072,0 -0.168,0 -0.168,0.12l0,1.2c0,0.12 0.096,0.12 0.168,0.12l0.024,0l0,0.072l-0.696,0l0,-0.048"/></clipPath><g clip-path="url(#_clip25)"><rect x="115.48" y="28.008" width="3.096" height="4.008" style="fill:#1a1919;"/></g></g><g><clipPath id="_clip26"><path d="M117.376,30.816l0,-0.048l-0.024,0c-0.072,0 -0.192,-0.024 -0.192,-0.144l0,-1.2c0,-0.12 0.096,-0.144 0.192,-0.144l0.024,0l0,-0.048l-0.696,-0l0,0.048l0.024,0c0.072,0 0.192,0.024 0.192,0.144l0,1.2c0,0.12 -0.096,0.144 -0.192,0.144l-0.024,0l0,0.048l0.336,0c0.12,-0.024 0.24,0 0.36,0Zm0,0l-0.696,0l0,-0.096l0.048,0c0.072,0 0.168,0 0.168,-0.12l0,-1.2c0,-0.12 -0.072,-0.12 -0.168,-0.12l-0.048,0l0,-0.096l0.696,0l0,0.096l-0.048,0c-0.072,0 -0.168,0 -0.168,0.12l0,1.2c0,0.12 0.072,0.12 0.168,0.12l0.048,0l0,0.096Z"/></clipPath><g clip-path="url(#_clip26)"><rect x="115.48" y="28.008" width="3.12" height="4.032" style="fill:#1a1919;"/></g></g><g><clipPath id="_clip27"><path d="M118.96,30.36l0,-0.864c0,-0.192 -0.12,-0.216 -0.192,-0.216l-0.048,0l0,-0.072l0.6,0l0,0.072l-0.024,0c-0.096,0 -0.216,0.024 -0.216,0.288l0,1.056c0,0.072 0,0.168 0.024,0.24l-0.096,0l-1.176,-1.344l0,0.96c0,0.192 0.048,0.264 0.216,0.264l0.048,0l0,0.072l-0.6,0l0,-0.072l0.024,0c0.168,0 0.216,-0.12 0.216,-0.288l0,-0.96c0,-0.12 -0.096,-0.216 -0.216,-0.216l-0.024,0l0,-0.072l0.48,0l0.984,1.152"/></clipPath><g clip-path="url(#_clip27)"><rect x="116.272" y="28.008" width="4.248" height="4.056" style="fill:#1a1919;"/></g></g><g><clipPath id="_clip28"><path d="M119.008,30.84l0.072,0c0,-0.072 -0.024,-0.144 -0.024,-0.216l0,-1.056c0,-0.288 0.12,-0.312 0.216,-0.312l0.024,0l0,-0.048l-0.576,0l0,0.048l0.048,0c0.072,0 0.216,0.024 0.216,0.216l0,0.864l-1.032,-1.152l-0.48,0l0,0.048l0.024,0c0.12,0 0.216,0.072 0.216,0.216l0,0.96c0,0.192 -0.048,0.312 -0.216,0.312l-0.024,0l0,0.048l0.6,0l0,-0.048l-0.024,0c-0.192,0 -0.216,-0.072 -0.216,-0.288l0,-0.984l1.176,1.392Zm0.096,0.024l-0.096,-0l-1.176,-1.296l0,0.912c0,0.192 0.024,0.264 0.216,0.264l0.048,0l0,0.096l-0.6,0l0,-0.096l0.048,0c0.144,0 0.192,-0.096 0.192,-0.288l0,-0.96c0,-0.12 -0.096,-0.192 -0.192,-0.192l-0.048,0l0,-0.096l0.48,0l1.008,1.152l0,-0.84c0,-0.192 -0.12,-0.216 -0.192,-0.216l-0.072,-0l0,-0.096l0.6,-0l0,0.072l-0.048,0c-0.096,0 -0.192,0 -0.192,0.288l0,1.056c0.024,0.072 0.024,0.168 0.024,0.24Z"/></clipPath><g clip-path="url(#_clip28)"><rect x="116.248" y="28.008" width="4.272" height="4.056" style="fill:#1a1919;"/></g></g><g><clipPath id="_clip29"><path d="M119.68,29.328c-0.168,0 -0.168,0.048 -0.216,0.216l-0.072,0c0,-0.072 0.024,-0.12 0.024,-0.192c0,-0.072 0.024,-0.12 0.024,-0.192l0.048,0c0.024,0.072 0.072,0.072 0.144,0.072l1.2,0c0.072,0 0.12,0 0.12,-0.072l0.048,0c0,0.072 -0.024,0.12 -0.024,0.192l0,0.192l-0.072,0.024c0,-0.096 -0.024,-0.216 -0.168,-0.216l-0.384,0l0,1.224c0,0.168 0.072,0.192 0.192,0.192l0.048,-0l0,0.072l-0.768,-0l0,-0.072l0.048,-0c0.12,-0 0.192,-0 0.192,-0.192l0,-1.224l-0.384,0"/></clipPath><g clip-path="url(#_clip29)"><rect x="118.192" y="27.936" width="4.008" height="4.08" style="fill:#1a1919;"/></g></g><g><clipPath id="_clip30"><path d="M120.568,30.816l-0.768,0l0,-0.096l0.048,0c0.12,0 0.168,0 0.192,-0.192l0,-1.224l-0.36,0l0,-0.024l0.384,0l0,1.248c0,0.192 -0.072,0.192 -0.192,0.192l-0.024,0l0,0.048l0.384,0c0.096,0.024 0.24,0.048 0.336,0.048l0,-0.072l-0.024,0c-0.12,0 -0.192,-0.024 -0.192,-0.216l0,-1.248l0.384,0c0.144,0 0.168,0.144 0.168,0.216l0.048,-0.024l0,-0.192c0,-0.048 0.024,-0.12 0.024,-0.168l-0.024,0c0,0.072 -0.072,0.072 -0.144,0.072l-1.2,0c-0.048,0 -0.12,0 -0.144,-0.072l-0.024,0c0,0.072 0,0.12 -0.024,0.192c0,0.072 -0.024,0.12 -0.024,0.192l0.048,0c0.024,-0.168 0.048,-0.216 0.216,-0.216l0,0.024c-0.168,0 -0.168,0.024 -0.216,0.192l-0.096,0c0,-0.072 0.024,-0.12 0.024,-0.192c0,-0.072 0.024,-0.12 0.024,-0.192l0.072,0c0.024,0.048 0.048,0.048 0.12,0.048l1.2,0c0.072,0 0.12,0 0.12,-0.072l0.072,0c0,0.072 -0.024,0.12 -0.024,0.192l0,0.192l-0.072,0.096l0,-0.024c0,-0.096 -0.024,-0.216 -0.168,-0.216l-0.36,0l0,1.224c0,0.168 0.072,0.192 0.192,0.192l0.048,0l-0.024,0.072"/></clipPath><g clip-path="url(#_clip30)"><rect x="118.168" y="27.936" width="4.032" height="4.104" style="fill:#1a1919;"/></g></g><g><clipPath id="_clip31"><path d="M121.072,30.744l0.024,0c0.072,0 0.168,0 0.168,-0.12l0,-1.2c0,-0.12 -0.096,-0.12 -0.168,-0.12l-0.024,0l0,-0.072l1.176,0l0,0.36l-0.072,0.024c0,-0.144 -0.048,-0.264 -0.288,-0.264l-0.312,0l0,0.6l0.264,-0c0.144,-0 0.168,-0.072 0.192,-0.192l0.048,-0l0,0.528l-0.072,0.024c-0.024,-0.144 -0.024,-0.24 -0.168,-0.24l-0.288,-0l0,0.528c0,0.144 0.144,0.144 0.288,0.144c0.288,-0 0.408,-0.024 0.48,-0.288l0.072,0.024c-0.024,0.12 -0.048,0.24 -0.072,0.36l-1.248,-0l0,-0.096"/></clipPath><g clip-path="url(#_clip31)"><rect x="119.872" y="28.008" width="3.72" height="4.008" style="fill:#1a1919;"/></g></g><g><clipPath id="_clip32"><path d="M122.296,30.816c0.024,-0.12 0.048,-0.24 0.072,-0.36l-0.048,0c-0.072,0.264 -0.192,0.288 -0.48,0.288c-0.144,0 -0.288,0 -0.288,-0.168l0,-0.552l0.288,0c0.168,0 0.168,0.096 0.192,0.216l0.048,0l0,-0.528l-0.048,0c-0.024,0.12 -0.048,0.216 -0.192,0.192l-0.288,0l0,-0.624l0.336,0c0.24,0 0.288,0.12 0.288,0.264l0.048,-0.024l0,-0.336l-1.128,0l0,0.048l0.024,0c0.072,0 0.192,0.024 0.192,0.144l0,1.2c0,0.12 -0.096,0.144 -0.192,0.144l-0.024,0l0,0.048l0.6,0c0.192,0.024 0.456,0.048 0.6,0.048Zm0,0l-1.248,0l0,-0.096l0.048,0c0.072,0 0.168,0 0.168,-0.12l0,-1.2c0,-0.12 -0.072,-0.12 -0.168,-0.12l-0.048,0l0,-0.096l1.176,0l0,0.36l-0.072,0.024c-0.024,-0.144 -0.024,-0.264 -0.264,-0.264l-0.312,0l0,0.576l0.264,0c0.144,0 0.168,-0.072 0.168,-0.192l0.096,0l0,0.528l-0.072,0.024c-0.024,-0.144 -0.024,-0.216 -0.168,-0.216l-0.264,0l0,0.528c0,0.144 0.12,0.144 0.264,0.144c0.288,0 0.384,-0.024 0.456,-0.264l0.072,0.024c-0.024,0.12 -0.072,0.24 -0.096,0.36Z"/></clipPath><g clip-path="url(#_clip32)"><rect x="119.848" y="28.008" width="3.744" height="4.032" style="fill:#1a1919;"/></g></g><g><clipPath id="_clip33"><path d="M122.992,29.976l0.12,0c0.24,0 0.36,-0.096 0.36,-0.36c0,-0.216 -0.12,-0.336 -0.336,-0.336l-0.12,0l0,0.696l-0.024,0Zm-0.312,-0.528c0,-0.168 -0.096,-0.168 -0.168,-0.168l-0.048,-0l0,-0.072l0.72,-0c0.288,-0 0.552,0.072 0.552,0.408c0,0.216 -0.144,0.336 -0.312,0.408l0.384,0.6c0.072,0.096 0.12,0.12 0.216,0.144l0,0.072l-0.432,-0c-0.168,-0.24 -0.336,-0.48 -0.48,-0.744l-0.144,-0l0,0.504c0,0.168 0.072,0.192 0.192,0.192l0.048,-0l0,0.072l-0.744,-0l0,-0.072l0.048,-0c0.096,-0 0.168,-0.048 0.168,-0.12l0,-1.224Z"/></clipPath><g clip-path="url(#_clip33)"><rect x="121.288" y="28.008" width="3.984" height="4.008" style="fill:#1a1919;"/></g></g><g><clipPath id="_clip34"><path d="M123.088,29.976c0.24,0 0.336,-0.072 0.336,-0.36c0,-0.192 -0.12,-0.336 -0.336,-0.336l-0.12,0l0,0.672l0.12,-0l0,0.024Zm-0.096,0.024l0,-0.696l0.144,-0c0.216,-0 0.336,0.144 0.336,0.336c0,0.264 -0.144,0.36 -0.36,0.36l-0.12,0Zm0,0.072l0.168,0c0.144,0.264 0.312,0.504 0.48,0.744l0.432,0l0,-0.048c-0.12,-0.024 -0.168,-0.048 -0.216,-0.144l-0.408,-0.6c0.192,-0.072 0.312,-0.192 0.312,-0.408c0,-0.312 -0.24,-0.384 -0.528,-0.384l-0.696,0l0,0.048l0.024,0c0.072,0 0.168,0.024 0.168,0.192l0,1.176c0,0.096 -0.096,0.144 -0.168,0.144l-0.024,0l0,0.048l0.72,0l0,-0.048l-0.024,0c-0.096,0 -0.192,-0.024 -0.192,-0.192l-0.048,-0.528Zm1.056,0.744l-0.432,0c-0.168,-0.24 -0.336,-0.48 -0.48,-0.744l-0.144,0l0,0.48c0,0.168 0.072,0.168 0.168,0.168l0.048,0l0,0.096l-0.744,0l0,-0.096l0.048,0c0.072,0 0.144,-0.048 0.144,-0.12l0,-1.176c0,-0.168 -0.072,-0.168 -0.144,-0.168l-0.048,0l0,-0.096l0.72,0c0.288,0 0.552,0.072 0.552,0.408c0,0.216 -0.144,0.336 -0.312,0.408l0.384,0.576c0.072,0.096 0.096,0.12 0.216,0.144l0.024,0.12Z"/></clipPath><g clip-path="url(#_clip34)"><rect x="121.264" y="28.008" width="3.984" height="4.032" style="fill:#1a1919;"/></g></g><g><clipPath id="_clip35"><path d="M125.632,30.36l0,-0.864c0,-0.192 -0.12,-0.216 -0.192,-0.216l-0.048,0l0,-0.072l0.6,0l0,0.072l-0.024,0c-0.096,0 -0.216,0.024 -0.216,0.288l0,1.056c0,0.072 0,0.168 0.024,0.24l-0.096,0l-1.2,-1.344l0,0.96c0,0.192 0.048,0.264 0.216,0.264l0.048,0l0,0.072l-0.6,0l0,-0.072l0.024,0c0.168,0 0.216,-0.12 0.216,-0.288l0,-0.96c0,-0.12 -0.096,-0.216 -0.216,-0.216l-0.024,0l0,-0.072l0.48,0l1.008,1.152"/></clipPath><g clip-path="url(#_clip35)"><rect x="122.92" y="28.008" width="4.248" height="4.056" style="fill:#1a1919;"/></g></g><g><clipPath id="_clip36"><path d="M125.68,30.84l0.072,0c0,-0.072 -0.024,-0.144 -0.024,-0.216l0,-1.056c0,-0.288 0.12,-0.312 0.216,-0.312l0.024,0l0,-0.048l-0.576,0l0,0.048l0.048,0c0.072,0 0.216,0.024 0.216,0.216l0,0.864l-1.032,-1.152l-0.48,0l0,0.048l0.024,0c0.12,0 0.216,0.072 0.216,0.216l0,0.96c0,0.192 -0.048,0.312 -0.216,0.312l-0.024,0l0,0.048l0.6,0l0,-0.048l-0.024,0c-0.192,0 -0.216,-0.072 -0.216,-0.288l0,-0.984l1.176,1.392Zm0.072,0.024l-0.096,-0l-1.176,-1.32l0,0.936c0,0.192 0.024,0.264 0.216,0.264l0.048,0l0,0.096l-0.6,0l0,-0.096l0.048,0c0.144,0 0.192,-0.096 0.192,-0.288l0,-0.96c0,-0.12 -0.096,-0.192 -0.192,-0.192l-0.048,0l0,-0.096l0.48,0l1.008,1.152l0,-0.84c0,-0.192 -0.12,-0.216 -0.192,-0.216l-0.072,-0l0,-0.096l0.6,-0l0,0.072l-0.048,0c-0.096,0 -0.192,0 -0.192,0.288l0,1.056c0.024,0.072 0.024,0.144 0.024,0.24Z"/></clipPath><g clip-path="url(#_clip36)"><rect x="122.92" y="28.008" width="4.272" height="4.056" style="fill:#1a1919;"/></g></g><g><clipPath id="_clip37"><path d="M126.688,29.472l-0.216,0.648l0.432,0l-0.216,-0.648Zm-0.336,1.008c-0.024,0.072 -0.048,0.144 -0.048,0.168c0,0.072 0.096,0.072 0.168,0.072l0.024,0l0,0.072l-0.528,0l0,-0.072l0.024,0c0.096,0 0.168,-0.048 0.192,-0.144l0.36,-1.056c0.024,-0.096 0.072,-0.192 0.096,-0.288c0.072,-0.024 0.168,-0.072 0.216,-0.096l0.048,0c0,0.024 0.024,0.048 0.024,0.048l0.432,1.2c0.024,0.072 0.048,0.168 0.096,0.24c0.024,0.072 0.072,0.096 0.144,0.096l0.024,0l0,0.072l-0.648,0l0,-0.072l0.024,0c0.048,0 0.144,0 0.144,-0.072c0,-0.024 -0.024,-0.096 -0.048,-0.168l-0.144,-0.24l-0.528,0l-0.072,0.24Z"/></clipPath><g clip-path="url(#_clip37)"><rect x="124.768" y="27.96" width="4.008" height="4.056" style="fill:#1a1919;"/></g></g><g><clipPath id="_clip38"><path d="M126.496,30.12l0.384,0l-0.192,-0.624l-0.192,0.624Zm-0.048,0l0.216,-0.672l0.024,0l0.216,0.672l-0.456,0Zm0.408,0.696l0.72,0l0,-0.048c-0.072,-0 -0.144,-0.024 -0.168,-0.096c-0.024,-0.072 -0.048,-0.144 -0.096,-0.24l-0.432,-1.2c0,-0.024 -0.024,-0.048 -0.024,-0.048l-0.024,-0c-0.048,0.024 -0.144,0.072 -0.216,0.096c-0.024,0.096 -0.048,0.192 -0.096,0.288l-0.36,1.056c-0.024,0.096 -0.12,0.168 -0.216,0.168l0,0.048l0.504,-0l0,-0.048l-0.024,-0c-0.072,-0 -0.192,-0 -0.192,-0.096c0,-0.048 0.024,-0.096 0.048,-0.192l0.072,-0.24l0.528,-0l0.096,0.264c0.024,0.072 0.048,0.144 0.048,0.168c0,0.072 -0.096,0.072 -0.144,0.072l-0.024,-0l0,0.048Zm0.72,-0l-0.648,-0l0,-0.096l0.024,-0c0.048,-0 0.144,-0 0.144,-0.048c0,-0.024 -0.024,-0.096 -0.048,-0.168l-0.096,-0.264l-0.504,-0l-0.072,0.24c-0.024,0.072 -0.048,0.144 -0.048,0.168c0,0.048 0.096,0.072 0.168,0.072l0.024,-0l0,0.096l-0.528,-0l0,-0.096l0.024,-0c0.096,-0 0.168,-0.048 0.192,-0.144l0.36,-1.056c0.024,-0.096 0.072,-0.192 0.096,-0.288c0.072,-0.024 0.168,-0.072 0.216,-0.096l0.024,-0c0,-0 0.024,-0 0.024,0.024c0,0.024 0.024,0.048 0.024,0.048l0.432,1.2c0.024,0.072 0.048,0.168 0.096,0.24c0.024,0.072 0.072,0.096 0.144,0.096l-0.024,-0l-0.024,0.072Z"/></clipPath><g clip-path="url(#_clip38)"><rect x="124.768" y="27.936" width="4.032" height="4.08" style="fill:#1a1919;"/></g></g><g><clipPath id="_clip39"><path d="M127.672,29.328c-0.168,0 -0.168,0.048 -0.216,0.216l-0.072,0c0,-0.072 0.024,-0.12 0.024,-0.192c0,-0.072 0.024,-0.12 0.024,-0.192l0.048,0c0.024,0.072 0.072,0.072 0.144,0.072l1.2,0c0.072,0 0.12,0 0.12,-0.072l0.048,0c0,0.072 -0.024,0.12 -0.024,0.192l0,0.192l-0.072,0.024c0,-0.096 -0.024,-0.216 -0.168,-0.216l-0.384,0l0,1.224c0,0.168 0.072,0.192 0.192,0.192l0.048,-0l0,0.072l-0.768,-0l0,-0.072l0.048,-0c0.12,-0 0.192,-0 0.192,-0.192l0,-1.224l-0.384,0"/></clipPath><g clip-path="url(#_clip39)"><rect x="126.208" y="27.936" width="4.008" height="4.08" style="fill:#1a1919;"/></g></g><g><clipPath id="_clip40"><path d="M128.584,30.816l-0.768,0l0,-0.096l0.048,0c0.12,0 0.168,0 0.192,-0.192l0,-1.224l-0.36,0l0,-0.024l0.384,0l0,1.248c0,0.192 -0.072,0.192 -0.192,0.192l-0.048,0l0,0.048l0.384,0c0.12,0.024 0.264,0.048 0.36,0.048l0,-0.072l-0.024,0c-0.12,0 -0.192,-0.024 -0.192,-0.216l0,-1.248l0.384,0c0.144,0 0.168,0.144 0.168,0.216l0.048,-0.024l0,-0.192c0,-0.048 0.024,-0.12 0.024,-0.168l-0.024,0c0,0.072 -0.072,0.072 -0.144,0.072l-1.2,0c-0.048,0 -0.12,0 -0.144,-0.072l-0.048,0c0,0.072 0,0.12 -0.024,0.192c0,0.072 -0.024,0.12 -0.024,0.192l0.048,0c0.024,-0.168 0.048,-0.216 0.216,-0.216l0,0.024c-0.168,0 -0.168,0.024 -0.216,0.192l-0.096,0c0,-0.072 0.024,-0.12 0.024,-0.192c0,-0.072 0.024,-0.12 0.024,-0.192l0.072,0c0.024,0.048 0.048,0.048 0.12,0.048l1.2,0c0.072,0 0.12,0 0.12,-0.072l0.072,0c0,0.072 -0.024,0.12 -0.024,0.192l0,0.192l-0.072,0.024l0,-0.024c0,-0.096 -0.024,-0.216 -0.168,-0.216l-0.36,0l0,1.224c0,0.168 0.072,0.192 0.192,0.192l0.048,0l0,0.144"/></clipPath><g clip-path="url(#_clip40)"><rect x="126.184" y="27.936" width="4.032" height="4.104" style="fill:#1a1919;"/></g></g><g><clipPath id="_clip41"><path d="M129.088,30.744l0.024,0c0.072,0 0.168,0 0.168,-0.12l0,-1.2c0,-0.12 -0.096,-0.12 -0.168,-0.12l-0.024,0l0,-0.072l0.696,0l0,0.048l-0.024,0c-0.072,0 -0.168,0 -0.168,0.12l0,1.2c0,0.12 0.096,0.12 0.168,0.12l0.024,0l0,0.072l-0.696,0l0,-0.048"/></clipPath><g clip-path="url(#_clip41)"><rect x="127.888" y="28.008" width="3.096" height="4.008" style="fill:#1a1919;"/></g></g><g><clipPath id="_clip42"><path d="M129.784,30.816l0,-0.048l-0.024,0c-0.072,0 -0.192,-0.024 -0.192,-0.144l0,-1.2c0,-0.12 0.096,-0.144 0.192,-0.144l0.024,0l0,-0.048l-0.696,-0l0,0.048l0.024,0c0.072,0 0.192,0.024 0.192,0.144l0,1.2c0,0.12 -0.096,0.144 -0.192,0.144l-0.024,0l0,0.048l0.336,0c0.12,-0.024 0.24,0 0.36,0Zm0,0l-0.696,0l0,-0.096l0.048,0c0.072,0 0.168,0 0.168,-0.12l0,-1.2c0,-0.12 -0.072,-0.12 -0.168,-0.12l-0.048,0l0,-0.096l0.696,0l0,0.096l-0.024,0c-0.096,0 -0.168,0 -0.168,0.12l0,1.2c0,0.12 0.072,0.12 0.168,0.12l0.048,0l-0.024,0.096Z"/></clipPath><g clip-path="url(#_clip42)"><rect x="127.888" y="28.008" width="3.12" height="4.032" style="fill:#1a1919;"/></g></g><g><clipPath id="_clip43"><path d="M130.744,30.744c0.456,0 0.528,-0.384 0.528,-0.72c0,-0.336 -0.192,-0.744 -0.576,-0.744c-0.408,0 -0.528,0.36 -0.528,0.672c0.024,0.408 0.216,0.792 0.576,0.792m-0.024,-1.56c0.48,-0 0.888,0.312 0.888,0.792c0,0.528 -0.384,0.888 -0.864,0.888c-0.48,-0 -0.864,-0.336 -0.864,-0.816c-0.024,-0.504 0.36,-0.864 0.84,-0.864"/></clipPath><g clip-path="url(#_clip43)"><rect x="128.656" y="27.984" width="4.128" height="4.08" style="fill:#1a1919;"/></g></g><g><clipPath id="_clip44"><path d="M130.168,29.952c0,-0.312 0.12,-0.672 0.528,-0.672c0.384,0 0.576,0.408 0.576,0.744c0,0.336 -0.072,0.744 -0.528,0.744l0,-0.024c0.432,0 0.504,-0.384 0.504,-0.72c0,-0.336 -0.168,-0.744 -0.552,-0.744c-0.384,0 -0.504,0.36 -0.528,0.672c0.024,0.408 0.216,0.792 0.576,0.792l0,0.024c-0.384,-0 -0.576,-0.408 -0.576,-0.816m-0.312,0.072c0,-0.48 0.384,-0.864 0.864,-0.864l0,0.024c-0.48,-0 -0.84,0.36 -0.864,0.84c0.024,0.48 0.384,0.816 0.864,0.816c0.48,-0 0.864,-0.336 0.864,-0.864c0,-0.48 -0.384,-0.792 -0.864,-0.792l0,-0.024c0.504,0 0.888,0.312 0.888,0.816c0,0.528 -0.384,0.888 -0.888,0.888c-0.48,-0 -0.864,-0.336 -0.864,-0.84"/></clipPath><g clip-path="url(#_clip44)"><rect x="128.656" y="27.96" width="4.152" height="4.104" style="fill:#1a1919;"/></g></g><g><clipPath id="_clip45"><path d="M133.144,30.36l0,-0.864c0,-0.192 -0.12,-0.216 -0.192,-0.216l-0.048,0l0,-0.072l0.6,0l0,0.072l-0.024,0c-0.096,0 -0.216,0.024 -0.216,0.288l0,1.056c0,0.072 0,0.168 0.024,0.24l-0.096,0l-1.176,-1.32l0,0.96c0,0.192 0.048,0.264 0.216,0.264l0.048,0l0,0.072l-0.6,0l0,-0.072c0.168,0 0.216,-0.12 0.216,-0.288l0,-0.96c0,-0.12 -0.096,-0.216 -0.216,-0.216l-0.024,0l0,-0.072l0.48,0l1.008,1.128"/></clipPath><g clip-path="url(#_clip45)"><rect x="130.456" y="28.008" width="4.248" height="4.056" style="fill:#1a1919;"/></g></g><g><clipPath id="_clip46"><path d="M133.192,30.84l0.072,0c0,-0.072 -0.024,-0.144 -0.024,-0.216l0,-1.056c0,-0.288 0.12,-0.312 0.216,-0.312l0.024,0l0,-0.048l-0.576,0l0,0.048l0.048,0c0.072,0 0.216,0.024 0.216,0.216l0,0.864l-1.032,-1.152l-0.48,0l0,0.048l0.024,0c0.12,0 0.216,0.072 0.216,0.216l0,0.96c0,0.192 -0.048,0.312 -0.216,0.312l-0.024,0l0,0.048l0.6,0l0,-0.048l-0.024,0c-0.192,0 -0.216,-0.072 -0.216,-0.288l0,-0.984l1.176,1.392Zm0.096,0.024l-0.096,-0l-1.176,-1.296l0,0.912c0,0.192 0.024,0.264 0.216,0.264l0.048,0l0,0.096l-0.6,0l0,-0.096c0.144,0 0.192,-0.096 0.192,-0.288l0,-0.96c0,-0.12 -0.096,-0.192 -0.192,-0.192l-0.048,0l0,-0.096l0.48,0l1.008,1.152l0,-0.84c0,-0.192 -0.12,-0.216 -0.192,-0.216l-0.072,-0l0,-0.096l0.6,-0l0,0.072l-0.048,0c-0.096,0 -0.192,0 -0.192,0.288l0,1.056c0.072,0.072 0.072,0.168 0.072,0.24Z"/></clipPath><g clip-path="url(#_clip46)"><rect x="130.432" y="28.008" width="4.272" height="4.056" style="fill:#1a1919;"/></g></g><g><clipPath id="_clip47"><path d="M134.224,29.472l-0.216,0.648l0.432,0l-0.216,-0.648Zm-0.336,1.008c-0.024,0.072 -0.048,0.144 -0.048,0.168c0,0.072 0.096,0.072 0.168,0.072l0.024,0l0,0.072l-0.528,0l0,-0.072l0.024,0c0.096,0 0.168,-0.048 0.192,-0.144l0.36,-1.056c0.024,-0.096 0.072,-0.192 0.096,-0.288c0.072,-0.024 0.168,-0.072 0.216,-0.096l0.048,0c0,0.024 0.024,0.048 0.024,0.048l0.432,1.2c0.024,0.072 0.048,0.168 0.096,0.24c0.024,0.072 0.072,0.096 0.144,0.096l0.024,0l0,0.072l-0.648,0l0,-0.072l0.024,0c0.048,0 0.144,0 0.144,-0.072c0,-0.024 -0.024,-0.096 -0.048,-0.168l-0.096,-0.264l-0.528,0l-0.12,0.264Z"/></clipPath><g clip-path="url(#_clip47)"><rect x="132.304" y="27.96" width="4.008" height="4.056" style="fill:#1a1919;"/></g></g><g><clipPath id="_clip48"><path d="M134.008,30.12l0.408,0l-0.192,-0.624l-0.216,0.624Zm-0.024,0l0.216,-0.672l0.216,0.672l-0.432,0Zm0.408,0.696l0.72,0l0,-0.048c-0.072,-0 -0.144,-0.024 -0.168,-0.096c-0.024,-0.072 -0.048,-0.144 -0.096,-0.24l-0.432,-1.2c0,-0.024 -0.024,-0.048 -0.024,-0.048l-0.024,-0c-0.048,0.024 -0.144,0.072 -0.216,0.096c-0.024,0.096 -0.048,0.192 -0.096,0.288l-0.36,1.056c-0.024,0.096 -0.12,0.168 -0.216,0.168l0,0.048l0.504,-0l0,-0.048l-0.024,-0c-0.072,-0 -0.192,-0 -0.192,-0.096c0,-0.048 0.024,-0.096 0.048,-0.192l0.072,-0.24l0.528,-0l0.096,0.264c0.024,0.072 0.048,0.144 0.048,0.168c0,0.072 -0.096,0.072 -0.144,0.072l-0.024,-0l0,0.048Zm0.72,-0l-0.648,-0l0,-0.096l0.024,-0c0.048,-0 0.144,-0.024 0.144,-0.048c0,-0.024 -0.024,-0.096 -0.048,-0.168l-0.096,-0.264l-0.504,-0l-0.072,0.24c-0.024,0.072 -0.048,0.144 -0.048,0.168c0,0.048 0.096,0.072 0.168,0.072l0.024,-0l0,0.096l-0.528,-0l0,-0.096l0.024,-0c0.096,-0 0.168,-0.048 0.192,-0.144l0.36,-1.056c0.024,-0.096 0.072,-0.192 0.096,-0.288c0.072,-0.024 0.168,-0.072 0.216,-0.096l0.024,-0c0,-0 0.024,-0 0.024,0.024c0,0.024 0.024,0.048 0.024,0.048l0.432,1.2c0.024,0.072 0.048,0.168 0.096,0.24c0.024,0.072 0.072,0.096 0.144,0.096l0.024,-0l-0.072,0.072Z"/></clipPath><g clip-path="url(#_clip48)"><rect x="132.28" y="27.936" width="4.032" height="4.08" style="fill:#1a1919;"/></g></g><g><clipPath id="_clip49"><path d="M135.688,30.6c0,0.096 0.072,0.12 0.144,0.12l0.312,-0c0.096,-0 0.168,-0.072 0.216,-0.12c0.048,-0.048 0.048,-0.12 0.072,-0.168l0.072,-0c-0.024,0.12 -0.048,0.264 -0.096,0.384l-1.2,-0l0,-0.072l0.024,-0c0.072,-0 0.168,-0 0.168,-0.144l0,-1.176c0,-0.12 -0.096,-0.12 -0.168,-0.12l-0.024,-0l0,-0.072l0.72,-0l0,0.048l-0.048,-0c-0.096,-0 -0.168,-0 -0.168,0.12l0,1.2"/></clipPath><g clip-path="url(#_clip49)"><rect x="133.984" y="28.008" width="3.696" height="4.008" style="fill:#1a1919;"/></g></g><g><clipPath id="_clip50"><path d="M136.408,30.816c0.024,-0.12 0.048,-0.24 0.072,-0.384l-0.048,0c-0.024,0.048 -0.024,0.12 -0.072,0.168c-0.048,0.048 -0.12,0.12 -0.24,0.12l-0.288,0c-0.072,0 -0.144,-0.048 -0.144,-0.144l0,-1.2c0,-0.12 0.072,-0.144 0.168,-0.144l0.048,0l0,-0.048l-0.696,0l0,0.048l0.024,0c0.072,0 0.192,0.024 0.192,0.144l0,1.176c0,0.144 -0.096,0.168 -0.192,0.168l-0.024,0l0,0.048l0.6,0c0.192,0.024 0.384,0.048 0.6,0.048Zm0,0l-1.2,0l0,-0.096l0.048,0c0.072,0 0.168,0 0.168,-0.144l0,-1.176c0,-0.12 -0.072,-0.12 -0.168,-0.12l-0.048,0l0,-0.096l0.72,0l0,0.096l-0.072,0c-0.096,0 -0.144,0 -0.144,0.12l0,1.2c0,0.096 0.048,0.12 0.12,0.12l0.288,0c0.096,0 0.168,-0.072 0.216,-0.12c0.024,-0.048 0.048,-0.12 0.072,-0.168l0.096,0l0,0.024c-0.024,0.096 -0.072,0.24 -0.096,0.36Z"/></clipPath><g clip-path="url(#_clip50)"><rect x="133.984" y="28.008" width="3.72" height="4.032" style="fill:#1a1919;"/></g></g><g><clipPath id="_clip51"><path d="M136.432,29.376l0.024,0c0.024,0 0.048,-0.024 0.048,-0.072c0,-0.048 -0.024,-0.048 -0.048,-0.048l-0.024,-0l0,0.12Zm-0.096,0.144l0.024,-0.024l0,-0.168c0,-0.024 0,-0.024 -0.024,-0.024l0,-0.024l0.12,0c0.048,0 0.072,0.024 0.072,0.072c0,0.048 -0.024,0.072 -0.048,0.072l0.096,0.096l-0.048,0c-0.024,0 -0.048,-0.048 -0.096,-0.12l-0.024,0l0,0.072c0,0.024 0,0.024 0.024,0.024l-0.096,0l0,0.024Zm0.12,0.072c0.12,0 0.192,-0.096 0.192,-0.192c0,-0.096 -0.072,-0.192 -0.192,-0.192c-0.12,0 -0.192,0.096 -0.192,0.192c0,0.096 0.096,0.192 0.192,0.192Zm0,-0.456c0.144,0 0.24,0.096 0.24,0.24c0,0.144 -0.096,0.24 -0.24,0.24c-0.144,0 -0.24,-0.096 -0.24,-0.24c0,-0.12 0.12,-0.24 0.24,-0.24Z"/></clipPath><g clip-path="url(#_clip51)"><rect x="135.016" y="27.936" width="2.88" height="2.88" style="fill:#1a1919;"/></g></g><g><clipPath id="_clip52"><path d="M122.056,21.072c0,-2.16 1.752,-3.912 3.912,-3.912c2.16,0 3.912,1.752 3.912,3.912c0,2.16 -1.752,3.912 -3.912,3.912c-2.16,0 -3.912,-1.752 -3.912,-3.912"/></clipPath><g clip-path="url(#_clip52)"><rect x="120.856" y="15.96" width="10.2" height="10.2" style="fill:#fffffe;"/></g></g><g><clipPath id="_clip53"><path d="M125.968,25.032c-2.232,0 -4.08,-1.8 -4.08,-4.008c0,-2.4 1.848,-4.08 4.08,-4.08l1.056,-0c2.208,-0 4.224,1.656 4.224,4.08c0,2.208 -2.016,4.008 -4.224,4.008l-1.056,0Zm0.024,-7.752c-2.04,0 -3.696,1.656 -3.696,3.696c0,2.04 1.656,3.696 3.696,3.696c2.04,-0 3.696,-1.656 3.696,-3.696c0,-2.04 -1.656,-3.696 -3.696,-3.696Zm-0.84,5.904l0,-4.392c-0.888,0.336 -1.512,1.2 -1.512,2.184c0,1.008 0.624,1.872 1.512,2.208Zm3.168,-2.184c0,-1.008 -0.624,-1.848 -1.512,-2.184l0,4.392c0.888,-0.36 1.512,-1.224 1.512,-2.208Z"/></clipPath><g clip-path="url(#_clip53)"><rect x="120.688" y="15.744" width="11.76" height="10.488" style="fill:#184977;"/></g></g></g></g></svg>