<?xml version="1.0" encoding="UTF-8" standalone="no"?><!DOCTYPE svg PUBLIC "-//W3C//DTD SVG 1.1//EN" "http://www.w3.org/Graphics/SVG/1.1/DTD/svg11.dtd"><svg width="100%" height="100%" viewBox="0 0 5936 5166" version="1.1" xmlns="http://www.w3.org/2000/svg" xmlns:xlink="http://www.w3.org/1999/xlink" xml:space="preserve" xmlns:serif="http://www.serif.com/" style="fill-rule:evenodd;clip-rule:evenodd;stroke-linejoin:round;stroke-miterlimit:2;"><g id="Layer_2"><g id="_8"><path d="M1825.29,3720.04c-3.875,100 -7.917,202.25 -11.959,303.125c-2.5,61.875 -4.958,123.125 -7.416,182.875c13.583,6.083 26.75,12.5 39.5,19.75c-6.625,-162.875 -13.667,-338 -20.125,-505.75Z" style="fill:none;fill-rule:nonzero;"/><path d="M2581.33,4891.67c-0.003,22.743 -1.534,45.461 -4.583,68c56.167,-176.542 243.917,-306.334 466.958,-306.334c43.809,-0.037 87.471,5.081 130.084,15.25c56.416,-166.333 234.875,-287.916 446.458,-287.916c176.167,-0 329.167,84.291 408.333,208.333c46.13,-50.399 99.023,-94.163 157.167,-130.042l-215.917,-431.958c-10.527,0.278 -21.111,0.417 -31.75,0.417c-162.791,-0 -313.75,-33.334 -437.958,-90.167c-124.208,-56.833 -221.75,-137.5 -277.333,-232.167c-9.973,-16.974 -18.65,-34.677 -25.959,-52.958l-166.166,0c-39.611,-0.027 -77.65,15.707 -105.667,43.708l-571.542,572.084c-30.329,30.428 -71.579,47.534 -114.541,47.5c-10.236,-0.015 -20.448,-0.991 -30.5,-2.917c-1.834,36.375 -3.459,71.458 -4.834,105.042c214.542,39.333 377.75,236.625 377.75,474.125Zm268,-659.334c0.028,0 0.056,0 0.084,0c47.338,0 86.291,38.954 86.291,86.292c0,47.338 -38.953,86.292 -86.291,86.292c-47.339,-0 -86.292,-38.954 -86.292,-86.292c0.023,-47.284 38.924,-86.185 86.208,-86.208l0,-0.084Z" style="fill:none;fill-rule:nonzero;"/><ellipse cx="1096.42" cy="3832.29" rx="57.167" ry="57.25" style="fill:none;"/><path d="M4616.29,3284.25l221.791,-289.375l-1004.17,0l-233.917,332.958l910.833,0c39.518,-0.013 77.462,-15.694 105.459,-43.583Z" style="fill:none;fill-rule:nonzero;"/><ellipse cx="5157.08" cy="4261.46" rx="57.167" ry="57.25" style="fill:none;"/><path d="M2849.33,4375.92c0.028,-0 0.056,-0 0.084,-0c31.406,-0 57.25,-25.844 57.25,-57.25c-0,-31.407 -25.844,-57.25 -57.25,-57.25c-31.407,-0 -57.25,25.843 -57.25,57.25c-0,0.014 -0,0.027 -0,0.041c-0,31.368 25.799,57.186 57.166,57.209Z" style="fill:none;fill-rule:nonzero;"/><path d="M4990.75,38.083l364.333,-25.583c3.265,-0.228 5.828,-2.978 5.828,-6.25c0,-3.437 -2.828,-6.265 -6.265,-6.265c-0.146,-0 -0.292,0.005 -0.438,0.015l-367.458,25.833c-1.987,0.132 -3.798,1.2 -4.875,2.875l-241,380.417l11.542,5.125l238.333,-376.167Z" style="fill-rule:nonzero;"/><path d="M5114.5,179.708l285.5,-20.041c3.272,-0.218 5.847,-2.971 5.847,-6.25c0,-3.437 -2.827,-6.264 -6.264,-6.264c-0.139,-0 -0.278,0.004 -0.416,0.014l-288.5,20.291c-1.972,0.145 -3.765,1.211 -4.834,2.875l-197.958,312.5l11.583,5.084l195.042,-308.209Z" style="fill-rule:nonzero;"/><path d="M753.5,3825.67c-19.5,-73.875 -36.5,-147.709 -51.292,-219.125c-3.954,-1.856 -7.432,-4.593 -10.166,-8c6.833,33.333 14.152,67.166 21.958,101.5c8.333,36.472 17.278,73.194 26.833,110.166c4.418,6.035 8.387,12.385 11.875,19c0.25,-1.166 0.5,-2.333 0.792,-3.541Z" style="fill:#d0d5d8;fill-rule:nonzero;"/><path d="M777.125,3911.04c-1.211,-0.343 -2.394,-0.775 -3.542,-1.292c-2.421,-1.09 -4.69,-2.49 -6.75,-4.167c23.459,81.375 50,161.834 80.209,238.209c0.915,-4.764 2.07,-9.478 3.458,-14.125c-27.292,-70.334 -51.667,-144.042 -73.375,-218.625Z" style="fill:#d0d5d8;fill-rule:nonzero;"/><path d="M893.583,4232.25c-2.906,0.584 -5.871,0.822 -8.833,0.708l1,2.209c54.458,119.458 118.792,224.25 194.875,300c0.458,-3.459 0.958,-6.875 1.5,-10.292c-73.042,-74.25 -135.5,-176.25 -188.542,-292.625Z" style="fill:#d0d5d8;fill-rule:nonzero;"/><path d="M670.208,3437.5c-12,-69.833 -21.75,-134.667 -29.583,-191.667c-3.088,-0.385 -6.073,-1.361 -8.792,-2.875c8.917,65.584 20.459,141.667 35.042,223.917c3.917,4.375 7.542,8.792 10.875,13.292c-2.611,-14.389 -5.125,-28.611 -7.542,-42.667Z" style="fill:#d0d5d8;fill-rule:nonzero;"/><path d="M616.667,3041.29c-1,-10.542 -1.75,-18.667 -2.209,-24.167c-0.458,-5.5 -0.708,-8.333 -0.708,-8.333c-0.047,-0.405 -0.16,-0.799 -0.333,-1.167c-1.695,0.273 -3.409,0.398 -5.125,0.375l-2.667,0c-0.084,0.51 -0.084,1.031 0,1.542c0.084,0.51 3.083,39.625 10.625,106.458c1.861,-5.556 4.028,-11.222 6.5,-17c-2.833,-23.542 -4.792,-43 -6.083,-57.708Z" style="fill:#d0d5d8;fill-rule:nonzero;"/><path d="M284.708,4858.33c-3.873,0.717 -7.825,0.914 -11.75,0.584c-1.458,-0 -2.875,-0.417 -4.166,-0.709c82.75,51.917 193.583,106.042 325,133.334c1,-2.625 2,-5.25 3.083,-7.875c-124.875,-25.792 -231.083,-75.959 -312.167,-125.334Z" style="fill:#d0d5d8;fill-rule:nonzero;"/><path d="M236.167,4833.33c-1.621,-3.002 -3.013,-6.122 -4.167,-9.333c-29.105,-20.099 -57.156,-41.683 -84.042,-64.667c-8.666,-7.458 -15.875,-13.916 -21.583,-19.208c-1.222,1.941 -2.616,3.768 -4.167,5.458c-0.333,0.375 -0.75,0.625 -1.083,1c34.406,31.356 70.968,60.26 109.417,86.5c2.5,0.792 4.958,1.667 7.333,2.625c-0.708,-0.916 -1.25,-1.666 -1.708,-2.375Z" style="fill:#d0d5d8;fill-rule:nonzero;"/><path d="M237.5,4835.58c-2.375,-0.958 -4.833,-1.833 -7.333,-2.625c-10.8,-3.29 -22.046,-4.878 -33.334,-4.708c-43.75,0.542 -78.958,25.833 -78.583,56.458c0.375,30.625 36.167,55.084 79.958,54.584c43.792,-0.5 78.917,-25.834 78.584,-56.5c-0.238,-8.952 -3.302,-17.603 -8.75,-24.709c-12.843,-2.964 -23.904,-11.113 -30.542,-22.5Z" style="fill:#eff0f1;fill-rule:nonzero;"/><path d="M284.708,4858.33c11.22,-2.255 21.494,-7.865 29.459,-16.083c24.409,-25.836 30.995,-63.973 16.666,-96.5c-6.099,-14.274 -18.225,-25.133 -33.083,-29.625c-15.458,-3.613 -31.74,0.74 -43.333,11.583c-14.368,13.007 -23.844,30.56 -26.834,49.709c-2.855,15.603 -1.415,31.693 4.167,46.541c1.154,3.211 2.546,6.331 4.167,9.334c0.458,0.833 1,1.583 1.5,2.375c6.675,11.424 17.803,19.577 30.708,22.5l0.292,-0c1.416,0.291 2.833,0.541 4.166,0.708c4.048,0.378 8.128,0.195 12.125,-0.542Z" style="fill:#eff0f1;fill-rule:nonzero;"/><path d="M126.208,4740c6.901,-11.81 9.369,-25.702 6.959,-39.167c-2.868,-18.866 -10.165,-36.787 -21.292,-52.291c-10.689,-15.826 -24.967,-28.904 -41.667,-38.167c-15.291,-8 -31.583,-11.125 -45.833,-5.042c-14.25,6.084 -23,20.834 -24.333,40.459c-1.334,19.625 5.375,44.125 20.791,66.166c15.417,22.042 36,36.709 54.875,42.25c18.875,5.542 34.75,2.459 45.334,-7.75c0.333,-0.375 0.75,-0.625 1.083,-1c1.522,-1.693 2.888,-3.52 4.083,-5.458Z" style="fill:#eff0f1;fill-rule:nonzero;"/><path d="M712.875,4723.88c-3.322,1.056 -6.815,1.466 -10.292,1.208c0.292,0.667 0.542,1.292 0.792,1.959c33.875,26.333 68.958,51.208 105.042,74.083c3.291,-1.208 6.625,-2.417 10.041,-3.583c-36.25,-22.542 -71.5,-47.542 -105.583,-73.667Z" style="fill:#d0d5d8;fill-rule:nonzero;"/><path d="M654.167,4676.42c-67.432,-57.728 -130.948,-119.879 -190.125,-186.042c-8.566,-2.05 -16.251,-6.798 -21.917,-13.542c0.458,0.959 0.917,1.959 1.292,2.917c52.179,59.337 107.67,115.676 166.208,168.75c16.361,14.806 33.111,29.347 50.25,43.625l1.958,0.75c-2.975,-5.281 -5.538,-10.783 -7.666,-16.458Z" style="fill:#d0d5d8;fill-rule:nonzero;"/><path d="M433.75,4464.38c-2.687,-5.064 -4.864,-10.381 -6.5,-15.875c-54.872,-63.869 -106.466,-130.482 -154.583,-199.583c-4.5,-6.5 -8.75,-12.75 -12.875,-18.792c-1.196,1.063 -2.478,2.025 -3.834,2.875c-1.026,0.611 -2.099,1.14 -3.208,1.583c13.375,19.709 28.917,41.917 46.542,66.042c32.958,45.042 73.125,96.667 119.291,150.542c5.571,3.774 10.663,8.209 15.167,13.208Z" style="fill:#d0d5d8;fill-rule:nonzero;"/><path d="M666,4699.58c-1.417,-2.125 -2.792,-4.375 -4.167,-6.708l-1.958,-0.75c-19.78,-6.663 -40.672,-9.395 -61.5,-8.042c-30.458,1.709 -57.417,11.042 -75.417,23.75c-18,12.709 -27.25,28.542 -24.583,43.584c2.667,15.041 16.375,26.708 35.5,34.166c22.704,8.006 46.828,11.199 70.833,9.375c24.017,-0.878 47.589,-6.753 69.209,-17.25c18.208,-9.541 30.5,-22.541 31.5,-37.875c0.227,-4.356 -0.454,-8.712 -2,-12.791c-0.25,-0.667 -0.5,-1.292 -0.792,-1.959c-12.917,-0.75 -26,-9.75 -36.625,-25.5Z" style="fill:#eff0f1;fill-rule:nonzero;"/><path d="M666,4699.58c10.625,15.75 23.708,24.75 36.583,25.5c3.477,0.258 6.97,-0.152 10.292,-1.208c13.5,-4.167 23.875,-17 31,-34.333c15.761,-44.707 15.126,-93.593 -1.792,-137.875c-8.333,-18.542 -20,-31.917 -35.25,-34.25c-15.25,-2.334 -30.75,7.333 -42.833,26.25c-12.083,18.916 -20.167,46.916 -19.792,78.208c0.162,18.625 3.56,37.08 10.042,54.542c2.119,5.746 4.682,11.318 7.667,16.666c1.291,2.125 2.666,4.375 4.083,6.5Z" style="fill:#eff0f1;fill-rule:nonzero;"/><path d="M433.75,4464.38c-4.504,-4.999 -9.596,-9.434 -15.167,-13.208c-17.891,-11.692 -38.185,-19.211 -59.375,-22c-52.375,-7.834 -98.5,10.375 -103.041,40.708c-4.542,30.333 34.25,61.25 86.625,69.083c52.375,7.834 98.541,-10.375 103.041,-40.708c0.863,-6.196 0.058,-12.511 -2.333,-18.292c-0.375,-0.958 -0.833,-1.958 -1.292,-2.916c-3.303,-3.878 -6.142,-8.129 -8.458,-12.667Z" style="fill:#eff0f1;fill-rule:nonzero;"/><path d="M442.208,4476.83c5.666,6.744 13.351,11.492 21.917,13.542c1.041,0.286 2.099,0.509 3.167,0.667c30.416,3.875 60.083,-32.459 66.291,-81.125c6.209,-48.667 -13.458,-91.25 -43.875,-95.125c-30.416,-3.875 -60.125,32.458 -66.291,81.125c-2.409,17.602 -1.103,35.516 3.833,52.583c1.636,5.494 3.813,10.811 6.5,15.875c2.33,4.465 5.168,8.645 8.458,12.458Z" style="fill:#eff0f1;fill-rule:nonzero;"/><path d="M259.792,4230.12c10.208,-9.125 13.791,-26.542 12.5,-47.917c-2.934,-28.655 -10.461,-56.653 -22.292,-82.916c-12.75,-29.959 -28.292,-55.625 -44.417,-73.417c-16.125,-17.792 -32.916,-27.542 -47.791,-23.542c-14.875,4 -24.625,21.417 -27.084,47.125c-2.458,25.709 2.667,59.375 17.125,93.334c14.459,33.958 35.167,61.125 55.375,77.041c18.667,14.792 36.625,20.167 49.542,14.75c1.109,-0.443 2.182,-0.972 3.208,-1.583c1.356,-0.85 2.638,-1.812 3.834,-2.875Z" style="fill:#eff0f1;fill-rule:nonzero;"/><path d="M893.583,4232.25c11.708,-3.075 22.258,-9.524 30.334,-18.542c14.876,-16.151 26.442,-35.064 34.041,-55.666c3.929,-9.745 7.01,-19.81 9.209,-30.084c1.125,-4.583 1.75,-9.416 2.458,-13.791c0.292,-2.25 0.458,-4.542 0.667,-6.75c0.208,-2.209 0.375,-4.167 0.458,-6.542l0,-12.75c-0.318,-4.046 -0.889,-8.067 -1.708,-12.042c-1.444,-7.631 -4.929,-14.731 -10.084,-20.541c-5.456,-5.741 -12.922,-9.16 -20.833,-9.542c-4.692,-0.337 -9.408,0.099 -13.958,1.292c-5.372,1.242 -10.556,3.189 -15.417,5.791c-2.583,1.375 -5.25,2.917 -7.958,4.667c-2.682,1.796 -5.269,3.729 -7.75,5.792c-5.432,4.427 -10.44,9.352 -14.959,14.708c-9.748,11.753 -17.555,24.99 -23.125,39.208c-1.583,4.167 -2.958,8.334 -4.166,12.167c-1.389,4.648 -2.543,9.362 -3.459,14.125c-0.75,4.167 -1.333,7.958 -1.708,11.792c2.708,3.041 5.333,6.125 7.625,9.125c15,19.958 20.083,39.041 12.5,52.291c-1.001,1.744 -2.219,3.354 -3.625,4.792c4.632,5.107 10.682,8.72 17.375,10.375c1.861,0.44 3.757,0.719 5.667,0.833c2.823,0.082 5.646,-0.156 8.416,-0.708Z" style="fill:#eff0f1;fill-rule:nonzero;"/><path d="M865.333,4216.96c7.709,-13.25 2.625,-32.333 -12.5,-52.291c-2.291,-3 -4.916,-6.084 -7.625,-9.125c-18.215,-19.515 -39.796,-35.591 -63.708,-47.459c-31.292,-15.958 -62.75,-24.125 -87.5,-24.583c-24.75,-0.458 -43.417,6.583 -49.625,20.583c-6.208,14 0.792,32.292 16.667,50.667c15.875,18.375 40.375,37.042 70.166,52.208c29.792,15.167 59.292,24.209 83.334,26.25c20.833,1.75 37.958,-1.791 47.125,-11.458c1.42,-1.435 2.652,-3.045 3.666,-4.792Z" style="fill:#eff0f1;fill-rule:nonzero;"/><path d="M777.125,3911.04c27.875,8.333 66.667,-22.959 88.708,-72.625c22.875,-51.834 18.709,-103.875 -9.333,-116.25c-28.042,-12.375 -69.333,19.541 -92.25,71.333c-4.594,10.358 -8.193,21.128 -10.75,32.167c-0.292,1.208 -0.542,2.375 -0.792,3.541c2.274,4.337 4.291,8.803 6.042,13.375c7.125,19.084 7.417,36.917 -2.125,48.959l-0.333,0.375c2.445,5.275 6.049,9.933 10.541,13.625c2.06,1.676 4.329,3.077 6.75,4.166c1.146,0.531 2.33,0.977 3.542,1.334Z" style="fill:#eff0f1;fill-rule:nonzero;"/><path d="M758.75,3842.58c-1.751,-4.572 -3.768,-9.038 -6.042,-13.375c-3.488,-6.615 -7.457,-12.965 -11.875,-19c-6.735,-9.273 -14.278,-17.932 -22.541,-25.875c-16.902,-16.917 -37.295,-29.944 -59.75,-38.166c-19.375,-6.417 -37.209,-6 -48.875,4.166c-11.667,10.167 -14.667,27.834 -9.209,48.792c5.459,20.958 19.459,44.792 40.834,65.375c21.375,20.583 45.833,33.75 66.916,38.333c21.084,4.584 38.5,0.917 48.084,-10.75l0.333,-0.375c9.542,-12.208 9.25,-30.041 2.125,-49.125Z" style="fill:#eff0f1;fill-rule:nonzero;"/><path d="M702.208,3606.54c0.788,0.376 1.594,0.71 2.417,1c14.542,4.958 31.917,-3.209 48.625,-19.667c16.708,-16.458 32.875,-41.417 45.292,-70.833c12.416,-29.417 18.875,-58.334 18.958,-82.042c0.083,-23.708 -6.25,-41.667 -20,-48.5c-13.75,-6.833 -32.208,-1 -50.833,14.708c-18.625,15.709 -37.25,41.334 -50.5,72.834c-3.125,7.458 -5.75,14.875 -8.042,22.208c5.03,8.642 9.03,17.843 11.917,27.417c7.125,24.25 3.416,43.583 -9,52.333c-2.535,1.83 -5.349,3.237 -8.334,4.167c1.777,6.796 4.94,13.152 9.292,18.666c2.778,3.307 6.268,5.942 10.208,7.709Z" style="fill:#eff0f1;fill-rule:nonzero;"/><path d="M691.042,3575.83c12.5,-8.75 16.125,-28.083 9,-52.333c-2.887,-9.573 -6.887,-18.775 -11.917,-27.417c-2.042,-3.625 -4.167,-7.291 -6.792,-10.958l-3.583,-5c-3.333,-4.5 -6.958,-8.917 -10.875,-13.292c-6.199,-6.936 -12.883,-13.425 -20,-19.416c-13.138,-10.98 -27.7,-20.133 -43.292,-27.209c-12.998,-5.962 -26.844,-9.87 -41.041,-11.583c-25,-2.708 -43.5,4.167 -50,18.167c-6.5,14 -0.834,31.75 11.041,50c6.614,9.929 14.072,19.269 22.292,27.916c18.741,19.741 39.715,37.234 62.5,52.125c9.96,6.566 20.472,12.254 31.417,17c16.041,6.709 31.083,9.625 42.916,6c2.975,-0.878 5.788,-2.228 8.334,-4Z" style="fill:#eff0f1;fill-rule:nonzero;"/><path d="M641.667,3245.83c15.5,1 29.958,-12.5 43.625,-31.75c3.416,-4.833 6.708,-10.125 10.208,-15.666c3.5,-5.542 6.833,-11.5 10,-17.709c6.792,-12.5 13.375,-25.791 19.875,-40.125c6.5,-14.333 12.5,-27.958 17.625,-41.125c2.667,-6.458 4.792,-13 7,-19.125c2.208,-6.125 3.833,-12.166 5.292,-17.958c5.833,-22.917 6.666,-42.625 -4.167,-53.75c-6.144,-5.742 -14.527,-8.476 -22.875,-7.458c-5.437,0.321 -10.798,1.429 -15.917,3.291c-6.227,2.126 -12.207,4.92 -17.833,8.334c-6.684,3.845 -13.002,8.294 -18.875,13.291c-6.718,5.569 -12.987,11.657 -18.75,18.209c-13.087,15.054 -23.974,31.888 -32.333,50c-0.709,1.541 -1.375,3.125 -2.042,4.708c-2.472,5.556 -4.639,11.222 -6.5,17c-3.615,10.867 -6.319,22.017 -8.083,33.333c2.45,3.2 4.69,6.554 6.708,10.042c10.25,18.208 11.417,35.917 2.833,48.542c-1.683,2.425 -3.688,4.612 -5.958,6.5c0.583,1.708 1.208,3.375 1.792,4.958c1.917,5.1 4.555,9.898 7.833,14.25c2.86,3.908 6.508,7.173 10.708,9.583c2.719,1.514 5.704,2.49 8.792,2.875l1.042,-0.25Z" style="fill:#eff0f1;fill-rule:nonzero;"/><path d="M617.458,3207.62c8.584,-12.5 7.417,-30.333 -2.833,-48.542c-2.018,-3.488 -4.258,-6.842 -6.708,-10.041c-12.903,-16.577 -29.497,-29.918 -48.459,-38.959c-25.541,-12.5 -51.958,-16.666 -72.5,-13.541c-20.541,3.125 -35.375,12.958 -40.083,27.5c-4.708,14.541 0.875,30.958 12.5,46.041c28.647,33.517 69.917,53.737 113.958,55.834c15.375,-0 28.917,-3.709 38.125,-11.792c2.285,-1.885 4.304,-4.072 6,-6.5Z" style="fill:#eff0f1;fill-rule:nonzero;"/><path d="M613.333,3007.62c28.292,-4.375 50.834,-46.625 51.292,-98.292c0.458,-54.75 -24,-99.375 -54.667,-99.666c-30.666,-0.292 -55.791,43.916 -56.375,98.666c-0.458,53.167 22.584,96.75 51.959,99.5l2.666,0c1.711,0.079 3.426,0.009 5.125,-0.208Z" style="fill:#eff0f1;fill-rule:nonzero;"/><path d="M3339.5,1606.62c54.167,-5.333 113.792,-10.542 157.583,-20.417c27.141,-5.495 52.147,-18.655 72.042,-37.916c16.667,-17.042 25.583,-37.042 25.583,-56.417c-0.188,-16.53 -6.517,-32.413 -17.75,-44.542c-4.523,-4.937 -10.274,-8.589 -16.666,-10.583c-7.312,-2.322 -14.955,-3.434 -22.625,-3.292c-20.584,0 -45.042,6.292 -66.667,13.875c-21.625,7.584 -40.208,16.167 -50,20.542c-2.792,1.25 -4.792,2.167 -6.375,2.708l-1.5,0.459c-0.486,0.024 -0.973,0.024 -1.458,-0c-0.472,0.026 -0.945,0.026 -1.417,-0c-1.754,-0.357 -3.272,-1.45 -4.167,-3c-1.021,-1.868 -1.021,-4.133 0,-6c0.215,-0.389 0.451,-0.764 0.709,-1.125c0.276,-0.359 0.583,-0.694 0.916,-1c0.456,-0.451 0.944,-0.868 1.459,-1.25c1.041,-0.792 2.416,-1.75 4.166,-3.042c9.959,-6.917 13.292,-14.833 13.334,-21.333c0.032,-4.007 -1.458,-7.881 -4.167,-10.834c-2.532,-2.752 -6.137,-4.273 -9.875,-4.166c-5,-0 -11.875,2.458 -19.75,10.333c-5.959,5.594 -12.496,10.538 -19.5,14.75c-8.042,5.125 -17.583,10.417 -28,15.833c-20.833,10.792 -45.25,21.917 -68.625,31.959c-16.667,7.125 -32.667,13.75 -46.5,19.291c2.625,4.792 5.083,9.709 7.333,14.667c8.38,18.895 14.816,38.594 19.209,58.792c2.5,11.208 4.166,21.75 5.666,31.041l2.375,-0.416c22.042,-3.5 47.667,-6.209 74.667,-8.917Z" style="fill:#fff;fill-rule:nonzero;"/><path d="M3230.67,1511.38c13.833,-5.542 29.875,-12.167 46.5,-19.292c23.375,-10.041 47.791,-21.166 68.625,-31.958c10.416,-5.417 19.958,-10.708 28,-15.833c7.004,-4.212 13.541,-9.157 19.5,-14.75c7.875,-7.875 14.75,-10.375 19.75,-10.334c3.737,-0.106 7.343,1.415 9.875,4.167c2.709,2.953 4.199,6.826 4.166,10.833c0,6.5 -3.375,14.417 -13.333,21.334c-1.875,1.291 -3.25,2.25 -4.167,3.041c-0.515,0.382 -1.002,0.8 -1.458,1.25c-0.333,0.307 -0.64,0.642 -0.917,1c-0.257,0.361 -0.494,0.737 -0.708,1.125c-1.022,1.868 -1.022,4.133 0,6c0.895,1.55 2.413,2.643 4.167,3c0.472,0.027 0.944,0.027 1.416,0c0.486,0.025 0.973,0.025 1.459,0l1.5,-0.458c1.583,-0.542 3.583,-1.458 6.375,-2.708c9.75,-4.375 28.375,-13 50,-20.542c21.625,-7.542 45.833,-13.917 66.666,-13.875c7.671,-0.142 15.313,0.97 22.625,3.292c6.392,1.994 12.144,5.646 16.667,10.583c11.233,12.129 17.562,28.012 17.75,44.542c0,19.375 -8.875,39.375 -25.583,56.416c-19.896,19.261 -44.901,32.422 -72.042,37.917c-43.792,9.875 -103.583,15.083 -157.583,20.417c-27.042,2.708 -52.625,5.416 -74.25,8.833l-2.375,0.417c0.625,4.416 1.166,8.583 1.625,12.5c8.666,-1.417 18.125,-2.75 28.125,-3.959c31.458,-3.916 68.5,-7.041 105.041,-10.875c34.226,-3.129 68.252,-8.165 101.917,-15.083c29.484,-6.012 56.632,-20.36 78.208,-41.333c18.584,-18.917 29.167,-41.917 29.167,-65.167c-0.143,-19.581 -7.573,-38.424 -20.833,-52.833c-5.911,-6.524 -13.423,-11.394 -21.792,-14.125c-8.598,-2.85 -17.609,-4.258 -26.667,-4.167c-27.625,0 -58.666,9.75 -83.541,19.292c-6.375,2.458 -12.5,4.916 -17.75,7.208c1.858,-4.143 2.837,-8.626 2.875,-13.167c0.063,-7.113 -2.54,-13.998 -7.292,-19.291c-4.889,-5.356 -11.832,-8.387 -19.083,-8.334c-9.25,0 -19.167,4.5 -28.584,14c-5.319,4.925 -11.127,9.295 -17.333,13.042c-16.596,10.059 -33.749,19.171 -51.375,27.292c-29.667,14.041 -62.5,27.875 -88.333,38.166l-3.25,1.292c2.139,3.722 4.222,7.431 6.25,11.125Z" style="fill-rule:nonzero;"/><path d="M3620.25,4380.75c-211.583,0 -390.042,121.583 -446.458,287.917c-42.613,-10.169 -86.275,-15.288 -130.084,-15.25c-223.041,-0 -410.791,129.791 -466.958,306.333c-1.278,9.722 -2.833,19.333 -4.667,28.833c64.5,50.459 104.834,105.875 115.584,164.334l547.958,-0c18.528,-249.529 229.007,-444.958 479.222,-444.958c69.28,0 137.747,14.982 200.695,43.916c30.215,-58.995 68.238,-113.653 113.041,-162.5c-78.958,-124.333 -232.166,-208.625 -408.333,-208.625Z" style="fill:#eff0f1;fill-rule:nonzero;"/><path d="M3235.62,5152.92l442.958,-0c-37.347,-19.29 -60.891,-57.965 -60.875,-100c0,-61.716 50.785,-112.5 112.5,-112.5l119.584,-0c13.246,-65.6 35.41,-129.079 65.875,-188.667c-62.948,-28.934 -131.415,-43.916 -200.695,-43.916c-250.215,0 -460.694,195.429 -479.222,444.958l-0.125,0.125Z" style="fill:#c1bebc;fill-rule:nonzero;"/><path d="M1952.29,5056.33c-0,-37.75 2.291,-78.75 4.583,-110.208c-8.333,-0.875 -16.667,-1.958 -24.208,-3.333c-22.209,-4.167 -41.334,-10 -55.375,-18.959c-1.69,-1.121 -2.756,-2.975 -2.875,-5c-0.12,-2.024 -13.5,-313.416 -29.167,-693.041c-12.75,-7.042 -25.917,-13.667 -39.5,-19.75c-15.833,388.416 -29.792,712.791 -29.792,712.791c-0.097,1.83 -0.978,3.532 -2.416,4.667c-10.707,7.927 -22.912,13.598 -35.875,16.667c7.958,18.291 18.583,42.208 31.791,70.833c12.13,27.211 18.282,56.709 18.042,86.5c0.008,18.639 -2.032,37.223 -6.083,55.417l182.791,-0c-3.441,-7.449 -5.812,-15.346 -7.041,-23.459c-3.642,-24.198 -5.273,-48.657 -4.875,-73.125Z" style="fill:#eff0f1;fill-rule:nonzero;"/><path d="M1490.5,5137.5c0,-16.667 4.167,-40.125 10.208,-66.167c6.042,-26.041 14.167,-54.583 22.209,-81.125c8.041,-26.541 15.833,-50.208 21.833,-68.041c-19.666,-5.996 -38.824,-13.548 -57.292,-22.584c-2.093,-1.055 -3.43,-3.197 -3.458,-5.541c-0.028,-2.345 0,-2.584 0,-7.625c0,-5.042 0,-12.5 -0.292,-22.375c-0.333,-19.625 -0.916,-48.5 -2,-85.375c-2.125,-73.792 -6.125,-179.709 -13.583,-308.334c-5.208,-89.541 -12.125,-190.125 -21.292,-298.416c-191.666,43.541 -337.5,182.083 -364.625,352.916c-0.541,3.417 -1.041,6.834 -1.5,10.292c-9.119,69.995 2.093,141.158 32.292,204.958c-125.667,12.5 -221.25,32.042 -294.458,57.417c-3.417,1.167 -6.75,2.375 -10.042,3.583c-124.583,45.334 -181.542,108.334 -211.708,182.334c-1.084,2.625 -2.084,5.25 -3.084,7.875c-18.791,49.708 -26.416,104.166 -34.833,161.583l933.458,0c-1.344,-5.011 -1.961,-10.189 -1.833,-15.375Z" style="fill:#eff0f1;fill-rule:nonzero;"/><path d="M2572.08,4988.58c1.834,-9.5 3.389,-19.111 4.667,-28.833c3.049,-22.538 4.58,-45.256 4.583,-68c0,-237.5 -163.208,-434.875 -377.791,-474.083c-5.959,146.708 -7.5,265.875 -7.5,349.5c-0,66.083 0.958,109.958 1.416,127.75c0,5.958 0.292,8.958 0.292,8.958c0.043,1.982 -0.835,3.877 -2.375,5.125c-9.909,7.224 -20.89,12.848 -32.542,16.667c-9.857,3.497 -19.9,6.446 -30.083,8.833c1.118,5.181 2.509,10.299 4.167,15.333c6.994,21.888 19.391,41.665 36.041,57.5l5.792,0c41.804,-0.558 83.292,7.352 121.958,23.25c28.959,12.218 55.448,29.615 78.167,51.334c21.543,20.297 39.158,44.396 51.958,71.083l256.667,-0c-10.583,-58.542 -50.917,-113.958 -115.417,-164.417Z" style="fill:#eff0f1;fill-rule:nonzero;"/><path d="M1775,5097.5c0.315,-27.976 -5.368,-55.697 -16.667,-81.292c-13.791,-30.041 -25,-54.916 -32.916,-73.583c-13.284,2.244 -26.737,3.332 -40.209,3.25c-35.962,-0.577 -71.733,-5.359 -106.583,-14.25c-7.417,-1.833 -14.708,-3.792 -21.792,-5.875c-2.958,8.792 -6.416,19.125 -10.083,30.5c-11.292,34.917 -24.792,79.5 -33.792,117.875c-6,25.583 -9.916,48.5 -9.875,63.333c-0.04,3.026 0.169,6.05 0.625,9.042c0.261,1.793 0.795,3.536 1.584,5.167c0.202,0.39 0.47,0.742 0.791,1.041l0.75,0l261.667,0c0.708,-2.875 1.667,-7.083 2.583,-12.5c2.543,-14.095 3.853,-28.385 3.917,-42.708Z" style="fill-rule:nonzero;"/><path d="M1769.62,5011c-13.208,-28.792 -23.833,-52.708 -31.792,-70.833l-3.166,0.791c-3.042,0.709 -6.167,1.292 -9.334,1.834c8.125,18.666 19.125,43.541 32.917,73.583c11.298,25.595 16.982,53.316 16.667,81.292c-0.015,14.445 -1.297,28.862 -3.834,43.083c-0.916,5.25 -1.875,9.458 -2.583,12.5l12.833,0c4.052,-18.194 6.092,-36.777 6.084,-55.417c0.366,-29.884 -5.702,-59.501 -17.792,-86.833Z" style="fill-rule:nonzero;"/><path d="M1505.21,5151.67c-0.789,-1.631 -1.323,-3.374 -1.583,-5.167c-0.456,-2.992 -0.665,-6.016 -0.625,-9.042c0,-14.833 3.875,-37.75 9.875,-63.333c9,-38.375 22.5,-82.958 33.792,-117.875c3.666,-11.375 7.125,-21.708 10.083,-30.5c-4.167,-1.167 -8.042,-2.375 -12,-3.625c-6,17.833 -13.917,41.958 -21.833,68.042c-7.917,26.083 -16.125,55.125 -22.209,81.125c-6.083,26 -10.208,49.375 -10.208,66.166c-0.136,5.214 0.481,10.421 1.833,15.459l14.417,-0l-0.75,-0c-0.343,-0.362 -0.611,-0.786 -0.792,-1.25Z" style="fill-rule:nonzero;"/><path d="M2393.83,5116.92c-25.735,-32.945 -59.475,-58.766 -98,-75c-37.116,-15.278 -76.95,-22.862 -117.083,-22.292l-8.333,0c-1.543,-0.001 -3.031,-0.581 -4.167,-1.625c-19.13,-17.532 -33.339,-39.773 -41.208,-64.5c-1.794,-5.472 -3.296,-11.035 -4.5,-16.667c-1.167,0.25 -2.292,0.542 -3.459,0.75c-36.592,7.053 -73.775,10.597 -111.041,10.584c-12.5,-0 -25,-0.459 -36.709,-1.292l0,0.375c-2.25,31.167 -4.5,71.667 -4.5,108.708c0,15.667 0.417,30.75 1.375,44.167c0.67,11.55 2.244,23.03 4.709,34.333c1.018,4.807 2.701,9.449 5,13.792c0.694,1.314 1.626,2.486 2.75,3.458c0.541,0.514 1.254,0.811 2,0.834l436.291,-0c-0.666,-1.292 -1.375,-2.709 -2.208,-4.167c-6.095,-11.044 -13.091,-21.566 -20.917,-31.458Z" style="fill-rule:nonzero;"/><path d="M2378.88,5081.83c-22.719,-21.719 -49.208,-39.115 -78.167,-51.333c-38.666,-15.899 -80.154,-23.808 -121.958,-23.25l-5.792,0c-16.65,-15.835 -29.047,-35.612 -36.041,-57.5c-1.658,-5.034 -3.049,-10.152 -4.167,-15.333c-4.167,0.958 -8.042,1.875 -12.208,2.708c1.204,5.631 2.706,11.195 4.5,16.667c7.869,24.727 22.078,46.967 41.208,64.5c1.136,1.043 2.624,1.623 4.167,1.625l8.333,-0c40.133,-0.57 79.967,7.014 117.083,22.291c38.525,16.234 72.265,42.056 98,75c7.811,9.989 14.78,20.609 20.834,31.75c0.833,1.542 1.541,2.959 2.208,4.167l13.875,-0c-12.754,-26.755 -30.341,-50.925 -51.875,-71.292Z" style="fill-rule:nonzero;"/><path d="M1975.88,5148.62c-2.299,-4.343 -3.982,-8.985 -5,-13.792c-2.465,-11.303 -4.039,-22.783 -4.708,-34.333c-0.959,-13.417 -1.375,-28.5 -1.375,-44.167c-0,-37.041 2.25,-77.541 4.5,-108.708l-0,-0.375c-4.167,-0.333 -8.334,-0.708 -12.5,-1.125c-2.292,31.458 -4.584,72.458 -4.584,110.208c-0.452,24.464 1.123,48.922 4.709,73.125c1.229,8.113 3.6,16.01 7.041,23.459l16.667,-0c-0.746,-0.023 -1.458,-0.32 -2,-0.834c-1.124,-0.972 -2.056,-2.144 -2.75,-3.458Z" style="fill-rule:nonzero;"/><path d="M1928.58,1010.08c11.773,-2.377 22.813,-7.519 32.209,-15c4.836,-4.071 8.443,-9.41 10.416,-15.416c6.659,-21.651 10.606,-44.044 11.75,-66.667l-1.041,0.833c-14.24,24.946 -33.072,46.973 -55.5,64.917l-0,31.917l2.166,-0.584Z" style="fill-rule:nonzero;"/><path d="M1708.92,935c2.071,8.243 5.135,16.204 9.125,23.708c3.594,6.912 8.556,13.022 14.583,17.959c3.112,2.4 6.383,4.585 9.792,6.541l-0.5,-11.666c-12.327,-10.914 -23.395,-23.171 -33,-36.542Z" style="fill-rule:nonzero;"/><path d="M1982.96,912.833c-1.144,22.623 -5.091,45.016 -11.75,66.667c-1.973,6.006 -5.58,11.345 -10.416,15.417c-9.396,7.481 -20.436,12.622 -32.209,15l-2.166,0.416l-0,12.834c6.558,-1.314 13.008,-3.125 19.291,-5.417c8.544,-3.031 16.465,-7.591 23.375,-13.458c6.485,-5.533 11.328,-12.74 14,-20.834c8.154,-26.624 12.447,-54.281 12.75,-82.125c-4.75,4.667 -9.125,8.5 -12.875,11.5Z" style="fill-rule:nonzero;"/><path d="M1742.42,983.333c-3.409,-1.956 -6.68,-4.141 -9.792,-6.541c-6.027,-4.937 -10.989,-11.047 -14.583,-17.959c-3.99,-7.504 -7.054,-15.465 -9.125,-23.708l-2.375,-3.208c-5.381,-7.874 -10.346,-16.024 -14.875,-24.417c0.952,9.944 2.637,19.804 5.041,29.5c2.366,9.633 5.907,18.939 10.542,27.708c4.417,8.378 10.484,15.777 17.833,21.75c5.675,4.334 11.759,8.102 18.167,11.25l-0.833,-14.375Z" style="fill-rule:nonzero;"/><path d="M2301.58,3213.12c-92.151,80.704 -203.35,136.633 -323.083,162.5c-1.913,0.411 -3.913,-0.081 -5.417,-1.333c-9,-7.75 -16.125,-20.375 -22.708,-37.5c-7.556,-21.006 -13.395,-42.591 -17.458,-64.542c-10.375,-51.542 -18.334,-119.667 -24.417,-200c-12.167,-160.708 -16.667,-370.333 -16.667,-592.667c0,-103.416 0.959,-209.583 2.584,-314.875c-16.25,1.709 -33.042,3.042 -50,4.167l-0,760.292c3.428,-0 6.25,2.821 6.25,6.25c-0,64.25 -4.667,220.166 -11.625,418.125c-2.25,63.666 -4.75,131.708 -7.375,202.416c5.041,135.209 10.708,280.167 16.416,423.334c18,450.875 36.584,883.333 38.75,934.208l0,1.583c15.029,7.847 31.269,13.115 48.042,15.584c23.535,3.873 47.358,5.727 71.208,5.541c27.759,-0.035 55.48,-2.026 82.959,-5.958c23.669,-3.091 46.976,-8.506 69.583,-16.167c9.363,-3.135 18.283,-7.462 26.542,-12.875c-0.375,-12.5 -1.584,-58.791 -1.584,-133.875c0,-103.333 2.334,-260.791 12.5,-457.458c-70.128,-19.312 -119.081,-83.568 -119.081,-156.306c0,-42.927 17.049,-84.144 47.373,-114.527l97.417,-97.5c12,-136.917 27.666,-284.125 48.083,-438.834c13.528,-102.861 24.097,-199.389 31.708,-289.583Z" style="fill:#fff;fill-rule:nonzero;"/><path d="M2301.58,3213.12c-7.75,90.306 -18.333,186.736 -31.75,289.292c-20.416,154.708 -36.083,301.916 -48.083,438.833l13.75,-13.792c11.833,-132.5 27.083,-274.5 46.75,-423.375c14.222,-107.916 25.181,-208.944 32.875,-303.083c-4.417,4.042 -8.958,8.125 -13.542,12.125Z" style="fill-rule:nonzero;"/><path d="M2183.54,4767.17c-0,75 1.208,121.583 1.583,133.875c-8.258,5.412 -17.179,9.739 -26.542,12.875c-22.607,7.66 -45.914,13.075 -69.583,16.166c-27.478,3.933 -55.2,5.924 -82.958,5.959c-23.851,0.186 -47.674,-1.668 -71.209,-5.542c-16.773,-2.469 -33.013,-7.737 -48.041,-15.583l-0,-1.584c-2.167,-50.791 -20.834,-483.333 -38.75,-934.208c-5.709,-143.167 -11.375,-288.125 -16.417,-423.333c-2,53.458 -4.167,108.333 -6.25,164.25c6.458,167.75 13.5,342.875 20.125,505.75c15.5,379.625 29.167,693.041 29.167,693.041c0.119,2.025 1.185,3.879 2.875,5c14.041,8.959 33.333,15 55.375,18.959c7.708,1.375 15.833,2.458 24.208,3.333c4.167,0.417 8.333,0.792 12.5,1.125c11.875,0.833 24.208,1.292 36.708,1.292c37.267,0.013 74.449,-3.531 111.042,-10.584c1.167,0 2.292,-0.5 3.458,-0.75c4.167,-0.833 8.334,-1.75 12.209,-2.708c10.183,-2.387 20.226,-5.336 30.083,-8.833c11.652,-3.819 22.633,-9.443 32.542,-16.667c1.54,-1.248 2.418,-3.143 2.375,-5.125c-0.044,-1.982 -0,-3 -0.292,-8.958c-0.458,-17.792 -1.417,-61.667 -1.417,-127.75c0,-83.625 1.542,-202.792 7.5,-349.5c1.375,-33.584 3,-68.667 4.834,-105.042c-4.167,-0.792 -8.334,-1.792 -12.5,-2.917c-10.292,196.667 -12.625,354.125 -12.625,457.459Z" style="fill-rule:nonzero;"/><path d="M1750.54,2171.25l-12.834,0c-0.389,17.25 -0.805,34.514 -1.25,51.792c-8.916,357.666 -25,715.125 -54.166,931.458c-8.334,61.875 -17.709,112.167 -28.417,148c-4.21,15.685 -10.472,30.746 -18.625,44.792c-1.532,2.366 -4.477,3.428 -7.167,2.583c-102.825,-32.973 -199.421,-82.898 -285.791,-147.708c9.416,93.458 22.041,193.375 38.541,300c106.834,692.291 115.209,1332.33 115.75,1387.5c27.275,12.678 55.769,22.548 85.042,29.458c33.882,8.657 68.659,13.327 103.625,13.917c15.685,0.195 31.342,-1.399 46.667,-4.75c11.406,-2.387 22.252,-6.926 31.958,-13.375c0.25,-5.667 0.833,-19.334 1.708,-39.875c1.209,-27.709 2.917,-68 5.042,-118.167c4.167,-100.375 10.125,-240.375 16.667,-398.917c13.083,-317.125 28.791,-708.333 39.25,-1005.33c6.958,-197.917 11.625,-353.917 11.625,-417.708c-0,-3.429 2.821,-6.25 6.25,-6.25l-0,-759.959c-30.625,1.75 -62.209,2.542 -93.875,2.542Z" style="fill:#fff;fill-rule:nonzero;"/><path d="M1481.62,4778.62c1.083,36.875 1.667,65.75 2,85.375c0,9.792 0.25,17.292 0.292,22.375c0.041,5.083 -0,7.625 -0,7.625c0.028,2.344 1.365,4.486 3.458,5.542c18.468,9.035 37.626,16.587 57.292,22.583c3.958,1.25 7.916,2.458 12,3.625c7.083,2.083 14.375,4.167 21.791,5.875c34.851,8.891 70.622,13.673 106.584,14.25c13.471,0.082 26.924,-1.006 40.208,-3.25c3.167,-0.542 6.292,-1.125 9.333,-1.833l3.167,-0.792c12.963,-3.069 25.169,-8.74 35.875,-16.667c1.438,-1.135 2.32,-2.837 2.417,-4.666c0.097,-1.83 13.958,-324.375 29.791,-712.792c2.459,-59.75 4.917,-120.833 7.417,-182.875c4.167,-100.875 8.083,-203.292 11.958,-303.125c2.125,-55.792 4.167,-110.792 6.25,-164.25c2.625,-70.833 5.125,-138.75 7.375,-202.417c6.959,-197.958 11.625,-353.875 11.625,-418.125c0,-3.428 -2.821,-6.25 -6.25,-6.25c-3.428,0 -6.25,2.822 -6.25,6.25c0,63.792 -4.666,219.792 -11.625,417.709c-10.458,296.875 -26.166,688.208 -39.25,1005.33c-6.541,158.333 -12.5,298.542 -16.666,398.917c-2.125,50 -3.834,90.458 -5.042,118.166c-0.875,20.542 -1.458,34.209 -1.708,39.875c-9.706,6.449 -20.553,10.989 -31.959,13.375c-15.324,3.352 -30.981,4.946 -46.666,4.75c-34.966,-0.589 -69.743,-5.26 -103.625,-13.916c-29.273,-6.91 -57.767,-16.781 -85.042,-29.459c-0.542,-55.375 -8.917,-695.416 -115.75,-1387.5c-16.667,-106.791 -29.167,-206.708 -38.542,-300c-4.625,-3.458 -9.125,-6.916 -13.541,-10.333c9.5,97 22.5,200.958 39.708,312.5c36.375,235.625 61.292,465.208 78.417,667.75c9.166,108.333 16.083,208.875 21.291,298.417c7.542,128.25 11.542,234.166 13.667,307.958Z" style="fill-rule:nonzero;"/><path d="M1883.33,1528.12l0,-3.083c0,-27.584 2.459,-68.584 6.125,-114.709c3.667,-46.125 8.625,-97.291 13.542,-145.125c1,-9.625 2,-19.166 2.958,-28.458l-64.208,43.375c-2.294,1.568 -5.374,1.414 -7.5,-0.375l-61.625,-51.667c5.417,52.042 11.042,109.375 15.125,160.5c3.667,46.125 6.167,87.084 6.167,114.667l-0,3.125c-0,2.5 -0.292,6.875 -0.709,13.208c-0.416,6.334 -1.041,14.625 -1.791,24.5c-1.542,19.792 -3.75,46.125 -6.334,76.75c-5.25,61.25 -12.208,139.667 -19.166,216.959l-0.75,8.333c43.583,2.25 84.75,3.542 118.25,4.167l-0,-150c0.166,-89.542 0.166,-160.667 -0.084,-172.167Z" style="fill:#4c559d;fill-rule:nonzero;"/><path d="M1894.67,2152l0.25,-15.75c-1.274,2.075 -3.676,3.193 -6.084,2.833c-3.06,-0.453 -5.346,-3.114 -5.333,-6.208c0.013,-3.094 0,-36.917 0,-92.5c-45.408,20.175 -92.33,36.754 -140.333,49.583c-2.917,31.709 -4.75,51.292 -4.834,52.5l-0.375,16.25l12.5,0c48.154,0.294 96.29,-1.945 144.209,-6.708Z" style="fill:#4c559d;fill-rule:nonzero;"/><path d="M1844.29,2168.71c17.125,-1.041 33.916,-2.375 50,-4.166c-0,-4.167 -0,-8.334 0.208,-12.5c-47.89,4.774 -95.998,7.027 -144.125,6.75l-12.5,-0c0,4.166 0,8.333 -0.292,12.5l12.834,-0c31.791,-0.042 63.375,-0.834 93.875,-2.584Z" style="fill-rule:nonzero;"/><path d="M1907.88,1220.5c5.125,-47.958 9.792,-88.792 12.5,-112.042l-3.792,-2.666c-1.671,-1.17 -2.668,-3.086 -2.666,-5.125l-0,-113.167c-9.384,6.094 -19.401,11.151 -29.875,15.083c-14.579,5.464 -30.015,8.286 -45.584,8.334c-25.939,-0.269 -51.285,-7.836 -73.125,-21.834c-3.541,-2.208 -7,-4.625 -10.458,-7.125l4.167,100.709c0.075,1.792 -0.642,3.531 -1.959,4.75c2.917,25.25 8.125,70.5 13.667,122.833l67.917,56.958l69.208,-46.708Z" style="fill:#fff;fill-rule:nonzero;"/><path d="M1752.04,1061.54c1.434,0.951 2.403,2.465 2.666,4.166c0.264,1.702 0.959,7.834 2.542,21.417c1.317,-1.219 2.033,-2.957 1.958,-4.75l-4.166,-100.708c-4.417,-3.25 -8.75,-6.667 -12.959,-10.334l0.5,11.667l0.625,14.5l2.709,63.208l1.25,-0.291c1.71,-0.347 3.489,0.063 4.875,1.125Z" style="fill-rule:nonzero;"/><path d="M1926.42,1082.71l-0,-104.125c-4.084,3.167 -8.25,6.125 -12.5,8.875l-0,113.209c-0.002,2.039 0.995,3.955 2.666,5.125l3.792,2.666c1.542,-13.166 2.458,-20.833 2.458,-20.833c0.217,-1.785 1.188,-3.394 2.667,-4.417c0.292,-0.191 0.598,-0.358 0.917,-0.5Z" style="fill-rule:nonzero;"/><path d="M1841.92,1280.12l64.208,-43.375c0.583,-5.556 1.167,-10.972 1.75,-16.25l-69.042,46.625l-68,-56.958c0.625,5.875 1.25,11.875 1.875,17.916l61.625,51.667c2.141,1.83 5.273,1.985 7.584,0.375Z" style="fill-rule:nonzero;"/><path d="M1908.33,2093.92c-2.333,128.208 -3.791,258.958 -3.791,385.583c-0,291.667 7.75,561.25 30.25,726.25c7.458,54.958 16.666,98.333 27.416,126.542c3.702,11.046 9.456,21.295 16.959,30.208c129.553,-28.6 248.539,-92.929 343.416,-185.667c80.667,-78.625 128.125,-161.75 146.834,-211.541c4.309,-10.632 7.344,-21.738 9.041,-33.084c0.274,-3.214 0.372,-6.441 0.292,-9.666c0,-22.542 -2.667,-75 -7.667,-147.709c-5,-72.708 -12.5,-165.458 -21.625,-269.125c-17.708,-197.666 -42.583,-434.708 -72.083,-646.208c-13.757,-19.463 -25.248,-40.432 -34.25,-62.5c-1.15,-3.087 0.347,-6.579 3.375,-7.875l-275,-637.5l-63.583,202.708c2.541,7.209 11.958,34.25 22.791,66.417c12.5,37.5 27.292,82.083 35.084,109.792c2.25,7.958 3.916,14.5 4.875,19.333c0.465,2.195 0.744,4.425 0.833,6.667c-0.018,0.925 -0.13,1.847 -0.333,2.75c-0.25,0.833 -1.084,3.666 -2.542,8.333c-1.458,4.667 -3.458,11.417 -5.958,19.667c-5,16.666 -12,39.5 -20.292,66.666c-16.667,54.459 -38.333,126 -60,197.167c-1.375,4.417 -2.708,8.875 -4.167,13.333c0.254,0.599 0.477,1.211 0.667,1.834l14.958,-0.834c25.542,-1.5 58.667,-3.875 88.834,-7.5c17.86,-1.921 35.597,-4.857 53.125,-8.791c6.523,-1.443 12.877,-3.566 18.958,-6.334c6.265,-3.316 13.207,-5.155 20.292,-5.375c7.143,-0.164 14.053,2.592 19.125,7.625c4.52,4.712 7.019,11.013 6.958,17.542c-0.058,6.869 -2.521,13.506 -6.958,18.75l-0,0.208c9.833,-0.75 21.5,-1.416 33.833,-1.416c14.842,-0.157 29.668,1.042 44.292,3.583c13.804,2.136 26.99,7.209 38.666,14.875c7.299,5.031 13.068,11.982 16.667,20.083c4.192,9.64 6.389,20.03 6.458,30.542c-0.105,11.945 -3.23,23.671 -9.083,34.083c-5.854,10.644 -13.908,19.92 -23.625,27.209c-20,15.333 -47.792,24.541 -79.875,24.541c-5.915,-0.001 -11.825,-0.307 -17.708,-0.916c-33.847,-4.212 -67.428,-10.333 -100.584,-18.334c-35.291,-8 -70.583,-16.666 -99.791,-22.125c-11.584,-2.208 -22.167,-3.916 -31.417,-4.958c-0.333,1.667 -0.708,3.292 -1.083,4.958c-0.342,1.761 -1.439,3.285 -3,4.167c-11.917,6.778 -24.056,13.333 -36.417,19.667c-9.25,30.166 -17.25,56.416 -23.167,76.375Z" style="fill:#fff;fill-rule:nonzero;"/><path d="M2377.21,1859.58c29.5,211.5 54.375,448.542 72.084,646.209c9.291,103.666 16.666,196.5 21.625,269.125c4.958,72.625 7.708,125 7.666,147.708c0.08,3.225 -0.017,6.452 -0.291,9.667c-1.698,11.346 -4.733,22.451 -9.042,33.083c-18.708,49.792 -66.167,132.917 -146.833,211.542c-94.842,92.68 -213.766,156.978 -343.25,185.583c-7.512,-8.937 -13.267,-19.216 -16.959,-30.292c-10.791,-28.208 -19.958,-71.583 -27.416,-126.541c-22.5,-165 -30.25,-434.667 -30.25,-726.25c-0,-126.625 1.458,-257.375 3.791,-385.584l-12.5,40.792c-0.17,0.557 -0.438,1.079 -0.791,1.542l-0.25,15.75c-0,4.166 -0,8.333 -0.209,12.5c-1.625,105.291 -2.583,211.458 -2.583,314.875c0,222.333 4.458,431.958 16.667,592.666c6.083,80.375 14.041,148.5 24.416,200c4.064,21.951 9.902,43.536 17.459,64.542c6.583,17.042 13.708,29.667 22.708,37.5c1.504,1.252 3.503,1.744 5.417,1.333c119.732,-25.867 230.931,-81.796 323.083,-162.5c4.583,-4.166 9.125,-8.083 13.542,-12.125c17.833,-16.375 34.208,-33 49.125,-49.583c35.952,-39.574 67.112,-83.251 92.833,-130.125c9.092,-16.626 17.055,-33.846 23.833,-51.542c4.709,-11.62 8.01,-23.762 9.834,-36.166c0.25,-2.625 0.333,-6.167 0.333,-10.959c0,-17.791 -1.542,-52.416 -4.5,-100c-10.375,-166.916 -37.833,-493.125 -75.667,-801.416c-5.833,-47.542 -11.916,-94.667 -18.208,-140.709c-5.875,-6.958 -11.042,-13.916 -15.667,-20.625Z" style="fill-rule:nonzero;"/><path d="M1607.33,1540.42c-0.333,-1.459 -0.583,-2.5 -0.625,-2.625c-0.281,-0.932 -0.408,-1.903 -0.375,-2.875c0.069,-2.244 0.348,-4.476 0.834,-6.667c0.5,-2.583 1.208,-5.667 2.083,-9.167c1.792,-7 4.167,-15.791 7.333,-25.791c6,-19.959 14,-44.625 22,-68.709c14.042,-42.333 28.084,-82.708 31.292,-91.666l-63.792,-203.75l-192.416,459.583c2.533,1.066 4.08,3.683 3.791,6.417c-0.288,2.733 0,-0 0,0.583l0,1.917c0,1.708 -0.333,4.166 -0.541,7.416c-0.375,6.375 -0.75,15.542 -0.75,26.5c-0.156,26.438 2.272,52.827 7.25,78.792c5.708,28.542 15.791,56.958 32.5,78.125c3.258,3.899 7.197,7.174 11.625,9.667c6.254,3.671 12.821,6.781 19.625,9.291c18.873,6.786 38.272,12.012 58,15.625c40.205,7.391 80.756,12.759 121.5,16.084c-12.875,-65.75 -25.792,-131.459 -36.334,-184.709c-11.791,-58.625 -20.5,-102.375 -23,-114.041Z" style="fill:#fff;fill-rule:nonzero;"/><path d="M1546.04,2117.38c-75.5,0 -146.25,-13.667 -205.459,-44.333c-26.349,-13.489 -50.51,-30.88 -71.666,-51.584c-4.306,37.806 -8.389,75.75 -12.25,113.834c-41,399.791 -62.5,799.666 -66.875,888.166c-0.417,7.75 -0.667,13.042 -0.792,15.792l0.375,0.542c1.167,1.5 2.958,3.791 5.333,6.708c4.709,5.792 11.792,14.292 21.25,24.75c26.363,29.002 54.574,56.267 84.459,81.625c95.87,81.832 206.835,144.116 326.625,183.333c6.204,-11.954 11.147,-24.522 14.75,-37.5c6.385,-22.357 11.628,-45.026 15.708,-67.916c9.917,-53.209 18.583,-121.5 26.125,-200.667c15.125,-158.333 25.833,-360.542 33.333,-574.208c3.625,-103 6.542,-208.709 8.875,-313.5c-0.666,-3.292 -3.916,-20.042 -9,-46.042c-55.946,13.475 -113.247,20.521 -170.791,21Z" style="fill:#fff;fill-rule:nonzero;"/><path d="M1342.17,3202.12c86.359,64.869 182.955,114.85 285.791,147.875c2.69,0.845 5.635,-0.217 7.167,-2.583c8.153,-14.046 14.415,-29.107 18.625,-44.792c10.708,-35.833 20.083,-86.125 28.417,-148c29.166,-216.333 45.375,-573.792 54.166,-931.458c0.473,-17.25 0.889,-34.514 1.25,-51.792c0,-4.167 0.209,-8.333 0.292,-12.5l0.375,-16.25c0.005,0.104 0.008,0.208 0.008,0.313c-0,3.432 -2.825,6.257 -6.258,6.257c-3.315,0 -6.084,-2.634 -6.25,-5.945l0,-0.667c-2.333,104.792 -5.25,210.5 -8.875,313.5c-7.542,213.667 -18.25,415.792 -33.333,574.209c-7.542,79.166 -16.209,147.458 -26.125,200.666c-4.081,22.891 -9.324,45.559 -15.709,67.917c-3.602,12.978 -8.546,25.545 -14.75,37.5c-119.79,-39.217 -230.755,-101.501 -326.625,-183.333c-29.884,-25.358 -58.096,-52.623 -84.458,-81.625c-9.458,-10.459 -16.667,-18.959 -21.25,-24.75c-2.375,-2.917 -4.167,-5.209 -5.333,-6.709l-0.375,-0.541c-0,-2.75 0.375,-8.042 0.791,-15.792c4.459,-88.5 25.875,-488.375 66.875,-888.167c3.861,-38.055 7.945,-76 12.25,-113.833c-3.889,-3.778 -7.639,-7.694 -11.25,-11.75c-16.375,143.75 -30.083,291.667 -41.375,429.167c-27.208,331.916 -39.875,602.125 -39.916,602.166c-0.087,1.486 0.34,2.958 1.208,4.167c0.25,0.292 39.083,53.042 114.708,117.458c11.25,9.584 23.417,19.459 36.334,29.417c4.5,2.958 8.958,6.417 13.625,9.875Z" style="fill-rule:nonzero;"/><path d="M3678.58,5152.92l-3589.54,-0c-3.429,-0 -6.25,2.821 -6.25,6.25c-0,3.428 2.821,6.25 6.25,6.25l3641.04,-0c-17.918,0.014 -35.582,-4.273 -51.5,-12.5Z" style="fill-rule:nonzero;"/><path d="M1961.33,915.458l9.5,-76.375c0.18,-1.498 0.907,-2.879 2.042,-3.875l0.708,-0.625l2.625,-2.583c2.292,-2.25 5.417,-5.583 8.917,-9.667c8.461,-9.675 15.478,-20.524 20.833,-32.208c2.101,-4.832 3.68,-9.874 4.709,-15.042c0.375,-6.041 0.583,-12.083 0.583,-18.166c-0.261,-2.166 -0.866,-4.276 -1.792,-6.25c-0.666,-1.209 -1,-1.334 -1.083,-1.375c-0.206,-0.047 -0.419,-0.047 -0.625,-0c-1.585,0.151 -3.127,0.603 -4.542,1.333c-2.543,1.232 -5.007,2.624 -7.375,4.167c-5.838,4.081 -11.888,7.85 -18.125,11.291c-4.265,2.384 -9.034,3.727 -13.916,3.917c-3.308,0.056 -6.563,-0.841 -9.375,-2.583c-3.058,-1.944 -5.579,-4.623 -7.334,-7.792c-4.679,-7.055 -11.373,-12.544 -19.208,-15.75c-12.14,-5.288 -24.913,-8.985 -38,-11c-31.333,-5.625 -74.167,-7.708 -126.792,-7.708c-22.767,0.505 -45.391,-3.753 -66.416,-12.5c-9.058,-3.952 -17.594,-9.004 -25.417,-15.042c-4.041,19.407 -6.08,39.177 -6.083,59c0.044,45.643 10.295,90.704 30,131.875c18.916,39.042 45.833,71.125 76.583,90.292c19.898,12.794 43.011,19.714 66.667,19.958c14.09,-0.03 28.061,-2.584 41.25,-7.542c31.875,-11.75 60.708,-36.916 83.333,-70.375c-1.369,-1.428 -1.988,-3.422 -1.667,-5.375Z" style="fill:#fff;fill-rule:nonzero;"/><path d="M1706.54,931.792l2.375,3.208c9.605,13.371 20.673,25.628 33,36.542c4.166,3.666 8.541,7.083 12.958,10.333c3.458,2.5 6.917,4.917 10.458,7.125c21.84,13.997 47.186,21.565 73.125,21.833c15.569,-0.048 31.005,-2.87 45.584,-8.333c10.474,-3.932 20.491,-8.99 29.875,-15.083c4.25,-2.778 8.416,-5.736 12.5,-8.875c22.428,-17.945 41.26,-39.972 55.5,-64.917c-3.561,2.892 -7.304,5.551 -11.209,7.958c-2.029,1.246 -4.595,1.246 -6.625,0c-0.418,-0.313 -0.808,-0.661 -1.166,-1.041c-22.5,33.333 -51.334,58.625 -83.334,70.375c-13.189,4.957 -27.16,7.511 -41.25,7.541c-23.655,-0.244 -46.768,-7.163 -66.666,-19.958c-30.917,-19.167 -57.667,-51.25 -76.584,-90.292c-19.704,-41.171 -29.955,-86.231 -30,-131.875c0.004,-19.823 2.042,-39.593 6.084,-59c-3.77,-2.873 -7.347,-5.991 -10.709,-9.333c-5.264,22.396 -7.907,45.327 -7.875,68.333c0.191,52.86 13.629,104.839 39.084,151.167c4.533,8.35 9.498,16.458 14.875,24.292Z" style="fill-rule:nonzero;"/><path d="M2012.08,764.167c0.01,-2.344 -0.172,-4.686 -0.541,-7c0.019,-0.152 0.019,-0.307 -0,-0.459c-0,6.084 -0.209,12.125 -0.584,18.167c0.722,-3.525 1.098,-7.111 1.125,-10.708Z" style="fill-rule:nonzero;"/><path d="M1971.17,563.125c-1.683,0.421 -3.467,0.119 -4.917,-0.833l-71.542,-46.625c-1.721,-1.105 -2.784,-2.997 -2.833,-5.042c-0.005,-0.593 0.08,-1.182 0.25,-1.75c-16.958,-4.75 -35.208,-8.833 -54.833,-12.5c-9.015,-1.686 -18.163,-2.551 -27.334,-2.583c-26.226,0.004 -51.875,7.761 -73.708,22.291c-19.907,13.445 -37.215,30.386 -51.083,50c-16.582,23.047 -29.876,48.289 -39.5,75c0.333,1.084 0.875,2.709 1.666,4.709c2.259,5.694 5.049,11.162 8.334,16.333c11.195,17.137 27.219,30.58 46.041,38.625c19.479,8.182 40.461,12.185 61.584,11.75c34.215,-0.373 68.427,1.018 102.5,4.167c28.458,3.041 51.041,7.875 67.625,15.708c10.14,4.286 18.744,11.553 24.666,20.833c0.706,1.391 1.753,2.581 3.042,3.459c0.859,0.538 1.863,0.799 2.875,0.75c2.02,-0.077 4.003,-0.559 5.833,-1.417c2.722,-1.198 5.354,-2.59 7.875,-4.167c5.625,-3.458 11.542,-7.875 17.459,-11.166c3.858,-2.416 8.251,-3.847 12.791,-4.167c2.075,-0.014 4.127,0.442 6,1.333c1.964,0.987 3.675,2.413 5,4.167c2.752,3.97 4.458,8.571 4.959,13.375c0.449,2.937 0.672,5.904 0.666,8.875c-0.209,10.602 -2.576,21.052 -6.958,30.708c-3.997,8.991 -8.972,17.515 -14.833,25.417c-5.934,8.072 -12.541,15.627 -19.75,22.583l-7.5,59.875l1.541,-1.25c10.758,-9.077 20.446,-19.352 28.875,-30.625c21.125,-28.041 42.417,-71.708 42.959,-135.166l-0,-4.167c-0,-46.125 -5.875,-82.792 -17.209,-112.083c-10.004,-27.1 -27.311,-50.912 -50,-68.792l-0.833,-0.583l-5.875,9.916c-0.807,1.496 -2.194,2.596 -3.833,3.042Z" style="fill-rule:nonzero;"/><path d="M1671.46,697.208c7.823,6.038 16.36,11.09 25.417,15.042c21.026,8.748 43.649,13.006 66.417,12.5c52.625,0 95.458,2.083 126.791,7.708c13.088,2.015 25.86,5.713 38,11c7.836,3.207 14.529,8.695 19.209,15.75c1.754,3.17 4.276,5.849 7.333,7.792c2.812,1.742 6.067,2.639 9.375,2.583c4.883,-0.19 9.652,-1.532 13.917,-3.916c6.237,-3.441 12.287,-7.21 18.125,-11.292c2.368,-1.543 4.831,-2.935 7.375,-4.167c1.415,-0.729 2.956,-1.182 4.541,-1.333c0.206,-0.047 0.42,-0.047 0.625,0c0.206,0.047 0.417,0 1.084,1.375c0.926,1.975 1.53,4.085 1.791,6.25c0.02,0.152 0.02,0.306 0,0.458c0.37,2.315 0.551,4.656 0.542,7c-0.054,3.601 -0.459,7.187 -1.208,10.709c-1.029,5.167 -2.608,10.21 -4.709,15.041c-5.355,11.684 -12.372,22.533 -20.833,32.209c-3.5,4.166 -6.625,7.416 -8.917,9.666l-2.625,2.584l-0.708,0.625c-1.135,0.995 -1.862,2.376 -2.042,3.875l-9.625,76.375c-0.212,1.803 0.366,3.612 1.584,4.958c0.358,0.38 0.748,0.729 1.166,1.042c2.03,1.245 4.596,1.245 6.625,-0c3.905,-2.408 7.648,-5.066 11.209,-7.959l1.041,-0.833c3.75,-3 8.125,-6.833 12.917,-11.5c7.243,-7.14 13.955,-14.799 20.083,-22.917c22.459,-29.791 44.959,-76.333 45.459,-142.625l-0,-4.375c-0,-41.958 -4.75,-76.791 -14.25,-105.916c-6.436,-20.408 -16.422,-39.521 -29.5,-56.459c-8.949,-11.317 -19.311,-21.441 -30.834,-30.125l-6.125,11.667l0.834,0.583c22.688,17.881 39.995,41.692 50,68.792c11.333,29.167 17.208,65.958 17.208,112.083l0,4.167c-0.542,63.458 -21.833,107.125 -42.958,135.167c-8.43,11.272 -18.118,21.547 -28.875,30.625l-1.542,1.25l7.5,-59.875c7.21,-6.957 13.817,-14.511 19.75,-22.584c5.862,-7.902 10.836,-16.426 14.833,-25.416c4.382,-9.657 6.75,-20.106 6.959,-30.709c0.006,-2.971 -0.217,-5.938 -0.667,-8.875c-0.501,-4.804 -2.207,-9.405 -4.958,-13.375c-1.325,-1.754 -3.036,-3.179 -5,-4.166c-1.874,-0.892 -3.925,-1.348 -6,-1.334c-4.541,0.321 -8.934,1.752 -12.792,4.167c-5.917,3.292 -11.833,7.708 -17.458,11.167c-2.522,1.576 -5.154,2.968 -7.875,4.166c-1.83,0.859 -3.814,1.34 -5.834,1.417c-1.012,0.05 -2.016,-0.212 -2.875,-0.75c-1.289,-0.878 -2.335,-2.068 -3.041,-3.458c-5.923,-9.281 -14.526,-16.547 -24.667,-20.834c-16.667,-7.833 -39.167,-12.5 -67.625,-15.708c-34.072,-3.149 -68.284,-4.54 -102.5,-4.167c-21.058,0.451 -41.98,-3.509 -61.417,-11.625c-18.822,-8.045 -34.846,-21.488 -46.041,-38.625c-3.285,-5.17 -6.075,-10.639 -8.334,-16.333c-0.791,-2 -1.333,-3.625 -1.666,-4.708c9.624,-26.711 22.918,-51.954 39.5,-75c13.868,-19.615 31.176,-36.556 51.083,-50c21.833,-14.53 47.482,-22.287 73.708,-22.292c9.171,0.032 18.319,0.897 27.334,2.583c19.625,3.667 37.875,7.75 54.833,12.5c0.335,-1.385 1.146,-2.61 2.292,-3.458l8.625,-6.375c-20.868,-6.126 -42.052,-11.119 -63.459,-14.958c-9.771,-1.82 -19.686,-2.754 -29.625,-2.792c-29.077,-0.005 -57.5,8.705 -81.583,25c-33.833,22.417 -57.458,55.583 -72.792,83.042c-8.918,15.884 -16.366,32.551 -22.25,49.791c-0.291,1.092 -0.291,2.242 0,3.334c4.604,15.586 12.828,29.864 24,41.666c1.167,1.292 2.417,2.584 3.709,3.834c3.269,3.318 6.748,6.421 10.416,9.291Z" style="fill-rule:nonzero;"/><path d="M2092.54,469.625c13.628,-13.623 21.293,-32.123 21.293,-51.393c0,-39.864 -32.802,-72.667 -72.666,-72.667c-39.864,0 -72.667,32.803 -72.667,72.667c0,9.695 1.94,19.293 5.706,28.226l63.292,-46.708c1.074,-0.792 2.374,-1.219 3.708,-1.219c3.429,-0 6.25,2.821 6.25,6.25c0,0.004 0,0.007 0,0.011l0,23.291c0.015,1.067 -0.258,2.118 -0.791,3.042l-30.625,55.208c26.525,9.941 56.551,3.403 76.541,-16.666l-0.041,-0.042Z" style="fill-rule:nonzero;"/><path d="M1974.21,446.458c-3.847,-9.048 -5.83,-18.78 -5.83,-28.612c0,-40.115 33.01,-73.125 73.125,-73.125c40.116,0 73.125,33.01 73.125,73.125c0,40.116 -33.009,73.125 -73.125,73.125c-8.751,0 -17.432,-1.571 -25.628,-4.638l-6.125,11.042c9.95,3.988 20.572,6.039 31.292,6.042c0.14,0 0.28,0.001 0.42,0.001c46.927,-0 85.542,-38.615 85.542,-85.542c-0,-46.927 -38.615,-85.542 -85.542,-85.542c-46.927,0 -85.542,38.615 -85.542,85.542c0,12.543 2.759,24.933 8.08,36.291l10.208,-7.709Z" style="fill-rule:nonzero;"/><path d="M2034.92,426.458l-0,-9.291l-125.834,92.958l58.375,38.042l67.459,-121.709Z" style="fill-rule:nonzero;"/><path d="M1894.42,505.417c-1.146,0.848 -1.957,2.073 -2.292,3.458c-0.17,0.568 -0.255,1.157 -0.25,1.75c0.049,2.045 1.112,3.937 2.833,5.042l71.542,46.833c1.014,0.66 2.199,1.011 3.409,1.011c2.269,0 4.366,-1.235 5.466,-3.219l5.583,-10.125l6.125,-11.042l23.042,-41.667l36.75,-66.25c0.533,-0.924 0.807,-1.975 0.792,-3.041l-0,-23.375c-0.011,-3.422 -2.829,-6.231 -6.25,-6.231c-1.317,0 -2.601,0.417 -3.667,1.189l-63.25,46.708l-10.25,7.709l-60.958,45.041l-8.625,6.209Zm14.666,4.708l125.834,-92.958l-0,9.291l-67.459,121.709l-58.375,-38.042Z" style="fill-rule:nonzero;"/><path d="M3150.71,1019.17c13.417,43.5 27.417,84.5 43.834,114.5c10.916,20.041 22.916,35.041 35.791,42.916c6.962,4.433 15.039,6.803 23.292,6.834c13.156,0.54 26.188,-2.762 37.5,-9.5c9.237,-6.119 16.481,-14.812 20.833,-25c9.709,-21.209 11.667,-50.959 11.625,-80.875l0,-20.75c-0.367,-12.686 2.654,-25.244 8.75,-36.375c4.967,-8.438 12.066,-15.422 20.584,-20.25c11.727,-6.316 24.846,-9.61 38.166,-9.584l5.042,0c6.155,0.028 12.288,0.726 18.292,2.084c9.197,1.93 17.894,5.746 25.541,11.208c6.063,4.462 11.129,10.138 14.875,16.667c6.138,11.116 9.175,23.682 8.792,36.375l0,20.708c-0.224,16.325 0.723,32.644 2.833,48.833c1.613,13.89 5.946,27.327 12.75,39.542c4.152,7.014 9.853,12.986 16.667,17.458c11.318,6.674 24.331,9.931 37.458,9.375c8.253,-0.03 16.331,-2.4 23.292,-6.833c8.193,-5.383 15.361,-12.184 21.167,-20.083c13.541,-17.542 25.583,-42.875 36.625,-72.25c22.166,-58.75 40.5,-133.334 62.875,-195.334c18.208,-50.375 31.333,-100.708 31.333,-146.791c0.636,-29.629 -6.063,-58.961 -19.5,-85.375c-14.125,-25.917 -35.75,-49.375 -68.292,-69.167c-24.133,-15.38 -52.093,-23.709 -80.708,-24.042c-40.333,0 -75.333,17.459 -100.542,35.5c-15.145,10.7 -28.952,23.178 -41.125,37.167c-1.19,1.471 -2.983,2.329 -4.875,2.333c-1.88,-0.005 -3.659,-0.864 -4.833,-2.333l-0.5,-0.583l-1.958,-2.25c-1.75,-1.959 -4.417,-4.792 -7.834,-8.334c-9.168,-9.103 -19.047,-17.463 -29.541,-25c-25.25,-18.291 -60.75,-36.333 -101.709,-36.333c-28.712,0.221 -56.795,8.494 -81.041,23.875c-32.792,20 -54.584,43.417 -68.334,69.417c-13.436,26.414 -20.136,55.746 -19.5,85.375c0,46.083 13.125,96.416 31.334,146.791c14.708,40.5 27.833,86.584 41.041,130.084Z" style="fill:#fff;fill-rule:nonzero;"/><path d="M3160.83,1088.67c11.292,29.916 23.584,56.166 38.417,75.458c6.722,9.111 15.037,16.931 24.542,23.083c8.917,5.672 19.265,8.692 29.833,8.709c15.623,0.596 31.084,-3.403 44.458,-11.5c8.411,-5.486 15.453,-12.827 20.584,-21.459c7.68,-13.653 12.58,-28.693 14.416,-44.25c2.23,-16.793 3.233,-33.727 3,-50.666l0,-20.709c-0.386,-10.481 2.061,-20.875 7.084,-30.083c2.881,-5.008 6.785,-9.352 11.458,-12.75c6.256,-4.419 13.343,-7.524 20.833,-9.125c5.118,-1.131 10.342,-1.718 15.584,-1.75l4.791,0c11.132,-0.021 22.098,2.713 31.917,7.958c6.644,3.69 12.172,9.103 16,15.667c5.003,9.215 7.449,19.604 7.083,30.083l0,20.792c0,30.417 1.667,61.5 12.75,86c5.275,12.358 14.054,22.905 25.25,30.333c13.4,8.062 28.876,12.017 44.5,11.375c10.567,-0.023 20.914,-3.043 29.834,-8.708c15.833,-9.792 28.708,-26.542 40.208,-47.542c17.208,-31.541 31.292,-73.041 44.792,-116.666c13.5,-43.625 26.416,-89.667 40.875,-129.709c18.416,-51.083 32.041,-102.583 32.083,-151.041c0.665,-31.652 -6.492,-62.985 -20.833,-91.209c-14.875,-28.125 -38.5,-53.333 -72.875,-74.25c-26.092,-16.573 -56.3,-25.536 -87.209,-25.875c-44.708,0 -82.5,19.5 -109.083,38.709c-13.564,9.852 -26.125,21.017 -37.5,33.333c-11.354,-12.337 -23.917,-23.504 -37.5,-33.333c-26.542,-19.209 -64.333,-38.667 -109.042,-38.709c-30.909,0.332 -61.119,9.296 -87.208,25.875c-34.417,20.834 -58.042,46.125 -72.875,74.25c-14.342,28.224 -21.498,59.557 -20.833,91.209c-0,48.458 13.625,100 32.083,151.041c21.708,60.959 40.042,135.625 62.583,195.459Zm-63,-431.917c13.75,-26 35.542,-49.417 68.334,-69.417c24.133,-15.379 52.093,-23.708 80.708,-24.041c40.958,-0 76.458,18.041 101.708,36.333c10.495,7.537 20.373,15.897 29.542,25c3.417,3.458 6.083,6.292 7.833,8.333l1.959,2.25l0.5,0.584c1.173,1.469 2.953,2.328 4.833,2.333c1.892,-0.005 3.685,-0.863 4.875,-2.333c12.173,-13.989 25.98,-26.467 41.125,-37.167c25,-18.042 60.208,-35.5 100.542,-35.5c28.761,0.371 56.847,8.818 81.041,24.375c32.75,19.958 54.542,43.417 68.334,69.417c13.294,26.394 19.878,55.663 19.166,85.208c0,46.083 -13.125,96.417 -31.333,146.792c-22.375,61.916 -40.708,136.583 -62.875,195.333c-11.042,29.167 -23.083,54.708 -36.625,72.25c-5.806,7.899 -12.973,14.7 -21.167,20.083c-6.886,4.351 -14.854,6.69 -23,6.75c-13.224,0.567 -26.331,-2.735 -37.708,-9.5c-6.814,-4.472 -12.515,-10.444 -16.667,-17.458c-6.804,-12.215 -11.137,-25.652 -12.75,-39.542c-2.11,-16.189 -3.057,-32.508 -2.833,-48.833l0,-20.708c0.383,-12.693 -2.654,-25.259 -8.792,-36.375c-3.746,-6.529 -8.812,-12.205 -14.875,-16.667c-7.647,-5.462 -16.344,-9.278 -25.541,-11.208c-6.004,-1.358 -12.137,-2.056 -18.292,-2.084l-5.042,0c-13.32,-0.026 -26.439,3.268 -38.166,9.584c-8.518,4.828 -15.617,11.812 -20.584,20.25c-6.096,11.131 -9.117,23.689 -8.75,36.375l0,20.75c0,29.916 -1.916,59.666 -11.625,80.875c-4.352,10.188 -11.596,18.881 -20.833,25c-11.312,6.738 -24.344,10.04 -37.5,9.5c-8.253,-0.031 -16.33,-2.401 -23.292,-6.834c-12.875,-7.875 -25,-22.875 -35.791,-42.916c-16.417,-30 -30.417,-70.834 -43.834,-114.5c-13.416,-43.667 -26.333,-89.584 -41.041,-130.25c-18.209,-50.375 -31.375,-100.709 -31.334,-146.792c-0.538,-29.608 6.247,-58.895 19.75,-85.25Z" style="fill-rule:nonzero;"/><path d="M5301.23,3730.63c56.043,-0.088 101.613,45.19 101.701,101.049c0.087,55.858 -45.341,101.279 -101.383,101.367c-56.042,0.088 -101.613,-45.19 -101.7,-101.048c-0.088,-55.859 45.34,-101.28 101.382,-101.368Z" style="fill:#fff;"/><path d="M5294.79,3976.38c-0,3.429 2.821,6.25 6.25,6.25c1.656,-0.001 3.246,-0.661 4.416,-1.833c1.184,-1.163 1.846,-2.758 1.834,-4.417c-0,-0.069 -0,-0.139 -0,-0.208c-0,-75.431 62.069,-137.5 137.5,-137.5c-0,-0 -0,-0 -0,-0c1.66,0.017 3.257,-0.646 4.416,-1.834c1.172,-1.17 1.832,-2.76 1.834,-4.416l-0,-0.25c-0.002,-1.657 -0.662,-3.246 -1.834,-4.417c-1.159,-1.188 -2.756,-1.851 -4.416,-1.833c-0,-0 -0,-0 -0,-0c-75.431,-0 -137.5,-62.07 -137.5,-137.5c-0,-0.07 -0,-0.139 -0,-0.209c0.017,-1.66 -0.646,-3.257 -1.834,-4.416c-1.17,-1.172 -2.76,-1.832 -4.416,-1.834c-3.429,0 -6.25,2.822 -6.25,6.25c-0,0.07 -0,0.139 -0,0.209c-0,75.43 -62.07,137.5 -137.5,137.5c-0,-0 -0,-0 -0,-0c-1.659,-0.008 -3.252,0.653 -4.417,1.833c-1.172,1.171 -1.832,2.76 -1.833,4.417l-0,0.25c0.001,1.656 0.661,3.246 1.833,4.416c1.165,1.18 2.758,1.841 4.417,1.834c-0,-0 -0,-0 -0,-0c75.43,-0 137.5,62.069 137.5,137.5c-0,0.069 -0,0.139 -0,0.208Zm-95.292,-144.083c48.737,-14.378 87.004,-52.519 101.542,-101.209c14.551,48.682 52.812,86.818 101.541,101.209c-48.689,14.359 -86.942,52.424 -101.541,101.041c-14.586,-48.625 -52.845,-86.696 -101.542,-101.041Z" style="fill-rule:nonzero;"/><path d="M859.686,2305.92c56.042,-0.157 101.668,45.066 101.824,100.924c0.156,55.858 -45.217,101.335 -101.259,101.492c-56.042,0.156 -101.668,-45.067 -101.824,-100.925c-0.156,-55.858 45.217,-101.335 101.259,-101.491Z" style="fill:#fff;"/><path d="M716.083,2413.54c75.431,-0 137.5,62.069 137.5,137.5c0.002,1.656 0.662,3.246 1.834,4.416c1.175,1.165 2.762,1.823 4.416,1.834c3.429,-0 6.25,-2.822 6.25,-6.25c0,-0 0,-0 0,-0c0,-75.431 62.07,-137.5 137.5,-137.5c0.07,-0 0.139,-0 0.209,-0c3.428,-0 6.25,-2.822 6.25,-6.25l-0,-0.292c-0.002,-1.656 -0.662,-3.246 -1.834,-4.417c-1.175,-1.164 -2.762,-1.823 -4.416,-1.833c-0.07,0 -0.139,0 -0.209,0c-75.43,0 -137.5,-62.07 -137.5,-137.5c0,0 0,0 0,0c-0.01,-1.655 -0.669,-3.241 -1.833,-4.417c-1.171,-1.172 -2.76,-1.832 -4.417,-1.833c-3.428,0 -6.25,2.821 -6.25,6.25c0,75.43 -62.069,137.5 -137.5,137.5c-3.428,0 -6.25,2.821 -6.25,6.25l0,0.292c0,3.428 2.822,6.25 6.25,6.25Zm42.25,-6.417c48.727,-14.369 86.992,-52.493 101.542,-101.167c14.563,48.666 52.823,86.784 101.542,101.167c-48.658,14.453 -86.843,52.575 -101.375,101.208c-14.583,-48.721 -52.916,-86.865 -101.709,-101.208Z" style="fill-rule:nonzero;"/><path d="M2877.42,661.5c14.603,-48.715 52.951,-86.844 101.75,-101.167c-48.714,-14.418 -86.964,-52.542 -101.542,-101.208c-14.543,48.671 -52.787,86.805 -101.5,101.208c48.635,14.435 86.797,52.55 101.292,101.167Z" style="fill:#fff;fill-rule:nonzero;"/><path d="M2733.33,566.667c0.07,-0 0.139,-0 0.209,-0c75.43,-0 137.5,62.069 137.5,137.5c-0,-0 -0,0.028 -0,0.041c-0,3.406 2.802,6.209 6.208,6.209c0.014,-0 0.042,-0 0.042,-0c3.406,-0 6.208,-2.803 6.208,-6.209c0,-0.014 0,-0.027 0,-0.041c0,-75.431 62.07,-137.5 137.5,-137.5c1.656,-0.002 3.246,-0.662 4.417,-1.834c1.188,-1.159 1.85,-2.756 1.833,-4.416l0,-0.292c0.013,-1.659 -0.65,-3.254 -1.833,-4.417c-1.171,-1.172 -2.761,-1.832 -4.417,-1.833c-75.43,0 -137.5,-62.07 -137.5,-137.5c0,-0.014 0,-0.028 0,-0.042c0,-3.405 -2.802,-6.208 -6.208,-6.208c-0,-0 -0.028,-0 -0.042,-0c-3.406,-0 -6.208,2.802 -6.208,6.208c-0,0.014 -0,0.042 -0,0.042c-0,75.43 -62.07,137.5 -137.5,137.5c-0.07,0 -0.139,0 -0.209,0c-1.656,0.001 -3.246,0.661 -4.416,1.833c-1.165,1.176 -1.823,2.762 -1.834,4.417l0,0.292c0.011,1.654 0.669,3.241 1.834,4.416c1.17,1.172 2.76,1.832 4.416,1.834Zm42.417,-6.375c48.713,-14.403 86.957,-52.537 101.5,-101.209c14.638,48.772 53.05,86.933 101.917,101.25c-48.719,14.383 -86.979,52.502 -101.542,101.167c-14.575,-48.717 -52.914,-86.852 -101.708,-101.167l-0.167,-0.041Z" style="fill-rule:nonzero;"/><path d="M2849.33,4404.96c0,0 0.056,0 0.084,0c47.338,0 86.291,-38.953 86.291,-86.291c0,-47.339 -38.953,-86.292 -86.291,-86.292c-47.339,0 -86.292,38.953 -86.292,86.292c-0,0.014 -0,0.069 -0,0.083c-0,47.292 38.916,86.208 86.208,86.208Zm0,-143.5c0.028,0 0.056,0 0.084,0c31.406,0 57.25,25.844 57.25,57.25c-0,31.407 -25.844,57.25 -57.25,57.25c-31.407,0 -57.25,-25.843 -57.25,-57.25c-0,-0.014 -0,-0.027 -0,-0.041c-0,-31.368 25.799,-57.186 57.166,-57.209Z" style="fill:#eff0f1;fill-rule:nonzero;"/><path d="M1096.42,3918.58c0.027,0 0.055,0 0.083,0c47.338,0 86.292,-38.953 86.292,-86.291c-0,-47.339 -38.954,-86.292 -86.292,-86.292c-47.338,0 -86.292,38.953 -86.292,86.292c0,0.014 0,0.027 0,0.041c0,47.3 38.909,86.227 86.209,86.25Zm-0,-143.541c0.027,-0 0.055,-0 0.083,-0c31.406,-0 57.25,25.843 57.25,57.25c-0,31.406 -25.844,57.25 -57.25,57.25c-31.406,-0 -57.25,-25.844 -57.25,-57.25c-0,-0.028 -0,-0.056 -0,-0.084c-0,-31.368 25.799,-57.185 57.167,-57.208l-0,0.042Z" style="fill:#eff0f1;fill-rule:nonzero;"/><path d="M5070.83,4261.46c0.137,47.198 39.01,85.959 86.208,85.959c47.293,-0 86.209,-38.916 86.209,-86.209c-0,-47.276 -38.89,-86.185 -86.167,-86.208c-0.014,-0 -0.028,-0 -0.042,-0c-47.292,-0 -86.208,38.916 -86.208,86.208c-0,0.084 0,0.167 0,0.25Zm143.375,0c-0.045,31.352 -25.856,57.125 -57.208,57.125c-31.384,0 -57.208,-25.824 -57.208,-57.208c-0,-31.384 25.824,-57.208 57.208,-57.208c0.028,-0 0.056,-0 0.083,-0c31.391,0.023 57.209,25.859 57.209,57.25c-0,0.014 -0,0.027 -0,0.041l-0.084,0Z" style="fill:#eff0f1;fill-rule:nonzero;"/><path d="M4571.67,4350c11.083,0 22.125,0.292 33.083,0.792l-224.417,-415.542l-4.166,2c-112.5,51.542 -247.084,83.625 -392.5,89.208l212.916,426.292c113.478,-67.411 243.093,-102.918 375.084,-102.75Z" style="fill-rule:nonzero;"/><path d="M4196.46,4452.75l-212.916,-426.292c-4.542,0 -9.125,0.417 -13.709,0.542l215.917,432.208l10.708,-6.458Z" style="fill-rule:nonzero;"/><path d="M4380.33,3935.25l224.417,415.542c4.917,-0 9.792,0.5 14.667,0.791l-227.75,-421.708c-3.75,1.833 -7.542,3.458 -11.334,5.375Z" style="fill-rule:nonzero;"/><path d="M4644.33,3695.83c8.495,-14.756 15.985,-30.068 22.417,-45.833c-8.881,1.497 -17.869,2.264 -26.875,2.292l-1429.54,-0c6.223,14.961 13.405,29.505 21.5,43.541l1412.5,0Z" style="fill-rule:nonzero;"/><path d="M3222.75,3698.79c1.116,-1.933 3.185,-3.127 5.417,-3.125l3.666,-0c-8.095,-14.037 -15.277,-28.581 -21.5,-43.542l-13.5,0c7.309,18.281 15.986,35.984 25.959,52.958c-1.162,-1.929 -1.178,-4.347 -0.042,-6.291Z" style="fill-rule:nonzero;"/><path d="M4666.67,3650c-6.433,15.765 -13.922,31.077 -22.417,45.833l3.667,0c2.238,0.016 4.305,1.225 5.416,3.167c1.124,1.929 1.124,4.321 0,6.25c10.994,-18.622 20.402,-38.135 28.125,-58.333c-4.791,1 -9.708,2.083 -14.791,3.083Z" style="fill-rule:nonzero;"/><path d="M4370.83,3925.88c118.209,-54.167 211.292,-129.792 266.084,-217.708l-1397.67,-0c54.792,87.916 147.833,163.583 266.083,217.708c122.375,56.083 271.667,89.042 432.75,89.042c161.084,-0 310.334,-32.959 432.75,-89.042Z" style="fill:#fff;fill-rule:nonzero;"/><path d="M4653.42,3698.83c-1.112,-1.942 -3.179,-3.151 -5.417,-3.166l-1419.83,-0c-3.424,0.007 -6.237,2.826 -6.237,6.25c0,1.113 0.298,2.206 0.862,3.166c55.583,94.917 153.125,175.25 277.208,232.167c124.083,56.917 275,90.167 437.958,90.167c10.639,-0 21.223,-0.139 31.75,-0.417c4.584,0 9.167,-0.375 13.709,-0.542c145.416,-5.583 279.958,-37.5 392.5,-89.208l4.166,-2c3.792,-1.792 7.584,-3.542 11.334,-5.375c116.666,-56.375 208.333,-134.042 261.708,-224.792c1.215,-1.876 1.327,-4.269 0.292,-6.25Zm-1414.17,9.5l1397.67,0c-54.792,87.917 -147.875,163.584 -266.084,217.709c-122.416,56.083 -271.666,89.041 -432.75,89.041c-161.083,0 -310.375,-32.958 -432.75,-89.041c-118.25,-54.292 -211.291,-129.959 -266.083,-217.709Z" style="fill-rule:nonzero;"/><path d="M5558.08,2354.17l3.417,3.625l50,-95.834c-19.206,-1.932 -37.805,-7.82 -54.625,-17.291c-4.772,-2.699 -9.391,-5.662 -13.833,-8.875l-42.459,81.458c21.586,8.052 41.195,20.641 57.5,36.917Z" style="fill-rule:nonzero;"/><path d="M5611.71,2262l-50,95.833c3.125,3.292 6.042,6.667 8.834,10.125l54.916,-105.375l-0.458,0c-4.438,0.032 -8.874,-0.163 -13.292,-0.583Z" style="fill-rule:nonzero;"/><path d="M5500.79,2317.29l42.458,-81.459c-3.458,-2.5 -6.833,-5.083 -10.042,-7.833l-44.416,85.25c4.041,1.167 8.041,2.542 12,4.042Z" style="fill-rule:nonzero;"/><path d="M5059,2841.67c41.99,-0 76.542,34.552 76.542,76.541c-0,41.99 -34.552,76.542 -76.542,76.542l-205.083,0l-227.917,297.333l-0.542,0.625c-30.35,30.398 -71.586,47.498 -114.541,47.5l-919.834,0l-104.958,149.167c-14.431,19.31 -37.172,30.704 -61.278,30.704c-41.967,0 -76.5,-34.533 -76.5,-76.5c-0,-15.058 4.446,-29.786 12.778,-42.329l43.042,-60.917l-502.5,0c-39.687,-0.038 -77.796,15.746 -105.834,43.834l-662.5,663.416c-29.009,28.158 -45.398,66.907 -45.398,107.335c-0,82.059 67.524,149.583 149.583,149.583c40.377,0 79.081,-16.348 107.232,-45.293l571.542,-572.083c30.35,-30.397 71.586,-47.498 114.541,-47.5l1609.21,0c39.506,-0.092 77.406,-15.849 105.333,-43.792l803.542,-1020.62l0.5,-0.541c57.994,-58.088 57.994,-153.579 -0,-211.667c-57.853,-57.954 -153.136,-58.067 -211.125,-0.25l-367.125,478.917l87.833,-0Z" style="fill:#fff;fill-rule:nonzero;"/><path d="M5561.67,2357.96l-3.334,-3.791c-16.245,-16.251 -35.78,-28.839 -57.291,-36.917c-4.167,-1.5 -7.959,-2.875 -12,-4.167c-14.737,-4.246 -29.997,-6.406 -45.334,-6.416c-42.97,-0.076 -84.235,17.036 -114.541,47.5l-0.542,0.625l-373.208,486.875l15.75,-0l367.083,-478.875c57.989,-57.817 153.273,-57.705 211.125,0.25c57.994,58.087 57.994,153.579 0,211.666l-0.5,0.542l-803.5,1020.58c-27.995,27.923 -65.96,43.621 -105.5,43.625l-1609.21,0c-42.956,0.003 -84.191,17.103 -114.542,47.5l-571.542,572.25c-27.713,25.973 -64.305,40.439 -102.286,40.439c-82.059,-0 -149.584,-67.524 -149.584,-149.583c0,-38.074 14.536,-74.746 40.62,-102.481l662.5,-663.416c28.007,-28.058 66.065,-43.839 105.709,-43.834l502.625,0l8.791,-12.5l-511.291,0c-42.956,0.003 -84.191,17.103 -114.542,47.5l-551.625,552.125l-13.75,13.792l-97.417,97.5c-30.347,30.38 -47.411,71.608 -47.411,114.548c0,72.746 48.976,137.002 119.12,156.285c4.166,1.125 8.333,2.125 12.5,2.917c10.052,1.926 20.264,2.902 30.5,2.917c42.962,0.034 84.212,-17.072 114.541,-47.5l571.417,-572.084c28.007,-28.057 66.065,-43.838 105.708,-43.833l1609.21,-0c8.956,0.062 17.902,-0.607 26.75,-2c5,-0.833 9.916,-1.917 14.75,-3.208c27.592,-7.328 52.765,-21.819 72.958,-42l0.458,-0.542l803.667,-1020.83c57.675,-58.077 62.828,-151.162 11.917,-215.25c-2.709,-3.542 -5.625,-6.917 -8.75,-10.209Z" style="fill-rule:nonzero;"/><path d="M4625.38,3292.83l0.542,-0.625l227.916,-297.333l-15.75,0l-221.791,289.375c-27.997,27.889 -65.941,43.57 -105.459,43.583l-910.833,0l-8.792,12.5l919.625,0c42.956,-0.002 84.191,-17.102 114.542,-47.5Z" style="fill-rule:nonzero;"/><path d="M5737.5,2175.25l174.583,-401c7.405,-17.097 11.22,-35.535 11.209,-54.167c0.111,-52.738 -29.393,-101.298 -76.25,-125.5c-17.554,-8.895 -36.947,-13.561 -56.625,-13.625c-49.061,0.145 -93.497,29.769 -112.5,75l-174.584,401c-7.408,17.097 -11.223,35.535 -11.208,54.167c-0.092,50.644 27.084,97.6 71.042,122.75c18.865,10.674 40.158,16.327 61.833,16.417c49.061,-0.185 93.483,-29.816 112.5,-75.042Z" style="fill:#4c559d;fill-rule:nonzero;"/><path d="M5852.83,1583.33c-19.298,-9.771 -40.618,-14.894 -62.25,-14.958c-54.045,0.133 -103.024,32.708 -124.041,82.5l-174.584,400.958c-8.102,18.701 -12.272,38.87 -12.25,59.25c0.037,44.889 19.629,87.605 53.625,116.917c3.209,2.75 6.584,5.333 10.042,7.833c4.443,3.213 9.061,6.176 13.833,8.875c16.82,9.471 35.419,15.359 54.625,17.292c4.429,0.477 8.879,0.727 13.334,0.75l0.375,0c53.912,-0.27 102.716,-32.8 123.708,-82.458l174.583,-401c8.099,-18.702 12.269,-38.87 12.25,-59.25c0.123,-57.5 -32.107,-110.428 -83.25,-136.709Zm-227.833,666.917c-21.675,-0.089 -42.968,-5.743 -61.833,-16.417c-43.958,-25.15 -71.134,-72.106 -71.042,-122.75c-0.015,-18.632 3.8,-37.07 11.208,-54.166l174.584,-401c19.003,-45.232 63.439,-74.856 112.5,-75c19.678,0.063 39.071,4.729 56.625,13.625c46.857,24.201 76.361,72.761 76.25,125.5c0.011,18.632 -3.804,37.069 -11.209,54.166l-174.583,401.042c-19.03,45.21 -63.449,74.822 -112.5,75Z" style="fill-rule:nonzero;"/><path d="M5280.88,4940.54c-69.157,-335.2 -366.97,-577.841 -709.229,-577.841c-342.26,0 -640.072,242.641 -709.229,577.841l1418.46,-0Z" style="fill:#fff;fill-rule:nonzero;"/><path d="M4604.75,4350.79c-10.958,-0.5 -22,-0.792 -33.083,-0.792c-132.033,-0.19 -261.694,35.317 -375.209,102.75l-10.708,6.458c-173.766,106.937 -295.557,281.365 -336.083,481.334l12.833,-0c69.157,-335.2 366.97,-577.841 709.229,-577.841c342.26,0 640.072,242.641 709.229,577.841l12.75,-0c-64.916,-321.709 -339.083,-567.459 -674.208,-588.959c-4.958,-0.291 -9.833,-0.583 -14.75,-0.791Z" style="fill-rule:nonzero;"/><path d="M5413.21,4953.04l-1683.33,-0c-54.858,-0 -100,45.141 -100,100c0,54.858 45.142,100 100,100l1683.33,-0c54.859,-0 100,-45.142 100,-100c0,-54.859 -45.141,-100 -100,-100Z" style="fill-rule:nonzero;"/><path d="M5413.42,4940.54l-1683.33,-0c-61.715,-0 -112.5,50.784 -112.5,112.5c0,61.715 50.785,112.5 112.5,112.5l1683.33,-0c61.715,-0 112.5,-50.785 112.5,-112.5c-0,-61.716 -50.785,-112.5 -112.5,-112.5Zm99.666,112.5c0,54.858 -45.141,100 -100,100l-1683.33,-0c-54.858,-0 -100,-45.142 -100,-100c0,-54.859 45.142,-100 100,-100l1683.33,-0c54.859,-0 100,45.141 100,100Z" style="fill-rule:nonzero;"/><path d="M3371.29,3408.54c-8.109,10.999 -12.485,24.311 -12.485,37.976c-0,35.109 28.89,64 64,64c21.262,-0 41.183,-10.596 53.068,-28.226l350,-497.25c1.161,-1.659 3.058,-2.655 5.083,-2.667l1228.08,0c35.132,-0 64.041,-28.909 64.041,-64.042c0,-35.132 -28.909,-64.041 -64.041,-64.041l-1264.62,-0c-20.788,0.036 -40.311,10.178 -52.292,27.166l-370.833,527.084Z" style="fill:#4c559d;fill-rule:nonzero;"/><path d="M3404.17,3340.33l-42.959,61.042c-9.88,13.221 -15.221,29.291 -15.221,45.796c-0,41.966 34.533,76.5 76.5,76.5c25.598,-0 49.557,-12.849 63.721,-34.171l104.959,-149.167l8.791,-12.5l234.209,-332.958l1225,0c41.989,0 76.541,-34.552 76.541,-76.542c0,-41.989 -34.552,-76.541 -76.541,-76.541l-1264.75,-0c-24.854,0.04 -48.194,12.176 -62.5,32.5l-319.125,453.541l-8.625,12.5Zm390.25,-486.166l1264.5,-0c35.132,-0 64.041,28.909 64.041,64.041c0,35.133 -28.909,64.042 -64.041,64.042l-1228.08,0c-2.025,0.012 -3.922,1.008 -5.083,2.667l-350,497.25c-11.885,17.63 -31.806,28.226 -53.068,28.226c-35.11,-0 -64,-28.891 -64,-64c-0,-13.665 4.376,-26.977 12.485,-37.976l370.833,-527.084c12.006,-17.024 31.585,-27.171 52.417,-27.166Z" style="fill-rule:nonzero;"/><path d="M4704.58,406.792l-33.791,45.625l263.791,116.375l10.834,-55.75l-240.834,-106.25Z" style="fill:#4c559d;fill-rule:nonzero;"/><path d="M4663.62,449.25l7.167,3.167l33.791,-45.834l240.834,106.25l-10.834,55.75l7.167,3.167c2.657,1.182 4.165,4.059 3.625,6.917l13.25,-68.334c0.578,-2.851 -0.921,-5.744 -3.583,-6.916l-35.792,-15.792l-11.583,-5.083l-155.25,-68.5l-11.542,-5.125l-35.833,-15.792c-2.665,-1.157 -5.801,-0.325 -7.542,2l-41.417,55.917c1.771,-2.292 4.93,-3.042 7.542,-1.792Z" style="fill-rule:nonzero;stroke:#000;stroke-width:4.17px;"/><path d="M4932.12,581.375l-268.958,-118.667l-43.042,58.125c109.172,16.629 212.088,61.635 298.417,130.5l13.583,-69.958Z" style="fill-rule:nonzero;"/><path d="M4620.12,520.833l43.042,-58.083l268.958,118.667l-13.583,69.916c3.75,3 7.333,6.042 11,9.084l15.833,-81.5c0.54,-2.858 -0.968,-5.735 -3.625,-6.917l-7.167,-3.167l-263.75,-116.416l-7.166,-3.167c-2.66,-1.206 -5.829,-0.365 -7.542,2l-50,67.583c4.625,0.584 9.292,1.25 14,2Z" style="fill-rule:nonzero;"/><path d="M4754.46,570.167c-72.048,-28.904 -148.954,-43.796 -226.583,-43.875c-216.375,-0 -418.833,116.958 -514.875,312.958l0.333,0.625c0.915,1.388 1.977,2.673 3.167,3.833c4.606,4.381 9.583,8.354 14.875,11.875c18.8,12.38 38.274,23.703 58.333,33.917c49.792,26.25 119.834,59 200,94.208c160.584,70.459 362.209,150.834 525.917,209.625c109.083,39.167 201.542,68.792 253.125,79.375c10.373,2.382 20.948,3.777 31.583,4.167c1.841,0.035 3.681,-0.091 5.5,-0.375c0.58,-0.113 1.15,-0.266 1.709,-0.458c16.496,-52.592 24.925,-107.382 25,-162.5c-0.25,-229.459 -143.959,-449.917 -378.084,-543.375Z" style="fill:#fff;fill-rule:nonzero;"/><path d="M4009.46,831.792c2.76,1.239 4.232,4.325 3.459,7.25c-0.774,2.925 -0,-0 -0,-0c95.833,-195.834 298.5,-312.959 514.875,-312.959c77.629,0.08 154.535,14.972 226.583,43.875c234.125,93.459 377.833,313.917 377.792,543.292c-0.075,55.118 -8.504,109.908 -25,162.5c1.113,-1.939 3.185,-3.139 5.42,-3.139c3.429,-0 6.25,2.821 6.25,6.25c0,0.597 -0.085,1.191 -0.254,1.764c17.038,-54.185 25.694,-110.658 25.667,-167.458c0,-171.959 -79.167,-338.709 -215.208,-453.084c-3.667,-3.041 -7.25,-6.083 -11,-9.083c-86.222,-68.666 -188.953,-113.551 -297.917,-130.167c-4.708,-0.708 -9.375,-1.375 -14.083,-1.958c-25.921,-3.353 -52.03,-5.037 -78.167,-5.042c-221.208,0 -428.5,119.75 -526.583,320.834c1.485,-2.993 5.134,-4.278 8.166,-2.875Z" style="fill-rule:nonzero;"/><path d="M3991.21,907.958c4.261,4.914 9.023,9.368 14.209,13.292c17.752,13.34 36.424,25.412 55.875,36.125c47.958,27.417 115.625,60.708 193.541,95.833c155.834,70.625 352.75,149.459 516.292,206.792c109,38.167 203.375,66.667 260.292,77.083c12.12,2.448 24.43,3.842 36.791,4.167c3.464,0.084 6.928,-0.195 10.334,-0.833c1.724,-0.23 3.376,-0.842 4.833,-1.792c0.206,-0.14 0.377,-0.325 0.5,-0.542l0,-0.25c3.25,-7.291 6.417,-14.625 9.375,-22.041c3.5,-8.834 6.667,-17.667 9.708,-26.542l-2.833,-0c-8.48,-0.225 -16.926,-1.159 -25.25,-2.792c-10.125,-1.833 -21.958,-4.458 -35.375,-7.875c-26.833,-6.833 -59.958,-16.666 -97.75,-28.875c-75.542,-24.416 -169.75,-58.333 -269.125,-96.25c-198.75,-75.875 -418.042,-167.958 -550,-233.125c-37.5,-18.625 -68.125,-35.041 -89.167,-48.416c-9.087,-5.47 -17.614,-11.82 -25.458,-18.959l-1.208,-1.25c-3.917,8.334 -7.709,17.125 -11.25,25.917c-2.959,7.458 -5.709,14.917 -8.334,22.458l0,0.584c0.073,0.844 0.314,1.666 0.709,2.416c0.89,1.756 1.996,3.393 3.291,4.875Z" style="fill:#4c559d;fill-rule:nonzero;"/><path d="M3978.5,911.75c5.783,8.016 12.818,15.05 20.833,20.833c18.292,14.125 46.25,31.084 81.667,50c123.833,66.667 338.958,159.417 538.875,235.5c100,38.042 195.833,71.917 275,96.292c39.458,12.208 74.667,22.042 104.167,28.833c29.5,6.792 52.708,10.625 69.125,10.625c5.628,0.196 11.252,-0.493 16.666,-2.041c2.279,-0.7 4.422,-1.785 6.334,-3.209c1.824,-1.476 3.255,-3.379 4.166,-5.541c3.334,-7.417 6.584,-14.917 9.625,-22.542c5.223,-13.167 9.917,-26.389 14.084,-39.667c0.168,-0.573 0.254,-1.167 0.254,-1.764c-0,-3.428 -2.822,-6.25 -6.25,-6.25c-2.236,0 -4.308,1.2 -5.421,3.139c-0.558,0.192 -1.129,0.345 -1.708,0.459c-1.819,0.284 -3.66,0.409 -5.5,0.375c-10.636,-0.391 -21.211,-1.786 -31.584,-4.167c-51.583,-10.583 -144.041,-40.208 -253.125,-79.375c-163.708,-58.792 -365.333,-139.167 -525.916,-209.625c-80.292,-35.208 -150.334,-67.958 -200,-94.208c-20.06,-10.214 -39.534,-21.537 -58.334,-33.917c-5.291,-3.522 -10.268,-7.495 -14.875,-11.875c-1.19,-1.16 -2.252,-2.445 -3.166,-3.833l-0.334,-0.625c0.118,-0.483 0.178,-0.978 0.178,-1.475c0,-3.406 -2.803,-6.208 -6.208,-6.208c-2.382,-0 -4.562,1.37 -5.595,3.516c-6.111,12.5 -11.791,25.319 -17.041,38.458c-3.042,7.667 -5.875,15.292 -8.542,22.959c-0.539,1.512 -0.82,3.103 -0.833,4.708c0.142,3.794 1.34,7.474 3.458,10.625Zm8.917,-11.208l-0,-0.25c2.625,-7.542 5.375,-15 8.333,-22.459c3.542,-8.791 7.333,-17.416 11.25,-25.916l1.208,1.25c7.844,7.138 16.372,13.489 25.459,18.958c20.833,13.375 51.541,29.792 89.166,48.417c131.792,65.166 351.084,157.25 550,233.125c99.375,37.958 193.584,71.833 269.125,96.25c37.792,12.208 70.834,22.041 97.75,28.875c13.417,3.416 25.25,6.041 35.375,7.875c8.324,1.633 16.771,2.567 25.25,2.791l2.834,0c-3.042,8.875 -6.209,17.709 -9.709,26.542c-2.958,7.417 -6.125,14.75 -9.375,22.042l0,0.25c-0.123,0.216 -0.294,0.401 -0.5,0.541c-1.457,0.95 -3.109,1.563 -4.833,1.792c-3.406,0.638 -6.869,0.918 -10.333,0.833c-12.361,-0.324 -24.671,-1.719 -36.792,-4.166c-56.917,-10.25 -151.292,-38.917 -260.292,-77.084c-163.541,-57.333 -360.458,-136.166 -516.291,-206.791c-77.917,-35.334 -145.584,-68.625 -193.542,-95.834c-19.451,-10.713 -38.122,-22.785 -55.875,-36.125c-5.186,-3.923 -9.948,-8.378 -14.208,-13.291c-1.223,-1.427 -2.272,-2.993 -3.125,-4.667c-0.395,-0.75 -0.636,-1.572 -0.709,-2.417l-0.166,-0.541Z" style="fill-rule:nonzero;"/><path d="M2346.62,1789c3.223,-1.171 6.84,0.497 8.042,3.708l0.291,0.792c0.292,0.708 0.709,1.792 1.292,3.167c1.167,2.75 2.958,6.791 5.417,11.833c6.788,13.783 14.5,27.091 23.083,39.833c26.116,39.956 61.13,73.33 102.292,97.5c35.75,20.271 75.649,32.141 116.666,34.709c5.542,0.416 11.167,0.583 16.667,0.583c57.5,-0 124.75,-19.292 193.375,-48.833c68.625,-29.542 138.667,-69.209 202.125,-109.584c82.623,-52.855 162.066,-110.524 237.917,-172.708c-0,-1.875 -0.25,-4.583 -0.542,-8.042c-0.542,-7 -1.583,-17.041 -3.417,-28.791c-4.093,-28.196 -11.897,-55.726 -23.208,-81.875c-7.691,-17.833 -18.61,-34.093 -32.208,-47.959c-5.511,-0.889 -11.085,-1.321 -16.667,-1.291c-19.364,0.516 -38.627,2.973 -57.5,7.333c-22.208,4.708 -47.083,11.5 -73.417,19.75c-52.708,16.458 -111.416,38.708 -167.458,61.625c-112.125,45.833 -213.583,94.417 -235.833,105.208c-3,1.417 -4.542,2.167 -4.542,2.209c-3.024,1.495 -6.739,0.306 -8.333,-2.667l-0.75,-1.375l-2.209,-4.167c-1.958,-3.541 -4.875,-8.75 -8.625,-15.375c-7.5,-13.208 -18.375,-32 -31.916,-54.375c-27.084,-44.708 -64.834,-103.708 -107.25,-160.541l-0.625,-1.084c-27.29,-57.456 -65.862,-108.839 -113.417,-151.083c-40.421,-35.743 -85.74,-65.53 -134.583,-88.458c-50.429,-24.119 -103.842,-41.424 -158.834,-51.459l-1.25,4.167l275,637.5l0.417,-0.25Z" style="fill:#fff;fill-rule:nonzero;"/><path d="M2072.46,1147.75c54.992,10.035 108.405,27.34 158.834,51.458c48.833,22.877 94.152,52.608 134.583,88.292c47.528,42.304 86.058,93.745 113.292,151.25l0.625,1.083c42.416,56.834 80.166,115.834 107.25,160.542c13.541,22.375 24.416,41.167 31.916,54.375c3.75,6.625 6.667,11.833 8.625,15.375l2.209,4.167l0.75,1.375c1.594,2.972 5.309,4.161 8.333,2.666c3.024,-1.495 1.542,-0.791 4.542,-2.208c22.208,-10.917 123.666,-59.458 235.75,-105.292c56.041,-22.916 114.75,-45.166 167.458,-61.625c26.333,-8.333 51.208,-15.041 73.417,-19.75c18.873,-4.36 38.136,-6.817 57.5,-7.333c5.581,-0.029 11.156,0.403 16.666,1.292c13.586,13.828 24.505,30.044 32.209,47.833c11.436,26.118 19.366,53.635 23.583,81.833c1.833,11.75 2.875,21.792 3.417,28.792c0.291,3.458 0.458,6.167 0.541,8.042c-75.854,62.141 -155.297,119.768 -237.916,172.583c-63.459,40.375 -133.334,80.042 -202.125,109.583c-68.792,29.542 -135.875,48.875 -193.375,48.834c-5.709,-0 -11.334,-0 -16.667,-0.584c-41.017,-2.567 -80.916,-14.437 -116.667,-34.708c-41.085,-24.062 -76.066,-57.289 -102.208,-97.083c-8.583,-12.743 -16.295,-26.051 -23.083,-39.834c-2.459,-5.041 -4.167,-9.083 -5.417,-11.833c-0.583,-1.375 -1,-2.458 -1.292,-3.167l-0.291,-0.791c-1.202,-3.212 -4.819,-4.88 -8.042,-3.709l-0.292,0c-3.028,1.296 -4.525,4.789 -3.375,7.875c9.003,22.068 20.494,43.037 34.25,62.5c4.625,6.709 9.792,13.667 15.5,20.834c2.542,3.166 5.167,6.333 7.917,9.541c22.77,26.601 49.892,49.144 80.208,66.667c37.33,21.155 78.973,33.579 121.792,36.333c5.833,0.375 11.75,0.584 17.75,0.584c62.208,-0 133.333,-21.25 205.042,-52.792c107.708,-47.292 217.291,-118.042 300,-176.958c82.708,-58.917 138.666,-106.084 138.75,-106.125c1.457,-1.226 2.272,-3.056 2.208,-4.959c-0.064,-1.902 -0.25,-9.583 -1.917,-24.333c-0.458,-3.792 -1,-7.958 -1.625,-12.5c-1.333,-9.292 -3.166,-19.833 -5.666,-31.042c-4.393,-20.197 -10.829,-39.896 -19.209,-58.791c-2.25,-4.959 -4.708,-9.875 -7.333,-14.667c-2.056,-3.722 -4.222,-7.347 -6.5,-10.875c-6.345,-10.03 -13.871,-19.263 -22.417,-27.5c-0.869,-0.792 -1.933,-1.339 -3.083,-1.583c-6.952,-1.291 -14.013,-1.905 -21.083,-1.834c-21.799,0.594 -43.475,3.485 -64.667,8.625c-86.042,19.042 -205.667,66.167 -304.167,108.625c-83.333,35.834 -151,68.292 -170.083,77.542c-44.627,-80.199 -94.224,-157.531 -148.5,-231.542c-28.366,-59.603 -68.574,-112.811 -118.167,-156.375c-68.25,-60.416 -144.375,-95.833 -203.458,-116.333c-30.098,-10.567 -60.987,-18.732 -92.375,-24.417l-3.917,12.042Z" style="fill-rule:nonzero;"/><path d="M2058.67,1556.54c-0.062,-1.12 -0.201,-2.234 -0.417,-3.334c-0.333,-1.833 -0.833,-4.166 -1.5,-6.833c-1.333,-5.458 -3.25,-12.5 -5.625,-20.542c-4.75,-16.125 -11.25,-36.541 -18.125,-57.541c-13.708,-41.959 -29.167,-86.209 -35.083,-103.792l-2.75,-7.875c-0.417,-1.286 -0.417,-2.672 -0,-3.958l69.958,-223.5l-130.708,-33l-0,1.083c-0.625,5.333 -1.542,13.042 -2.667,22.75c-2.25,19.458 -5.375,46.792 -8.792,78.417c-6.916,63.333 -15.208,143.875 -20.833,212.833c-3.667,45.833 -6.125,86.792 -6.125,113.708l0,325.542c30.5,0.542 53.167,0.625 63.083,0.625l5.542,-0c0.68,0.006 1.355,0.118 2,0.333c0.686,0.247 1.342,0.569 1.958,0.959c38.417,-126 77.459,-254.167 87.5,-288.084c1.5,-4.083 2.25,-6.75 2.584,-7.791Z" style="fill:#fff;fill-rule:nonzero;"/><path d="M1895.83,2090.92c5.334,-17.542 12.167,-39.959 20.042,-65.667c-6.625,3.25 -13.292,6.375 -20,9.5c0.167,21.667 -0.042,40.75 -0.042,56.167Z" style="fill:#fff;fill-rule:nonzero;"/><path d="M1883.33,2132.88c-0.012,3.094 2.273,5.755 5.334,6.208c2.407,0.36 4.809,-0.758 6.083,-2.833c0.353,-0.463 0.621,-0.985 0.792,-1.542l12.5,-40.791c6.083,-19.959 14.083,-46.209 23.25,-76.375c-5.084,2.625 -10.25,5.166 -15.375,7.708c-7.875,25.708 -14.709,48.125 -20.042,65.667l-0,-56.167c-4.167,1.917 -8.333,3.792 -12.5,5.625c-0.042,55.458 -0.042,92.5 -0.042,92.5Z" style="fill-rule:nonzero;"/><path d="M1922.83,1087.71c0,0 -0.916,7.584 -2.458,20.834c-2.708,23.25 -7.375,64.083 -12.5,112.041c-0.583,5.334 -1.167,10.75 -1.75,16.25c-0.958,9.292 -1.958,18.834 -2.958,28.459c-4.917,47.833 -9.834,99 -13.542,145.125c-3.708,46.125 -6.292,87.041 -6.292,114.583l0,325.292l12.5,0.25l0,-325.5c0,-26.917 2.459,-67.75 6.125,-113.709c5.542,-68.958 13.834,-149.5 20.834,-212.833c3.416,-31.625 6.541,-58.958 8.791,-78.417c1.125,-9.708 2.042,-17.416 2.667,-22.75l0,-1.083l130.875,32.917l-70.042,223.416c-0.417,1.287 -0.417,2.672 0,3.959l2.75,7.875c6.084,17.583 21.375,61.833 35.084,103.791c6.875,20.834 13.375,41.417 18.125,57.542c2.375,8.083 4.166,15.083 5.625,20.542c0.666,2.708 1.166,5 1.5,6.833c0.216,1.1 0.355,2.214 0.416,3.333c-0.291,1.042 -1.083,3.709 -2.333,7.834c-10.208,33.75 -49.25,162.083 -87.5,288.083c0.748,0.457 1.458,0.973 2.125,1.542c2.368,2.157 4.305,4.745 5.708,7.625c0.5,1 1,2.083 1.459,3.25c1.375,-4.459 2.708,-8.917 4.166,-13.334c21.667,-71.166 43.459,-142.708 60,-197.166c8.334,-27.209 15.292,-50 20.292,-66.667c2.5,-8.333 4.542,-14.917 5.958,-19.667c1.417,-4.75 2.292,-7.625 2.542,-8.333c0.204,-0.903 0.315,-1.824 0.333,-2.75c-0.089,-2.242 -0.367,-4.472 -0.833,-6.667c-0.958,-4.833 -2.625,-11.375 -4.875,-19.333c-7.792,-27.708 -22.417,-72.167 -35.083,-109.792c-10.834,-32.166 -20.25,-59.208 -22.792,-66.416l63.583,-202.709l1.25,-4.166l3.75,-12.042l2.834,-9c0.51,-1.638 0.33,-3.415 -0.5,-4.917c-0.842,-1.5 -2.255,-2.598 -3.917,-3.041l-144.042,-36.375c-1.395,-0.345 -2.867,-0.197 -4.166,0.416c-0.319,0.142 -0.625,0.309 -0.917,0.5c-1.516,0.989 -2.534,2.584 -2.792,4.375Z" style="fill-rule:nonzero;"/><path d="M1781.58,1506.29l0,-3.042c0,-23.5 -1.875,-57.75 -4.833,-96.708c-2.958,-38.959 -6.917,-82.709 -11.125,-125.5c-8.333,-85.584 -17.875,-167.292 -21.625,-199.334c-0.333,-2.833 -0.625,-5.208 -0.833,-7.25l-124.625,31.5c0.761,0.837 1.292,1.856 1.541,2.959c0.09,0.422 0.134,0.852 0.134,1.283c0,2.955 -2.109,5.521 -5.009,6.092l67.292,214.583c0.417,1.286 0.417,2.672 0,3.958l-1.875,5.375c-1.208,3.459 -2.958,8.334 -5.083,14.625c-4.167,12.5 -10.125,29.459 -16.459,48.209c-12.5,37.5 -27.25,82 -34.916,109.208c-2.167,7.75 -3.792,14.125 -4.625,18.333c-0.295,1.373 -0.49,2.766 -0.584,4.167c0.055,0.267 0.125,0.532 0.209,0.792c-0,0.5 0.25,1.125 0.375,1.875c0.333,1.5 0.75,3.5 1.291,6c1.042,5.041 2.459,12 4.167,20.833c3.458,17.375 8.333,41.667 13.958,70.208c11.25,56.875 25.917,131.5 40.5,205.917l25,1.958c16.25,1.209 32.5,2.209 48.5,3.125c12.5,-137.958 25,-281.708 28.042,-326.625c0.333,-6.333 0.542,-10.5 0.583,-12.541Z" style="fill:#fff;fill-rule:nonzero;"/><path d="M1730.33,2093.29l-1.291,0.291c0.291,1.542 0.583,3 0.833,4.459c0.167,-1.542 0.292,-3.125 0.458,-4.75Z" style="fill:#fff;fill-rule:nonzero;"/><path d="M1730.33,2093.29c0,1.625 -0.291,3.208 -0.458,4.75c-0.25,-1.459 -0.542,-2.917 -0.833,-4.459c-4.167,1.042 -8.334,2 -12.167,2.959c5.083,26 8.333,42.75 9,46.041l0,0.667c0.166,3.311 2.935,5.945 6.25,5.945c3.433,0 6.258,-2.825 6.258,-6.258c-0,-0.104 -0.003,-0.208 -0.008,-0.312c0,-1.208 1.917,-20.833 4.833,-52.5l-12.875,3.167Z" style="fill-rule:nonzero;"/><path d="M1612.71,1104.17c2.136,-0.436 4.352,0.276 5.834,1.875l124.625,-31.5c0.208,2.041 0.5,4.416 0.833,7.25c3.75,32.041 13.167,113.75 21.625,199.333c4.167,42.792 8.333,86.542 11.125,125.5c2.792,38.958 4.833,73.208 4.833,96.708l0,3.042c0,1.833 -0.25,6.25 -0.666,12.5c-3,44.917 -15.625,188.667 -28.042,326.625l12.5,0.667l0.75,-8.334c6.958,-77.291 13.917,-155.708 19.167,-216.958c2.583,-30.625 4.791,-56.958 6.333,-76.75c0.75,-9.875 1.375,-18.125 1.792,-24.5c0.416,-6.375 0.666,-10.708 0.708,-13.208l-0,-3.125c-0,-27.584 -2.5,-68.542 -6.167,-114.667c-4.166,-51.125 -9.708,-108.333 -15.125,-160.5c-0.625,-6.042 -1.25,-12.042 -1.875,-17.917c-5.541,-52.333 -10.75,-97.583 -13.666,-122.833c-1.584,-13.583 -2.542,-21.375 -2.542,-21.417c-0.263,-1.701 -1.232,-3.215 -2.667,-4.166c-1.46,-1.038 -3.309,-1.374 -5.041,-0.917l-1.25,0.292l-142.792,36.083c-1.668,0.43 -3.087,1.532 -3.917,3.042c-0.858,1.49 -1.055,3.274 -0.541,4.916l0.833,2.584c8.375,-2.709 13.125,-3.625 13.333,-3.625Z" style="fill-rule:nonzero;"/><path d="M1625,1564.21c-1.75,-8.708 -3.167,-15.666 -4.167,-20.833c-0.541,-2.5 -0.958,-4.5 -1.291,-6c-0,-0.75 -0.292,-1.375 -0.375,-1.875c-0.084,-0.26 -0.154,-0.524 -0.209,-0.792c0.094,-1.401 0.289,-2.793 0.584,-4.166c0.833,-4.167 2.458,-10.584 4.625,-18.334c7.666,-27.208 22.25,-71.666 34.916,-109.208c6.334,-18.75 12.167,-35.833 16.459,-48.208c2.125,-6.167 3.875,-11.167 5.083,-14.625l1.875,-5.375c0.417,-1.287 0.417,-2.672 0,-3.959l-67.292,-214.583l-0.708,0l-2.917,0.708l-0.375,0l-5.125,12.209l63.834,203.666c-3.209,9.167 -17.25,49.542 -31.292,91.667c-8,24.083 -16,48.75 -22,68.708c-3,10 -5.542,18.792 -7.333,25.792c-0.875,3.5 -1.584,6.583 -2.084,9.167c-0.486,2.191 -0.765,4.423 -0.833,6.666c-0.033,0.973 0.093,1.944 0.375,2.875c0.282,0.932 0.292,1.167 0.625,2.625c2.5,11.667 11.208,55.334 22.792,114.042c10.541,53.25 23.458,118.958 36.333,184.708l12.958,1.167c-14.583,-74.417 -29.166,-149.042 -40.5,-205.917c-5.625,-28.583 -10.541,-52.75 -13.958,-70.125Z" style="fill-rule:nonzero;"/><path d="M2070.83,1995.83c46.167,10.667 95.834,22.25 134.125,26.167c5.584,0.542 11.084,0.833 16.417,0.833c20.022,0.273 39.827,-4.196 57.792,-13.041c14.58,-6.985 26.691,-18.252 34.708,-32.292c4.644,-8.542 7.079,-18.111 7.083,-27.833c-0.068,-8.823 -1.925,-17.541 -5.458,-25.625c-2.69,-6.021 -7.023,-11.163 -12.5,-14.834c-6.37,-4.348 -13.407,-7.628 -20.833,-9.708c-17.881,-4.654 -36.32,-6.813 -54.792,-6.417c-12.833,0 -25,0.709 -35.167,1.542c-10.166,0.833 -18,1.75 -22.541,2.125l-4.125,0c-0.43,0.046 -0.863,0.046 -1.292,0c-0.623,-0.224 -1.212,-0.532 -1.75,-0.917c-0.678,-0.395 -1.272,-0.919 -1.75,-1.541c-0.871,-1.122 -1.354,-2.497 -1.375,-3.917c-0.006,-0.818 0.165,-1.628 0.5,-2.375c0.21,-0.513 0.476,-1.002 0.792,-1.458c0.373,-0.473 0.807,-0.893 1.291,-1.25c0.417,-0.309 0.863,-0.574 1.334,-0.792l1.708,-0.708l4.792,-1.459c5.573,-1.381 10.6,-4.418 14.416,-8.708c2.623,-2.973 4.101,-6.786 4.167,-10.75c0.064,-3.277 -1.164,-6.452 -3.417,-8.833c-2.715,-2.623 -6.396,-4.011 -10.166,-3.834c-5.159,0.231 -10.195,1.658 -14.709,4.167c-6.915,3.18 -14.15,5.611 -21.583,7.25c-8.625,2.125 -18.542,4.167 -29.167,5.667c-21.5,3.333 -46.25,5.875 -69.75,7.833c-21.458,1.75 -41.875,3 -57.708,3.833c1.153,7.458 1.697,14.996 1.625,22.542c-0.56,25.228 -3.546,50.344 -8.917,75c9.417,1.125 19.875,2.833 31.209,4.958c19.666,3.834 41.958,8.917 65.041,14.375Z" style="fill:#fff;fill-rule:nonzero;"/><path d="M2103.12,2015.92c33.156,8 66.737,14.121 100.583,18.333c5.883,0.61 11.794,0.915 17.709,0.917c32.083,-0 59.875,-9.209 79.875,-24.542c9.756,-7.304 17.84,-16.61 23.708,-27.292c5.625,-10.359 8.575,-21.961 8.583,-33.75c-0.069,-10.512 -2.266,-20.901 -6.458,-30.541c-3.599,-8.101 -9.368,-15.053 -16.667,-20.084c-11.676,-7.666 -24.862,-12.739 -38.666,-14.875c-14.624,-2.54 -29.45,-3.74 -44.292,-3.583c-12.5,-0 -24,0.667 -33.833,1.417l-0,-0.209c4.437,-5.244 6.9,-11.88 6.958,-18.75c0.061,-6.529 -2.438,-12.829 -6.958,-17.541c-5.072,-5.034 -11.982,-7.789 -19.125,-7.625c-7.085,0.22 -14.027,2.059 -20.292,5.375c-6.081,2.768 -12.435,4.891 -18.958,6.333c-17.445,3.939 -35.098,6.889 -52.875,8.833c-30.167,3.625 -63.292,6 -88.834,7.5l-14.958,0.834c1.437,4.058 2.483,8.243 3.125,12.5c15.833,-0.834 36.25,-2.084 57.708,-3.834c23.5,-1.958 48.25,-4.5 69.75,-7.833c10.75,-1.667 20.834,-3.542 29.167,-5.667c7.433,-1.639 14.668,-4.07 21.583,-7.25c4.514,-2.509 9.55,-3.936 14.709,-4.166c3.77,-0.177 7.451,1.211 10.166,3.833c2.253,2.381 3.481,5.556 3.417,8.833c-0.066,3.964 -1.544,7.778 -4.167,10.75c-3.816,4.291 -8.843,7.327 -14.416,8.709l-4.792,1.458l-1.708,0.708c-0.471,0.218 -0.917,0.483 -1.334,0.792c-0.484,0.357 -0.918,0.778 -1.291,1.25c-0.316,0.456 -0.582,0.945 -0.792,1.458c-0.335,0.747 -0.506,1.557 -0.5,2.375c0.021,1.42 0.504,2.796 1.375,3.917c0.478,0.623 1.072,1.146 1.75,1.542c0.574,0.333 1.191,0.585 1.833,0.75c0.43,0.046 0.863,0.046 1.292,-0l4.5,-0c4.542,-0.375 12.5,-1.292 22.542,-2.125c10.041,-0.834 22.333,-1.542 35.166,-1.542c18.473,-0.396 36.911,1.763 54.792,6.417c7.427,2.08 14.464,5.359 20.833,9.708c5.478,3.671 9.811,8.813 12.5,14.833c3.533,8.085 5.39,16.803 5.459,25.625c-0.005,9.723 -2.44,19.292 -7.084,27.834c-8.017,14.039 -20.127,25.306 -34.708,32.291c-17.979,8.788 -37.783,13.2 -57.792,12.875c-5.333,0 -10.833,-0.291 -16.416,-0.833c-38.625,-3.958 -88.25,-15.542 -134.459,-26.042c-23.125,-5.291 -45.416,-10.375 -65.208,-14.166c-11.333,-2.125 -21.792,-3.834 -31.208,-4.959c-0.792,4.167 -1.625,8.084 -2.542,12.292c9.25,1.042 19.833,2.75 31.417,4.958c29.25,5.375 64.541,13.959 99.833,21.959Z" style="fill-rule:nonzero;"/><path d="M1611,1117.29c-2.583,0.666 -6.292,1.666 -10.958,3.041c-14.056,4.271 -27.869,9.306 -41.375,15.084c-46.988,20.063 -90.83,46.812 -130.167,79.416c-97.542,80.292 -203.042,222.334 -234.333,471.125c-3.425,26.768 -5.192,53.723 -5.292,80.709c0,61.333 10.167,113 28.292,156.041c16.674,40.471 42.894,76.313 76.416,104.459c64.417,53.916 153.75,77.875 252.459,77.833c134.583,0 286.125,-44.583 413.208,-116.667c8.75,-40.125 11.667,-67.875 11.625,-86.791c0.46,-10.54 -0.951,-21.078 -4.167,-31.125c-0.837,-2.495 -2.153,-4.802 -3.875,-6.792l-3.708,-0c-32.417,-0 -198.708,-0.75 -333.875,-16.083c-45.083,-5.125 -86.708,-11.875 -119,-20.834c-15.887,-3.968 -31.174,-10.036 -45.458,-18.041c-5.688,-3.247 -10.754,-7.479 -14.959,-12.5c-18.458,-23.542 -28.916,-53.709 -34.958,-83.334c-5.106,-26.778 -7.603,-53.989 -7.458,-81.25c-0,-22.541 1.541,-37.5 1.583,-37.708c0.303,-3.169 2.997,-5.618 6.18,-5.618c0.218,0 0.436,0.012 0.653,0.035c0.616,0.068 1.219,0.223 1.792,0.458l192.458,-459.583l4.917,-11.875Z" style="fill:#fff;fill-rule:nonzero;"/><path d="M1268.92,2021.46c21.156,20.704 45.317,38.095 71.666,51.584c59.209,30.666 129.959,44.333 205.459,44.333c57.551,-0.421 114.867,-7.411 170.833,-20.833c4.167,-0.959 8.083,-1.917 12.167,-2.959l1.291,-0.291l12.875,-3.334c48.004,-12.829 94.926,-29.408 140.334,-49.583c4.166,-1.833 8.333,-3.708 12.5,-5.625c6.708,-3.125 13.375,-6.25 20,-9.5c5.125,-2.542 10.291,-5.083 15.375,-7.708c12.333,-6.278 24.472,-12.834 36.416,-19.667c1.561,-0.882 2.659,-2.406 3,-4.167c0.375,-1.666 0.75,-3.291 1.084,-4.958c0.916,-4.167 1.75,-8.333 2.541,-12.292c5.371,-24.656 8.357,-49.772 8.917,-75c0.072,-7.545 -0.472,-15.084 -1.625,-22.541c-0.642,-4.257 -1.688,-8.442 -3.125,-12.5c-0.19,-0.623 -0.413,-1.235 -0.667,-1.834c-0.458,-1.166 -0.958,-2.25 -1.458,-3.25c-1.439,-2.712 -3.359,-5.141 -5.667,-7.166c-0.666,-0.569 -1.377,-1.085 -2.125,-1.542c-0.616,-0.39 -1.272,-0.711 -1.958,-0.958c-0.645,-0.215 -1.32,-0.328 -2,-0.334l-5.583,0c-9.917,0 -32.584,0 -63.084,-0.625l-12.5,-0.25c-33.333,-0.708 -74.666,-2 -118.25,-4.166l-12.5,-0.667c-16,-0.917 -32.25,-1.917 -48.5,-3.125l-25,-1.958l-12.666,-1.375c-40.746,-3.367 -81.297,-8.776 -121.5,-16.209c-19.728,-3.613 -39.127,-8.839 -58,-15.625c-6.804,-2.51 -13.371,-5.62 -19.625,-9.291c-4.428,-2.493 -8.367,-5.768 -11.625,-9.667c-16.667,-21.167 -26.792,-49.583 -32.5,-78.125c-4.978,-25.965 -7.406,-52.354 -7.25,-78.792c-0,-10.958 0.375,-20.125 0.75,-26.5c0.208,-3.208 0.375,-5.708 0.541,-7.416l0,-2.5c0.289,-2.734 -1.258,-5.351 -3.791,-6.417c-0.573,-0.235 -1.176,-0.39 -1.792,-0.458c-0.217,-0.023 -0.435,-0.035 -0.653,-0.035c-3.184,0 -5.878,2.449 -6.18,5.618c-0.303,3.169 -1.584,15.167 -1.584,37.708c-0.145,27.261 2.353,54.472 7.459,81.25c6.041,29.709 16.666,59.875 34.958,83.334c4.205,5.021 9.27,9.253 14.958,12.5c14.285,8.005 29.572,14.073 45.459,18.041c32.291,8.959 73.916,15.709 119,20.834c135.166,15.333 301.458,16.083 333.875,16.083l3.708,-0c1.721,1.99 3.038,4.297 3.875,6.792c3.216,10.047 4.626,20.585 4.167,31.125c-0,18.916 -2.875,46.666 -11.625,86.791c-127.084,71.917 -278.625,116.667 -413.209,116.667c-98.708,-0 -188.041,-23.917 -252.458,-77.833c-33.522,-28.146 -59.743,-63.988 -76.417,-104.459c-18.125,-43.041 -28.291,-94.708 -28.291,-156.041c0.105,-26.945 1.872,-53.857 5.291,-80.584c31.292,-248.791 136.792,-390.833 234.334,-471.125c39.336,-32.604 83.179,-59.353 130.166,-79.416c13.507,-5.778 27.319,-10.813 41.375,-15.084c4.667,-1.375 8.334,-2.375 10.959,-3.041l0.375,-0l2.916,-0.709l0.709,0c2.899,-0.57 5.009,-3.136 5.009,-6.091c-0,-0.431 -0.045,-0.862 -0.134,-1.284c-0.25,-1.102 -0.781,-2.122 -1.542,-2.958c-1.482,-1.599 -3.697,-2.311 -5.833,-1.875c-2.136,0.436 -4.959,1 -13.375,3.458c-29.167,8.334 -101.5,34.042 -178.792,97.625c-99.75,82.042 -207.25,227.5 -238.75,479.167c-3.526,27.248 -5.335,54.691 -5.417,82.167c0,62.5 10.375,116.083 29.167,160.916c12.56,30.168 30.159,57.982 52.042,82.25c3.805,3.889 7.639,7.723 11.5,11.5Z" style="fill-rule:nonzero;"/></g></g></svg>