<?xml version="1.0" encoding="UTF-8" standalone="no"?><!DOCTYPE svg PUBLIC "-//W3C//DTD SVG 1.1//EN" "http://www.w3.org/Graphics/SVG/1.1/DTD/svg11.dtd"><svg width="100%" height="100%" viewBox="0 0 1200 300" version="1.1" xmlns="http://www.w3.org/2000/svg" xmlns:xlink="http://www.w3.org/1999/xlink" xml:space="preserve" xmlns:serif="http://www.serif.com/" style="fill-rule:evenodd;clip-rule:evenodd;stroke-linejoin:round;stroke-miterlimit:2;"><g><path d="M1025.99,186.992c-0,39.987 -23.327,53.317 -51.318,53.317c-11.33,-0 -22.66,-2.673 -33.323,-7.338l5.332,-18.661c8.664,4.665 17.994,7.338 27.991,7.338c15.329,0.66 28.658,-11.33 29.324,-26.659l0,-8.67c-7.331,7.997 -17.994,12.662 -29.324,12.662c-25.325,0 -44.653,-19.993 -44.653,-49.318c0,-27.991 17.995,-49.311 44.653,-49.311c11.33,-0.673 21.993,3.999 29.324,12.656l0,-9.997l21.327,0l0.667,83.981Zm-20.661,-37.329c0,-19.32 -12.662,-29.99 -26.658,-29.99c-16.662,-0 -26.659,13.329 -26.659,29.99c0,16.662 10.664,29.991 26.659,29.991c14.662,0 26.658,-11.323 26.658,-29.991Zm-257.254,0c0,17.995 11.33,29.991 26.659,29.991c13.995,0 26.658,-9.997 26.658,-29.991c0,-19.994 -11.996,-29.99 -26.658,-29.99c-15.995,-0 -26.659,12.662 -26.659,29.99Zm51.318,-46.652l21.993,0l0,93.978l-21.327,-0l-0.666,-9.997c-7.998,7.997 -17.995,11.989 -29.324,12.656c-25.326,-0 -44.653,-20.66 -44.653,-49.312c-0,-30.663 20.66,-49.318 44.653,-49.318c11.329,0 21.993,3.992 29.324,12.663l-0,-10.67Zm103.301,-44.653c-7.331,0 -13.329,6.005 -13.329,13.329c0,7.331 5.998,13.33 13.329,13.33c7.331,-0 13.33,-5.999 13.33,-13.33c-0,-7.99 -5.999,-13.989 -13.33,-13.329Zm11.323,138.631l-21.986,-0l-0,-93.978l21.986,0l0,93.978Zm-46.645,-0l-21.993,-0l-0,-136.625l21.993,0l-0,136.625Zm183.277,-93.978l20.66,0l0.666,8.664c5.999,-7.324 14.663,-11.323 23.993,-11.323c22.66,-0 35.322,13.996 35.322,38.648l0,57.316l-21.326,-0l-0,-57.316c0.666,-9.997 -6.665,-19.327 -17.328,-19.994c-9.997,-0.666 -19.328,6.665 -19.994,17.328l-0,59.982l-21.327,-0l-0.666,-93.305Z" style="fill:#313e9c;fill-rule:nonzero;"/><path d="M419.505,103.011l20.654,0l-0,8.664c6.005,-7.324 14.669,-11.323 24.665,-11.323c21.327,-0 35.316,13.996 35.316,38.648l0,57.316l-21.32,-0l0,-55.976c1.326,-9.997 -5.998,-19.994 -15.995,-21.334c-9.997,-1.326 -19.994,5.998 -21.327,15.995l0,61.315l-21.993,-0l0,-93.305Zm200.598,-44.653c-7.324,0 -13.329,6.005 -13.329,13.329c-0,7.331 6.005,13.33 13.329,13.33c7.338,-0 13.329,-5.999 13.329,-13.33c0,-7.99 -5.991,-13.989 -13.329,-13.329Zm10.67,138.631l-21.327,-0l0,-93.978l21.327,0l0,93.978Zm-246.597,-138.631c-7.331,0 -13.329,6.005 -13.329,13.329c-0,7.331 5.998,13.33 13.329,13.33c7.338,-0 13.329,-5.999 13.329,-13.33c0,-7.99 -5.991,-13.989 -13.329,-13.329Zm10.67,138.631l-21.333,-0l-0,-93.978l21.333,0l0,93.978Zm255.248,-21.994c7.338,3.993 16.002,6.665 24.666,7.325c10.656,-0 15.322,-4.665 15.322,-10.657c-0,-6.005 -3.993,-9.997 -15.322,-13.995c-18.661,-6.005 -25.999,-16.002 -25.999,-27.325c0,-16.662 13.329,-29.991 35.329,-29.991c8.664,-0 17.328,1.993 25.326,5.991l-4.666,16.662c-6.004,-3.332 -12.669,-5.325 -19.993,-5.325c-8.664,-0 -13.996,3.992 -13.996,9.997c-0,5.998 4.658,9.33 16.661,13.329c17.328,5.998 24.659,14.655 25.326,28.651c-0,17.335 -12.669,29.324 -37.988,29.324c-9.997,0 -19.994,-1.992 -28.658,-6.664l3.992,-17.322Zm-121.289,-71.984l24.652,56.649l23.993,-56.649l23.999,0l-48.652,100.642l-47.985,-100.642l23.993,0Z" style="fill:#313e9c;fill-rule:nonzero;"/><path d="M177.913,209.645c-5.225,-0.027 -10.443,-0.693 -15.662,-2c-0.013,0.054 -0.027,0.107 -0.04,0.154c-0.206,-0.047 -0.42,-0.1 -0.626,-0.154c2.659,-11.329 7.997,-21.993 15.988,-30.65c8.004,8.657 13.329,19.321 15.995,30.65c-5.218,1.307 -10.437,1.973 -15.655,2Zm28.984,-7.331c-5.998,-9.997 -9.33,-21.327 -9.997,-33.323c12.003,-0 23.327,3.998 33.323,9.997c-5.325,9.997 -13.329,18.001 -23.326,23.326Zm-58.642,-0.66c-9.33,-5.338 -17.334,-13.329 -22.659,-22.666c9.33,-5.999 20.66,-9.331 32.656,-9.997c0,11.996 -4.005,23.326 -9.997,32.663Zm87.307,-35.996c-11.337,-2.665 -22,-7.99 -30.657,-15.995c8.657,-7.331 19.32,-13.329 30.657,-15.988c1.333,5.332 1.999,10.663 1.999,15.988c0,5.332 -0.666,10.664 -1.999,15.995Zm-115.338,-0.14c-2.619,-10.563 -2.619,-21.126 0,-31.696c11.09,2.712 21.527,7.99 30.024,15.841c-8.511,7.865 -18.308,13.143 -30.024,15.855Zm77.343,-35.175c-0,-11.337 3.332,-23.327 9.997,-32.657c9.33,5.325 17.334,13.329 22.659,22.66c-9.996,5.991 -21.32,9.997 -32.656,9.997Zm-39.315,-0c-11.336,-0 -22.659,-4.006 -33.323,-9.997c0.054,-0.107 0.114,-0.207 0.174,-0.314c0.166,0.107 0.326,0.207 0.493,0.314c5.298,-9.277 13.229,-17.235 22.493,-22.567c6.331,9.811 9.51,20.867 10.163,32.564Zm19.321,-8.005c-7.991,-8.657 -13.329,-19.327 -15.988,-30.657c5.331,-1.333 10.663,-1.999 15.995,-1.999c5.331,-0 10.663,0.666 15.988,1.999c-2.666,11.33 -7.991,22 -15.995,30.657Z" style="fill:#313e9c;fill-rule:nonzero;"/><path d="M100.93,203.653c-8.657,13.33 -15.322,27.319 -19.321,42.647c15.322,-3.999 29.318,-10.663 42.647,-19.321c-9.324,-6.664 -17.328,-14.002 -23.326,-23.326Zm60.655,38.648c3.332,15.329 8.657,29.991 16.661,43.987c7.998,-13.329 13.329,-28.658 16.662,-43.987c-11.337,2 -22.66,2 -33.323,0Zm-37.329,-168.608c-13.329,-8.67 -27.325,-15.335 -42.647,-19.993c3.999,15.322 10.664,29.317 19.321,42.646c5.998,-9.323 14.002,-17.328 23.326,-22.653Zm145.955,92.632c15.335,-3.332 29.991,-8.657 43.987,-16.662c-13.33,-7.331 -28.652,-13.329 -43.987,-15.988c2.006,10.663 2.006,21.986 0,32.65Zm-184.603,-32.65c-15.335,3.332 -30.664,8.657 -43.986,15.988c13.322,8.005 28.651,13.33 43.986,16.662c-2.006,-10.664 -2.006,-21.987 0,-32.65Zm145.955,93.304c13.329,8.658 27.325,15.322 42.647,19.321c-3.999,-15.328 -10.663,-29.317 -19.321,-42.647c-6.664,9.324 -14.002,16.662 -23.326,23.326Zm-37.328,-169.281c-3.333,-15.335 -8.658,-30.657 -16.662,-43.986c-7.991,13.329 -13.329,28.651 -15.988,43.986c5.325,-0.666 10.663,-1.333 16.661,-1.333c5.325,-0.673 10.664,0 15.989,1.333Zm37.328,15.329c13.329,-8.664 27.325,-15.329 42.647,-19.327c-3.999,15.322 -10.663,29.317 -19.321,42.646c-6.664,-9.323 -14.002,-17.328 -23.326,-23.319Z" style="fill:#313e9c;fill-rule:nonzero;"/><path d="M178.12,243.801c-5.459,-0.007 -10.917,-0.507 -16.535,-1.5c-1.34,-5.325 -1.34,-11.329 -1.34,-16.661c0,-5.945 0.66,-11.89 1.966,-17.841c5.125,1.233 10.244,1.846 15.369,1.846l0.666,-0c5.325,-0 10.657,-0.667 15.989,-2c0.673,6.005 1.339,11.997 2.006,17.995c-0,5.332 -0.667,11.336 -1.333,16.661c-5.625,0.993 -11.25,1.493 -16.788,1.5Zm-53.864,-16.162c-0.16,-0.113 -0.32,-0.233 -0.48,-0.346c0.16,-0.107 0.32,-0.214 0.48,-0.314c-9.21,-6.584 -17.128,-13.822 -23.099,-22.979c3.259,-4.559 6.531,-9.104 10.443,-13.016c3.999,-4.665 8.657,-7.998 13.996,-11.33c5.325,9.331 13.329,17.335 22.659,22.66c-2.665,5.331 -6.664,9.997 -10.67,14.669c-3.998,3.992 -8.657,7.324 -13.329,10.656Zm107.64,-0.899c-4.558,-3.253 -9.097,-6.525 -12.996,-10.431c-4.672,-3.998 -8.004,-8.664 -11.336,-13.995c9.33,-5.325 17.334,-13.329 22.659,-22.66c5.339,2.666 9.997,6.665 14.669,10.67c3.999,3.992 7.331,8.657 10.664,13.329c-0.12,0.16 -0.24,0.32 -0.354,0.487c-0.106,-0.167 -0.213,-0.327 -0.313,-0.487c-6.591,9.211 -13.822,16.482 -22.993,23.087Zm-129.626,-58.409c-5.339,-0 -11.337,-0 -16.662,-1.333c-0.047,-0.233 -0.087,-0.467 -0.12,-0.7c0.04,0.007 0.08,0.02 0.12,0.027c-1,-5.319 -1.499,-10.804 -1.506,-16.282c0.007,-5.571 0.506,-11.05 1.506,-16.368c5.325,-1.34 10.664,-2.006 16.662,-2.006c5.991,-0 11.989,0.666 17.987,2.006c-0.013,0.047 -0.02,0.1 -0.033,0.147c-0.213,-0.054 -0.42,-0.1 -0.626,-0.147c-2.673,10.663 -2.673,21.32 -0,31.983c0.206,-0.046 0.42,-0.093 0.626,-0.14c0.013,0.047 0.027,0.094 0.033,0.14c-5.998,2 -11.996,2.673 -17.987,2.673Zm151.28,-0.673c-5.999,-0 -11.99,-0.66 -17.988,-2c1.333,-5.331 1.999,-10.663 1.999,-15.995c0,-5.325 -0.666,-10.656 -1.999,-15.988c4.385,-0.98 8.777,-1.6 13.169,-1.6c1.606,0 3.212,0.087 4.819,0.26c5.338,0 11.336,0 16.661,1.34c1,5.332 1.506,10.83 1.506,16.322c0,5.498 -0.506,10.996 -1.506,16.328c-5.325,0.673 -11.323,1.333 -16.661,1.333Zm-23.327,-47.312c-5.325,-9.331 -13.329,-17.335 -22.659,-22.66c2.666,-5.338 6.664,-9.997 10.67,-14.669c3.999,-3.999 8.657,-7.331 13.329,-10.663c0.16,0.12 0.32,0.233 0.487,0.353c-0.167,0.107 -0.327,0.213 -0.487,0.32c9.217,5.925 16.482,13.802 23.086,22.986c-3.252,4.559 -6.524,9.097 -10.43,12.996c-3.999,4.672 -8.657,8.004 -13.996,11.337Zm-105.12,-0.314c-5.132,-3.225 -9.651,-6.478 -14.176,-10.356c-3.999,-3.999 -7.331,-8.658 -10.663,-13.33c0.12,-0.16 0.233,-0.319 0.353,-0.486c0.106,0.167 0.213,0.326 0.313,0.486c5.998,-9.323 14.002,-17.328 23.326,-22.653c-0.28,-0.186 -0.56,-0.366 -0.84,-0.546c0.06,-0.04 0.12,-0.08 0.174,-0.12c4.672,3.332 9.337,6.665 13.329,10.663c4.672,3.999 8.004,8.658 11.336,13.996c-0.06,0.027 -0.113,0.06 -0.166,0.093c-0.167,-0.253 -0.333,-0.506 -0.507,-0.759c-9.223,5.271 -17.148,13.802 -22.479,23.012Zm68.465,-28.351c-5.325,-1.333 -10.657,-1.999 -15.988,-1.999c-5.332,-0 -10.664,0.666 -15.995,1.999c-1.34,-5.331 -2.666,-11.323 -2,-17.988c0,-5.338 0,-11.336 1.327,-16.661c0.273,-0.053 0.539,-0.1 0.813,-0.14c-0.047,0.267 -0.094,0.533 -0.14,0.806c5.325,-0.666 10.663,-1.333 16.661,-1.333c1.426,-0.18 2.853,-0.266 4.286,-0.266c3.898,-0 7.804,0.62 11.703,1.599c-0.047,-0.233 -0.1,-0.466 -0.147,-0.693c0.047,0.007 0.1,0.014 0.147,0.027c0.673,5.325 1.339,11.323 1.339,16.661c0,5.999 -0.666,11.99 -2.006,17.988Z" style="fill:#313e9c;fill-rule:nonzero;"/><path d="M177.58,209.645c-5.125,-0 -10.244,-0.613 -15.369,-1.846c0.013,-0.047 0.027,-0.1 0.04,-0.154c5.219,1.307 10.437,1.973 15.662,2l-0.333,-0Zm-57.982,-43.987c-2.673,-10.663 -2.673,-21.32 -0,-31.983c0.206,0.047 0.413,0.093 0.626,0.147c-2.619,10.57 -2.619,21.133 0,31.696c-0.206,0.047 -0.42,0.094 -0.626,0.14Zm117.963,-15.995c0,-5.325 -0.666,-10.656 -1.999,-15.988c1.333,5.332 1.999,10.663 1.999,15.988Zm-7.338,-29.317c-5.325,-9.331 -13.329,-17.335 -22.659,-22.66c9.33,5.325 17.334,13.329 22.659,22.66Zm-104.627,-0c-0.167,-0.107 -0.327,-0.207 -0.493,-0.314c5.331,-9.21 13.256,-17.741 22.479,-23.012c0.174,0.253 0.34,0.506 0.507,0.759c-9.264,5.332 -17.195,13.29 -22.493,22.567Zm67.972,-28.665c-5.325,-1.333 -10.657,-1.999 -15.988,-1.999c-5.332,-0 -10.664,0.666 -15.995,1.999c5.331,-1.333 10.663,-1.999 15.995,-1.999c5.331,-0 10.663,0.666 15.988,1.999Z" style="fill:#313e9c;fill-rule:nonzero;"/><path d="M178.246,243.801l-0.126,-0c5.538,-0.007 11.163,-0.507 16.788,-1.5c-5.672,1 -11.17,1.5 -16.662,1.5Zm-54.47,-16.508c-9.104,-6.572 -16.295,-13.809 -22.846,-22.98c0.08,-0.107 0.153,-0.206 0.227,-0.313c5.971,9.157 13.889,16.395 23.099,22.979c-0.16,0.1 -0.32,0.207 -0.48,0.314Zm108.454,-0.314c-0.114,-0.08 -0.227,-0.16 -0.334,-0.239c9.171,-6.605 16.402,-13.876 22.993,-23.087c0.1,0.16 0.207,0.32 0.313,0.487c-6.571,9.09 -13.809,16.288 -22.972,22.839Zm37.981,-60.654c1,-5.332 1.506,-10.83 1.506,-16.328c0,5.498 -0.506,10.996 -1.506,16.328Zm-184.603,-0c-0.04,-0.007 -0.08,-0.02 -0.12,-0.027c-0.926,-5.445 -1.386,-10.89 -1.386,-16.255c0.007,5.478 0.506,10.963 1.506,16.282Zm15.322,-69.979c-0.1,-0.16 -0.207,-0.319 -0.313,-0.486c6.531,-9.037 13.716,-16.195 22.799,-22.713c0.28,0.18 0.56,0.36 0.84,0.546c-9.324,5.325 -17.328,13.33 -23.326,22.653Zm153.719,-0.333c-6.604,-9.184 -13.869,-17.061 -23.086,-22.986c0.16,-0.107 0.32,-0.213 0.487,-0.32c9.097,6.571 16.288,13.809 22.839,22.973c-0.08,0.113 -0.16,0.227 -0.24,0.333Zm-60.414,-38.315c-3.899,-0.979 -7.805,-1.599 -11.703,-1.599c-1.433,-0 -2.86,0.086 -4.286,0.266c-5.998,0 -11.336,0.667 -16.661,1.333c0.046,-0.273 0.093,-0.539 0.14,-0.806c5.378,-0.913 10.616,-1.366 15.855,-1.366c5.445,-0 10.896,0.493 16.508,1.479c0.047,0.227 0.1,0.46 0.147,0.693Z" style="fill:#313e9c;fill-rule:nonzero;"/><g><text x="1131.09px" y="101.725px" style="font-family:'ArialMT', 'Arial', sans-serif;font-size:59.636px;fill:#313e9c;">®</text></g></g></svg>