<?xml version="1.0" encoding="UTF-8" standalone="no"?><!DOCTYPE svg PUBLIC "-//W3C//DTD SVG 1.1//EN" "http://www.w3.org/Graphics/SVG/1.1/DTD/svg11.dtd"><svg width="100%" height="100%" viewBox="0 0 180 45" version="1.1" xmlns="http://www.w3.org/2000/svg" xmlns:xlink="http://www.w3.org/1999/xlink" xml:space="preserve" xmlns:serif="http://www.serif.com/" style="fill-rule:evenodd;clip-rule:evenodd;stroke-linejoin:round;stroke-miterlimit:2;"><rect id="Logo-light" serif:id="Logo light" x="0" y="0" width="180" height="45" style="fill:none;"/><g id="Dental-Fiume-logo" serif:id="Dental Fiume logo"><path d="M21.191,38.301l-13.022,0l0,-1.241l0.894,-0c1.351,-0 2.244,-0.283 2.679,-0.85c0.436,-0.566 0.653,-1.62 0.653,-3.16l0,-15.41c0,-1.07 -0.091,-1.888 -0.275,-2.454c-0.183,-0.567 -0.506,-0.968 -0.97,-1.203c-0.464,-0.236 -1.16,-0.354 -2.087,-0.354l-0.894,0l0,-1.222l13.022,0l0,1.222l-0.721,0c-0.882,0 -1.555,0.115 -2.019,0.344c-0.464,0.229 -0.793,0.634 -0.988,1.213c-0.195,0.579 -0.292,1.397 -0.292,2.454l0,15.41c0,1.057 0.097,1.875 0.292,2.454c0.195,0.579 0.524,0.983 0.988,1.212c0.464,0.229 1.137,0.344 2.019,0.344l0.721,-0l0,1.241Z" style="fill:#cee4fa;fill-rule:nonzero;"/><g><clipPath id="_clip1"><path d="M21.896,12.407c0,0 -0.033,1.222 0,1.222c2.004,0 10.273,2.426 10.012,11.821c-0.262,9.394 -7.168,11.423 -10.012,11.61l0,1.241l1.198,0c3.184,0 5.847,-0.639 7.989,-1.919c2.141,-1.279 3.716,-2.915 4.724,-4.908c1.008,-1.992 1.512,-4.038 1.512,-6.139c0,-1.553 -0.269,-3.093 -0.807,-4.621c-0.539,-1.528 -1.352,-2.915 -2.44,-4.163c-1.088,-1.247 -2.474,-2.25 -4.157,-3.008c-1.684,-0.757 -3.637,-1.136 -5.858,-1.136l-2.161,0Z"/></clipPath><g clip-path="url(#_clip1)"><path d="M10.248,25.354l15.889,-17.661l15.925,17.701l-15.889,17.661l-15.925,-17.701Z" style="fill:#cee4fa;fill-rule:nonzero;"/></g></g><path d="M11.491,8.62c-0.027,-0.144 -0.066,-0.298 -0.118,-0.461c-0.053,-0.163 -0.116,-0.341 -0.191,-0.535c-0.107,0.415 -0.213,0.745 -0.319,0.989c-0.106,0.244 -0.216,0.429 -0.329,0.556c-0.112,0.126 -0.229,0.207 -0.349,0.24c-0.12,0.034 -0.243,0.051 -0.37,0.051c-0.148,0 -0.287,-0.03 -0.417,-0.091c-0.129,-0.061 -0.244,-0.141 -0.345,-0.241c-0.101,-0.099 -0.184,-0.209 -0.248,-0.328c-0.065,-0.12 -0.106,-0.239 -0.122,-0.356c-0.028,-0.204 0,-0.381 0.084,-0.532c0.083,-0.151 0.22,-0.227 0.409,-0.227c0.164,-0 0.308,0.06 0.432,0.179c0.125,0.12 0.2,0.28 0.227,0.478c0.004,0.027 0.002,0.062 -0.005,0.105c-0.007,0.043 -0.015,0.086 -0.024,0.129c-0.009,0.043 -0.017,0.084 -0.025,0.122c-0.008,0.038 -0.011,0.067 -0.008,0.085c-0.001,-0.009 0.007,-0.014 0.026,-0.014c0.104,0 0.205,-0.051 0.303,-0.152c0.097,-0.102 0.192,-0.271 0.284,-0.509c0.093,-0.237 0.185,-0.549 0.277,-0.935c0.092,-0.386 0.187,-0.861 0.285,-1.426l0.468,-0c0.007,0.049 0.022,0.122 0.047,0.217c0.024,0.094 0.053,0.198 0.087,0.311c0.034,0.113 0.07,0.227 0.108,0.342c0.038,0.116 0.075,0.221 0.11,0.316c0.093,-0.38 0.173,-0.708 0.239,-0.986c0.066,-0.278 0.123,-0.515 0.17,-0.712c0.048,-0.196 0.086,-0.358 0.116,-0.485c0.029,-0.126 0.053,-0.23 0.071,-0.311c0.019,-0.082 0.033,-0.145 0.044,-0.19c0.011,-0.045 0.021,-0.086 0.031,-0.122l0.468,0c0.021,0.154 0.079,0.391 0.173,0.712c0.094,0.32 0.226,0.72 0.396,1.199c0.17,-0.574 0.344,-1.081 0.52,-1.521c0.176,-0.441 0.338,-0.821 0.488,-1.142l0.468,-0c0.024,0.257 0.052,0.499 0.083,0.725c0.045,0.33 0.096,0.637 0.151,0.922c0.056,0.284 0.112,0.567 0.169,0.847c0.337,-0.66 0.62,-1.167 0.846,-1.522c0.227,-0.354 0.383,-0.559 0.469,-0.613l0.418,0c0.004,0.411 0.017,0.842 0.037,1.291c0.021,0.449 0.051,0.9 0.091,1.352c0.113,-0.149 0.254,-0.331 0.421,-0.546c0.168,-0.214 0.36,-0.457 0.576,-0.728l0.469,-0c-0.042,0.348 -0.063,0.698 -0.063,1.05c-0,0.353 0.017,0.712 0.052,1.078c0.1,-0.091 0.198,-0.171 0.297,-0.241c0.098,-0.07 0.193,-0.129 0.285,-0.176c0.092,-0.047 0.176,-0.082 0.251,-0.105c0.075,-0.023 0.137,-0.034 0.185,-0.034c0.04,0.154 0.08,0.333 0.121,0.539c0.041,0.206 0.089,0.401 0.144,0.586c0.056,0.185 0.119,0.342 0.19,0.471c0.072,0.129 0.158,0.193 0.258,0.193c0.131,0 0.191,-0.036 0.181,-0.108c-0.006,-0.041 -0.032,-0.104 -0.079,-0.19c-0.047,-0.086 -0.077,-0.176 -0.09,-0.271c-0.024,-0.172 0.005,-0.319 0.085,-0.441c0.08,-0.122 0.198,-0.183 0.354,-0.183c0.186,0 0.345,0.069 0.477,0.207c0.133,0.138 0.217,0.338 0.253,0.6c0.019,0.145 0.008,0.282 -0.033,0.413c-0.042,0.131 -0.111,0.245 -0.207,0.342c-0.097,0.098 -0.218,0.176 -0.364,0.234c-0.147,0.059 -0.315,0.088 -0.504,0.088c-0.35,0 -0.64,-0.111 -0.872,-0.335c-0.231,-0.224 -0.405,-0.582 -0.521,-1.074c-0.134,0.131 -0.249,0.282 -0.342,0.454c-0.094,0.171 -0.166,0.357 -0.217,0.556l-0.446,-0c-0.045,-0.19 -0.081,-0.369 -0.11,-0.536c-0.028,-0.167 -0.053,-0.33 -0.075,-0.488c-0.022,-0.158 -0.04,-0.316 -0.056,-0.474c-0.017,-0.158 -0.032,-0.319 -0.047,-0.481c-0.198,0.289 -0.373,0.55 -0.523,0.782c-0.151,0.233 -0.272,0.444 -0.365,0.634l-0.458,0l-0.19,-2.568c-0.14,0.248 -0.292,0.536 -0.453,0.864c-0.162,0.327 -0.33,0.706 -0.506,1.135l-0.435,-0l-0.502,-2.196c-0.036,0.086 -0.078,0.198 -0.126,0.336c-0.049,0.137 -0.098,0.29 -0.147,0.457c-0.05,0.167 -0.098,0.341 -0.146,0.522c-0.048,0.181 -0.089,0.355 -0.124,0.522c-0.035,0.167 -0.062,0.319 -0.08,0.457c-0.018,0.138 -0.026,0.247 -0.022,0.329l-0.463,-0c-0.116,-0.362 -0.209,-0.651 -0.278,-0.868c-0.068,-0.217 -0.124,-0.39 -0.166,-0.521c-0.042,-0.131 -0.077,-0.234 -0.103,-0.309c-0.027,-0.074 -0.057,-0.148 -0.089,-0.22c-0.111,0.578 -0.226,1.071 -0.345,1.477c-0.119,0.407 -0.229,0.744 -0.33,1.01l-0.447,0Z" style="fill:#cee4fa;fill-rule:nonzero;"/><rect x="96.506" y="40.244" width="80.537" height="1.381" style="fill:#cee4fa;"/><circle cx="5.007" cy="19.544" r="2.05" style="fill:#cee4fa;"/><circle cx="5.007" cy="31.21" r="2.05" style="fill:#cee4fa;"/><g><path d="M38.409,31.981c-0,-1.054 0.161,-1.976 0.485,-2.766c0.324,-0.791 0.749,-1.449 1.276,-1.976c0.527,-0.527 1.133,-0.926 1.818,-1.197c0.685,-0.271 1.389,-0.407 2.112,-0.407c1.686,0 3.019,0.516 3.997,1.547c0.979,1.031 1.468,2.548 1.468,4.551c0,0.196 -0.007,0.41 -0.022,0.644c-0.015,0.233 -0.03,0.44 -0.045,0.621l-7.634,-0c0.075,0.692 0.399,1.242 0.971,1.648c0.572,0.407 1.34,0.61 2.304,0.61c0.617,0 1.223,-0.056 1.818,-0.169c0.595,-0.113 1.08,-0.252 1.457,-0.418l0.451,2.733c-0.18,0.09 -0.421,0.18 -0.722,0.271c-0.301,0.09 -0.636,0.169 -1.005,0.237c-0.369,0.068 -0.764,0.124 -1.186,0.169c-0.422,0.045 -0.843,0.068 -1.265,0.068c-1.069,-0 -1.999,-0.158 -2.789,-0.474c-0.79,-0.316 -1.445,-0.749 -1.965,-1.299c-0.519,-0.549 -0.903,-1.201 -1.152,-1.953c-0.248,-0.753 -0.372,-1.566 -0.372,-2.44Zm7.904,-1.287c-0.015,-0.286 -0.064,-0.565 -0.147,-0.836c-0.082,-0.271 -0.21,-0.512 -0.383,-0.722c-0.174,-0.211 -0.392,-0.384 -0.655,-0.52c-0.264,-0.135 -0.591,-0.203 -0.983,-0.203c-0.376,-0 -0.7,0.064 -0.971,0.192c-0.271,0.128 -0.497,0.297 -0.678,0.508c-0.18,0.211 -0.319,0.456 -0.417,0.734c-0.098,0.279 -0.17,0.561 -0.215,0.847l4.449,0Z" style="fill:#cee4fa;fill-rule:nonzero;"/><path d="M52.163,26.358c0.572,-0.166 1.31,-0.32 2.213,-0.463c0.903,-0.143 1.852,-0.215 2.846,-0.215c1.009,0 1.848,0.132 2.518,0.395c0.67,0.264 1.201,0.637 1.592,1.118c0.392,0.482 0.67,1.054 0.836,1.717c0.165,0.662 0.248,1.4 0.248,2.213l0,6.708l-3.365,-0l0,-6.301c0,-1.084 -0.143,-1.852 -0.429,-2.304c-0.286,-0.452 -0.821,-0.678 -1.604,-0.678c-0.24,0 -0.496,0.012 -0.767,0.034c-0.271,0.023 -0.512,0.049 -0.723,0.079l-0,9.17l-3.365,-0l-0,-11.473Z" style="fill:#cee4fa;fill-rule:nonzero;"/><path d="M65.352,22.993l3.365,-0.542l0,3.5l4.043,0l0,2.801l-4.043,-0l0,4.178c0,0.708 0.125,1.272 0.373,1.694c0.248,0.421 0.749,0.632 1.502,0.632c0.361,0 0.734,-0.034 1.118,-0.101c0.384,-0.068 0.734,-0.162 1.05,-0.283l0.474,2.62c-0.406,0.166 -0.858,0.309 -1.355,0.429c-0.497,0.121 -1.106,0.181 -1.829,0.181c-0.919,-0 -1.679,-0.124 -2.281,-0.373c-0.602,-0.248 -1.084,-0.595 -1.446,-1.039c-0.361,-0.444 -0.613,-0.982 -0.756,-1.615c-0.143,-0.632 -0.215,-1.332 -0.215,-2.1l0,-9.982Z" style="fill:#cee4fa;fill-rule:nonzero;"/><path d="M79.581,35.482c0.331,-0 0.647,-0.008 0.948,-0.023c0.301,-0.015 0.542,-0.037 0.723,-0.067l-0,-2.552c-0.136,-0.031 -0.339,-0.061 -0.61,-0.091c-0.271,-0.03 -0.519,-0.045 -0.745,-0.045c-0.316,0 -0.614,0.019 -0.892,0.057c-0.279,0.037 -0.524,0.109 -0.734,0.214c-0.211,0.105 -0.377,0.249 -0.497,0.429c-0.121,0.181 -0.181,0.407 -0.181,0.678c0,0.527 0.177,0.892 0.531,1.095c0.354,0.203 0.839,0.305 1.457,0.305Zm-0.271,-9.847c0.993,0 1.821,0.113 2.484,0.339c0.662,0.226 1.193,0.549 1.592,0.971c0.399,0.422 0.681,0.933 0.847,1.536c0.166,0.602 0.249,1.272 0.249,2.01l-0,7.001c-0.482,0.105 -1.152,0.23 -2.011,0.373c-0.858,0.143 -1.897,0.214 -3.116,0.214c-0.768,0 -1.464,-0.068 -2.089,-0.203c-0.625,-0.136 -1.163,-0.358 -1.615,-0.666c-0.452,-0.309 -0.798,-0.712 -1.039,-1.209c-0.241,-0.496 -0.361,-1.106 -0.361,-1.829c-0,-0.693 0.139,-1.28 0.417,-1.762c0.279,-0.481 0.652,-0.865 1.118,-1.151c0.467,-0.286 1.002,-0.493 1.604,-0.621c0.602,-0.128 1.227,-0.192 1.874,-0.192c0.437,-0 0.825,0.018 1.164,0.056c0.338,0.038 0.613,0.087 0.824,0.147l-0,-0.316c-0,-0.572 -0.173,-1.032 -0.52,-1.378c-0.346,-0.346 -0.948,-0.519 -1.806,-0.519c-0.572,-0 -1.137,0.041 -1.694,0.124c-0.557,0.083 -1.039,0.199 -1.446,0.35l-0.429,-2.71c0.196,-0.061 0.441,-0.125 0.734,-0.192c0.294,-0.068 0.614,-0.128 0.96,-0.181c0.346,-0.053 0.712,-0.098 1.095,-0.135c0.384,-0.038 0.772,-0.057 1.164,-0.057Z" style="fill:#cee4fa;fill-rule:nonzero;"/><path d="M92.273,38.057c-0.978,-0.015 -1.773,-0.121 -2.382,-0.317c-0.61,-0.195 -1.092,-0.47 -1.446,-0.824c-0.354,-0.354 -0.595,-0.783 -0.723,-1.287c-0.128,-0.505 -0.192,-1.073 -0.192,-1.705l0,-13.077l3.366,-0.542l-0,12.941c-0,0.301 0.022,0.572 0.067,0.813c0.045,0.241 0.132,0.444 0.26,0.61c0.128,0.166 0.312,0.301 0.553,0.406c0.241,0.106 0.565,0.174 0.972,0.204l-0.475,2.778Z" style="fill:#cee4fa;fill-rule:nonzero;"/></g><g transform="matrix(22.6272,0,0,22.6272,171.338,37.8302)"></g><text x="101.193px" y="37.83px" style="font-family:'Ubuntu-Bold', 'Ubuntu', sans-serif;font-weight:700;font-size:22.627px;fill:#cee4fa;">FIUME</text></g></svg>