<?xml version="1.0" encoding="UTF-8" standalone="no"?><!DOCTYPE svg PUBLIC "-//W3C//DTD SVG 1.1//EN" "http://www.w3.org/Graphics/SVG/1.1/DTD/svg11.dtd"><svg width="100%" height="100%" viewBox="0 0 1875 419" version="1.1" xmlns="http://www.w3.org/2000/svg" xmlns:xlink="http://www.w3.org/1999/xlink" xml:space="preserve" xmlns:serif="http://www.serif.com/" style="fill-rule:evenodd;clip-rule:evenodd;stroke-linejoin:round;stroke-miterlimit:2;"><path d="M947.5,23.133l-192.5,175.937l81.875,0l127.813,-133.437c6.25,-6.25 14.687,-10 24.375,-10c19.062,0 34.375,15.312 34.375,34.375c0,9.375 -3.75,18.125 -10,24.375c19.062,0 34.375,15.312 34.375,34.375c-0.001,19.062 -15.313,34.375 -34.376,34.375l-131.25,0l-16.562,15.937l210.625,0c28.438,0 51.875,-23.125 51.875,-51.562c0,-23.125 -15.625,-43.125 -36.563,-49.688c0.626,-4.375 0.938,-8.75 0.938,-13.125c0,-46.875 -38.125,-84.687 -84.687,-84.687c-22.813,-0.313 -45,8.75 -60.313,23.125" style="fill:#313e9c;fill-rule:nonzero;"/><path d="M305.625,340.008c-7.5,-7.813 -11.875,-18.75 -11.875,-30.313c0,-24.687 20,-44.687 44.688,-44.687l105,0l0,28.437l-106.563,0c-9.063,0 -16.25,7.188 -16.25,16.25c0,9.063 7.188,16.25 16.25,16.25l106.563,0l0,28.125l-106.563,0c-9.063,0 -16.25,7.5 -16.25,16.25c0,8.75 7.188,16.25 16.25,16.25l106.563,0l0,28.125l-105,0c-24.688,0 -44.688,-20 -44.688,-44.687c0,-11.875 4.063,-21.875 11.875,-30m-95,63.437c8.125,8.125 18.125,11.875 30.625,11.875c24.688,0 44.688,-20 44.688,-44.687l0,-105l-28.125,0l0,106.562c0,9.063 -7.188,16.25 -16.563,16.25c-9.063,0 -16.25,-7.187 -16.25,-16.25l0,-106.562l-28.125,0l0,106.562c0,9.063 -7.188,16.25 -16.25,16.25c-9.063,0 -16.25,-7.187 -16.25,-16.25l0,-106.562l-28.125,0l0,105c0,24.687 20,44.687 44.687,44.687c11.25,0 21.876,-4.687 29.688,-11.875m406.563,-63.437c-8.125,8.125 -11.875,18.437 -11.875,30.625c0,24.687 20,44.687 44.687,44.687l105,0l0,-28.125l-106.563,0c-9.062,0 -16.25,-7.187 -16.25,-16.25c0,-9.062 7.188,-16.25 16.25,-16.25l106.563,0l0,-28.125l-106.563,0c-9.062,0 -16.25,-7.187 -16.25,-16.25c0,-9.062 7.188,-16.25 16.25,-16.25l106.563,0l0,-28.437l-105,0c-24.688,0 -44.688,20 -44.688,44.687c0,10.938 4.375,21.875 11.875,29.688m527.501,-62.5c-8.126,-8.125 -18.126,-11.875 -30.626,-11.875c-24.687,0 -44.687,20 -44.687,44.687l0,105l28.437,0l0,-106.562c0,-9.063 7.188,-16.25 16.25,-16.25c9.063,0 16.25,7.187 16.25,16.25l0,106.562l28.125,0l0,-106.562c0,-9.063 7.188,-16.25 16.25,-16.25c9.063,0 16.25,7.187 16.25,16.25l0,106.562l28.438,0l0,-105.312c0,-24.688 -20,-44.688 -44.688,-44.688c-11.562,0.313 -22.187,4.688 -30,12.188m-378.437,137.812l28.437,0l0,-106.562c0,-9.063 7.188,-16.25 16.25,-16.25c9.063,0 16.25,7.187 16.25,16.25l0,106.562l28.438,0l0,-105.312c0,-24.688 -20,-44.688 -44.688,-44.688c-24.687,0 -44.687,20 -44.687,44.688l0,105.312Zm859.375,0l28.438,0l-0.001,-106.562c0,-9.063 7.188,-16.25 16.25,-16.25c9.063,0 16.25,7.187 16.25,16.25l0,106.562l28.438,0l0,-105.312c0,-24.688 -20,-44.688 -44.688,-44.688c-24.687,0 -44.687,20 -44.687,44.688l0,105.312Zm-1577.5,-106.875c-2.5,-2.5 -11.25,-7.812 -10.938,-11.562c0.313,-3.438 3.125,-3.438 6.25,-3.438l80.938,0l-0,-28.125l-95.625,0c-15.938,0 -28.75,10 -28.75,25.938c-0,6.562 0.937,11.562 8.437,20l67.5,59.062c2.5,2.5 11.25,9.375 11.25,13.125c-0,3.438 -3.125,3.438 -6.25,3.438l-80.937,0l-0,28.437l95.937,0c15.938,0 28.75,-10 28.75,-25.625c-0,-6.562 -1.25,-11.562 -8.75,-20l-67.812,-61.25Zm515,-4.375c-0,-7.187 -5.938,-13.125 -13.125,-13.125l-54.375,0c-7.188,0 -13.125,5.938 -13.125,13.125l-0,72.188c-0,7.187 5.937,13.125 13.125,13.125l67.5,-0.313l-0,-85Zm28.437,-93.125l-0,106.875l-0.312,-26.562l-0,123.437l-110.938,0.313c-14.687,0 -26.25,-11.875 -26.25,-26.25l-0,-97.5c-0,-14.375 11.875,-26.25 24.063,-26.25l85,0l-0,-54.063l28.437,0Zm378.75,185c-10.312,10 -15.312,10.938 -21.562,11.25c-12.5,0.313 -17.813,-10.625 -18.438,-15.312c-2.187,-14.063 12.5,-20.938 17.5,-24.375l22.5,28.437Zm-28.125,-62.5c1.875,-12.187 18.75,-11.25 22.188,-3.125c5.937,13.438 -8.438,20.625 -13.125,22.5c-5.313,-6.25 -10.938,-10 -9.063,-19.375m59.375,81.563l-17.5,-21.563c4.375,-7.5 8.75,-18.125 8.438,-25.625l-11.25,0c-0,5.938 -2.5,12.188 -4.688,16.563l-18.75,-23.125l7.5,-4.688c11.563,-6.875 18.438,-23.437 5,-36.25c-9.375,-8.75 -22.812,-6.875 -30.312,-1.875c-10.938,7.5 -14.063,21.563 -4.063,34.063l5,6.562l-7.5,5c-9.687,6.563 -15.625,14.375 -15,27.813c0.313,10.312 4.375,17.187 13.438,22.5c12.5,7.5 29.062,1.562 30.937,0.625c6.25,-3.438 11.563,-8.75 14.375,-10.938l8.75,10.625l15.625,0l-0,0.313Zm346.875,-60.625l-78.75,0c-9.062,0 -16.25,7.5 -16.25,16.25c-0,9.062 7.188,16.25 16.25,16.25l78.75,0l-0,-32.5Zm-16.25,-89.063c24.688,0 44.688,20 44.688,44.688l-0.313,105.312l-105,0c-24.687,0 -44.687,-20 -44.687,-44.687c-0,-24.688 20,-44.688 44.687,-44.688l76.875,0l-0,-15.937c-0,-9.063 -7.187,-16.25 -16.25,-16.25l-105,0l-0,-28.438l105,0m100.625,0c-24.687,0 -44.687,20 -44.687,44.688l-0,105l28.125,0l-0,-106.563c-0,-9.062 7.187,-16.25 16.25,-16.25l53.125,0l-0,-26.875l-52.813,0Zm145,27.188l-0,-27.188l-54.687,0l-0,-44.375l-28.438,0l-0,149.688c-0,24.687 20,44.687 44.688,44.687l38.75,-0l-0,-26.875l-38.75,-0c-9.063,-0 -16.25,-7.187 -16.25,-16.25l-0,-79.687l54.687,-0Zm9.688,122.5l28.125,-0l-0,-149.688l-28.125,-0l-0,149.688Zm14.375,-159.063c9.375,-0 16.875,-7.5 16.875,-16.875c-0,-9.375 -7.5,-16.875 -16.875,-16.875c-9.375,-0 -16.875,7.5 -16.875,16.875c-0,9.375 7.812,16.875 16.875,16.875m244.687,98.438l-78.75,-0c-9.062,-0 -16.25,7.5 -16.25,16.25c-0,9.062 7.188,16.25 16.25,16.25l78.75,-0l-0,-32.5Zm-16.562,-89.063c24.687,-0 44.687,20 44.687,44.688l-0.312,105.312l-105,-0c-24.688,-0 -44.688,-20 -44.688,-44.687c-0,-24.688 20,-44.688 44.688,-44.688l76.875,-0l-0,-15.937c-0,-9.063 -7.188,-16.25 -16.25,-16.25l-105,-0l-0,-28.438l105,-0" style="fill:#313e9c;fill-rule:nonzero;"/></svg>