<?xml version="1.0" encoding="UTF-8" standalone="no"?><!DOCTYPE svg PUBLIC "-//W3C//DTD SVG 1.1//EN" "http://www.w3.org/Graphics/SVG/1.1/DTD/svg11.dtd"><svg width="100%" height="100%" viewBox="0 0 5556 1256" version="1.1" xmlns="http://www.w3.org/2000/svg" xmlns:xlink="http://www.w3.org/1999/xlink" xml:space="preserve" xmlns:serif="http://www.serif.com/" style="fill-rule:evenodd;clip-rule:evenodd;stroke-linejoin:round;stroke-miterlimit:2;"><g><g><g><g><g><g><path d="M1260.33,391.914c-59.817,0 -90.094,24.148 -90.094,73.001c0,24.856 9.33,41.94 28.737,51.28c15.526,8.546 39.598,12.465 72.963,12.465c11.673,0 31.911,-0.793 59.005,-2.436c27.207,-1.492 48.192,-2.191 62.924,-2.191c56.729,-0 98.64,9.255 127.415,27.916c37.237,24.865 55.908,68.297 55.908,131.24c-0,61.328 -17.84,104.854 -53.632,132.024c-31.051,23.317 -78.411,34.904 -141.298,34.904l-312.23,0l0,-99.31l293.57,-0c28.765,-0 49.702,-3.155 62.923,-10.134c18.624,-10.105 27.992,-27.198 27.992,-52.857c-0,-26.414 -10.898,-45.018 -32.657,-55.038c-16.309,-7.838 -43.517,-11.767 -80.026,-11.767c-10.067,0 -27.161,0.869 -49.703,1.577c-22.505,0.784 -40.382,0.784 -51.998,0.784c-59.864,0 -104.089,-9.321 -132.855,-27.198c-39.56,-24.847 -59.751,-69.072 -59.751,-132.817c0,-62.877 17.84,-107.112 52.772,-134.329c31.137,-24.072 78.412,-36.538 142.941,-36.538l306.735,0l-0,99.424l-289.641,0Z" style="fill:#313e9c;fill-rule:nonzero;"/><path d="M1867.92,519.33l277.251,-0l-0,330.806l-252.348,0c-41.165,0 -72.216,-2.351 -92.369,-6.979c-58.297,-13.155 -102.588,-45.793 -132.034,-97.837c-25.678,-44.235 -38.077,-99.358 -38.077,-163.888c-0,-94.711 19.369,-165.37 59.014,-212.806c42.695,-50.486 111.106,-76.145 203.476,-76.145l252.347,-0l0,96.374l-252.347,-0c-51.242,-0 -87.78,19.359 -108.727,58.183c-15.554,29.559 -23.316,72.282 -23.316,128.974c-0,55.123 7.762,95.59 24.072,121.919c20.927,34.205 56.729,51.317 107.971,51.317l132.033,0l0,-131.268l-156.937,-0l-0.009,-98.65Z" style="fill:#313e9c;fill-rule:nonzero;"/><path d="M2423.55,391.914c-59.798,0 -90.094,24.148 -90.094,73.001c0,24.856 9.321,41.94 28.776,51.28c15.478,8.546 39.55,12.465 73.038,12.465c11.606,0 31.788,-0.793 58.957,-2.436c27.217,-1.492 48.201,-2.191 62.924,-2.191c56.691,-0 98.603,9.255 127.35,27.916c37.274,24.865 55.945,68.297 55.945,131.24c-0,61.328 -17.877,104.854 -53.603,132.024c-31.089,23.317 -78.402,34.904 -141.298,34.904l-312.268,0l-0,-99.31l293.569,-0c28.728,-0 49.712,-3.155 62.915,-10.134c18.67,-10.105 27.953,-27.198 27.953,-52.857c0,-26.414 -10.86,-45.018 -32.656,-55.038c-16.319,-7.838 -43.442,-11.767 -79.98,-11.767c-10.067,0 -27.122,0.869 -49.674,1.577c-22.542,0.784 -40.382,0.784 -52.064,0.784c-59.798,0 -104.051,-9.321 -132.789,-27.198c-39.626,-24.847 -59.826,-69.072 -59.826,-132.817c-0,-62.877 17.877,-107.112 52.847,-134.329c31.052,-24.072 78.45,-36.538 142.904,-36.538l306.772,0l-0,99.424l-289.698,0Z" style="fill:#313e9c;fill-rule:nonzero;"/><path d="M3384.78,292.481c93.182,-0 160.734,25.649 203.467,76.145c39.673,47.436 59.004,118.085 59.004,212.806c0,179.385 -86.212,268.704 -259.354,268.704l-258.618,0l-0,-557.655l255.501,-0Zm-138.247,97.157l-0,363.435l135.924,0c56.701,0 94.712,-17.037 114.874,-51.28c14.827,-25.649 21.768,-69.015 21.768,-130.475c0,-62.102 -6.931,-105.553 -21.768,-130.409c-19.35,-34.177 -58.173,-51.271 -114.874,-51.271l-135.924,0Z" style="fill:#313e9c;fill-rule:nonzero;"/><path d="M3694.17,645.952c-0,-136.736 68.335,-205.043 205.827,-205.043l157.645,-0l0,85.315l-142.913,-0c-34.932,-0 -59.005,3.928 -72.991,12.475c-18.67,10.898 -27.963,32.619 -27.963,64.529l243.858,0l-0,85.391l-243.858,0c0,32.61 9.293,54.321 27.17,65.257c13.202,6.931 37.293,10.794 73.038,10.794l143.65,0l-0,85.476l-157.645,-0c-137.483,-0.01 -205.818,-68.307 -205.818,-204.194Z" style="fill:#313e9c;fill-rule:nonzero;"/><path d="M4330.47,440.909c58.211,-0 100.17,10.048 126.603,31.051c29.512,23.298 44.272,62.886 44.272,118.803l0,259.373l-107.98,0l0,-246.124c0,-29.568 -4.684,-49.003 -13.948,-58.258c-9.35,-10.105 -28.757,-14.818 -57.513,-14.818l-86.949,0l0,319.2l-107.971,0l0,-409.227l203.486,-0Z" style="fill:#313e9c;fill-rule:nonzero;"/><path d="M4628.92,440.909l-0,-148.428l107.999,-0l-0,148.428l114.118,-0l0,81.547l-114.118,-0l-0,165.37c-0,39.588 9.255,64.463 28.737,73.784c10.067,4.618 38.842,6.979 85.381,6.979l0,81.547l-98.64,0c-80.697,0 -123.449,-47.37 -123.449,-128.114l-0,-199.566l-76.089,-0l0,-81.547l76.061,-0Z" style="fill:#313e9c;fill-rule:nonzero;"/><path d="M5144.77,440.909c112.627,-0 168.515,51.213 168.515,152.913l0,256.305l-290.472,-0c-84.644,-0 -126.565,-39.589 -126.565,-117.991c-0,-50.515 15.497,-86.184 45.821,-106.403c24.129,-16.319 63.708,-24.082 117.254,-24.082l142.12,0l-0,-10.114c-0,-27.207 -10.049,-45.793 -30.23,-55.898c-14.052,-6.979 -36.519,-10.123 -67.599,-10.123l-180.149,-0l-0,-84.607l221.305,-0Zm57.475,326.896l0,-84.616l-127.292,0c-22.647,0 -38.125,2.285 -46.662,6.988c-13.203,6.205 -20.2,19.455 -20.2,38.805c-0,17.103 6.27,28.766 17.877,34.177c7.026,3.041 20.955,4.627 41.165,4.627l135.112,0.019Z" style="fill:#313e9c;fill-rule:nonzero;"/><path d="M5375.7,850.136l0,-557.655l112.608,-0l-0,557.646l-112.608,0.009Z" style="fill:#313e9c;fill-rule:nonzero;"/></g></g><g><path d="M713.753,598.913c-4.505,6.119 -9.538,12.277 -14.836,18.273c1.737,2.163 3.465,4.316 4.92,6.743c33.856,54.302 -46.218,151.894 -178.932,217.935c-112.909,56.19 -227.529,71.555 -279.942,41.278c37.086,69.563 178.006,76.873 319.965,15.243c145.822,-63.378 237.804,-175.353 205.384,-249.911c-9.784,-22.59 -29.654,-39.088 -56.559,-49.561" style="fill:#313e9c;fill-rule:nonzero;"/><path d="M716.104,850.693c-3.758,5.043 -7.876,10.181 -12.267,15.129c1.577,1.691 2.927,3.665 4.136,5.497c27.755,44.631 -38.077,124.903 -147.115,179.262c-92.936,46.236 -187.119,58.806 -230.391,34.063c30.598,57.06 146.473,63.104 263.34,12.324c119.889,-51.969 195.553,-144.112 168.78,-205.666c-7.895,-18.416 -24.365,-31.996 -46.483,-40.609" style="fill:#313e9c;fill-rule:nonzero;"/><path d="M700.664,324.127c-5.194,7.054 -10.832,14.147 -17.037,21.06c2.125,2.502 3.976,5.09 5.732,7.64c38.824,62.451 -53.225,174.568 -205.629,250.6c-129.833,64.614 -261.536,82.217 -321.863,47.427c42.781,79.847 204.628,88.204 367.911,17.471c167.561,-72.85 273.256,-201.455 236.029,-287.309c-11.2,-25.838 -34.253,-44.858 -65.143,-56.889" style="fill:#313e9c;fill-rule:nonzero;"/><path d="M686.621,13.2c-6.016,8.102 -12.589,16.309 -19.653,24.346c2.456,2.71 4.618,5.647 6.601,8.735c44.632,71.764 -61.186,200.624 -236.349,287.97c-149.193,74.36 -300.681,94.551 -369.97,54.528c49.164,91.86 235.273,101.379 422.827,20.021c192.662,-83.568 314.157,-231.448 271.291,-330.221c-12.89,-29.72 -39.097,-51.469 -74.747,-65.379" style="fill:#313e9c;fill-rule:nonzero;"/></g></g><g><path d="M1059.96,1156.93c9.595,5.496 24.063,10.35 39.192,10.35c19.067,0 29.634,-8.886 29.634,-22.155c0,-12.286 -8.188,-19.511 -28.888,-26.971c-26.736,-9.623 -43.829,-23.836 -43.829,-47.162c0,-26.528 22.155,-46.728 57.314,-46.728c17.566,-0 30.579,3.872 39.003,8.206l-7.253,23.827c-5.76,-3.145 -17.093,-7.687 -32.26,-7.687c-18.745,-0 -26.943,10.095 -26.943,19.482c0,12.495 9.369,18.302 31.061,26.745c28.142,10.587 41.864,24.771 41.864,48.135c0,26.008 -19.718,48.598 -61.63,48.598c-17.093,-0 -34.885,-4.816 -43.791,-10.105l6.526,-24.535Z" style="fill:#313e9c;fill-rule:nonzero;"/><path d="M1218.69,1071.91l12.277,53.216c2.625,12.522 5.298,25.262 7.451,38.049l0.472,-0c2.437,-12.787 6.28,-25.772 9.642,-37.851l15.167,-53.414l24.072,0l14.704,52.035c3.608,13.703 6.743,26.443 9.369,39.23l0.472,-0c1.955,-12.787 4.58,-25.527 7.725,-39.23l12.976,-52.035l29.134,0l-36.812,117.254l-27.444,0l-13.958,-47.682c-3.607,-12.258 -6.28,-23.354 -8.896,-37.548l-0.51,-0c-2.389,14.43 -5.524,25.989 -8.896,37.548l-14.93,47.682l-27.68,0l-34.668,-117.254l30.333,0Z" style="fill:#313e9c;fill-rule:nonzero;"/><path d="M1432.09,1039.16c0,8.924 -6.506,15.885 -16.866,15.885c-9.878,-0 -16.376,-6.942 -16.376,-15.885c0,-9.142 6.734,-16.083 16.621,-16.083c10.105,0 16.385,6.941 16.621,16.083Zm-31.57,150.005l-0,-117.254l29.88,0l-0,117.254l-29.88,0Z" style="fill:#313e9c;fill-rule:nonzero;"/><path d="M1480.03,1161.99c6.752,4.08 19.53,8.405 30.116,8.405c13.014,-0 18.774,-5.27 18.774,-13.014c0,-7.932 -4.816,-12.022 -19.246,-17.083c-22.892,-7.933 -32.506,-20.456 -32.269,-34.196c-0,-20.682 17.093,-36.803 44.3,-36.803c12.976,0 24.309,3.362 31.052,6.979l-5.761,20.946c-5.062,-2.908 -14.459,-6.761 -24.809,-6.761c-10.586,-0 -16.394,5.052 -16.394,12.267c-0,7.499 5.571,11.106 20.474,16.395c21.201,7.677 31.089,18.538 31.315,35.858c0,21.173 -16.621,36.575 -47.672,36.575c-14.194,0 -26.971,-3.352 -35.641,-8.15l5.761,-21.418Z" style="fill:#313e9c;fill-rule:nonzero;"/><path d="M1599.72,1161.99c6.743,4.08 19.53,8.405 30.117,8.405c13.013,-0 18.774,-5.27 18.774,-13.014c-0,-7.932 -4.816,-12.022 -19.246,-17.083c-22.902,-7.933 -32.506,-20.456 -32.27,-34.196c0,-20.682 17.093,-36.803 44.301,-36.803c12.976,0 24.308,3.362 31.051,6.979l-5.761,20.946c-5.061,-2.908 -14.468,-6.761 -24.818,-6.761c-10.577,-0 -16.385,5.052 -16.385,12.267c0,7.499 5.563,11.106 20.474,16.395c21.202,7.677 31.089,18.538 31.316,35.858c-0,21.173 -16.621,36.575 -47.672,36.575c-14.194,0 -26.972,-3.352 -35.641,-8.15l5.76,-21.418Z" style="fill:#313e9c;fill-rule:nonzero;"/><rect x="1791.25" y="1026.91" width="29.597" height="162.263" style="fill:#313e9c;"/><path d="M1874.36,1106.86c0,-13.495 -0.236,-24.837 -0.944,-34.932l25.526,-0l1.181,17.338l0.736,0c5.771,-9.151 16.357,-19.964 36.114,-19.964c15.412,0 27.443,8.66 32.496,21.636l0.472,-0c4.127,-6.488 8.896,-11.285 14.468,-14.657c6.469,-4.59 13.958,-6.979 23.562,-6.979c19.52,0 39.239,13.212 39.239,50.77l-0,69.11l-28.889,-0l0,-64.756c0,-19.483 -6.743,-31.042 -20.937,-31.042c-10.114,-0 -17.565,7.215 -20.691,15.639c-0.708,2.908 -1.454,6.497 -1.454,9.869l-0,70.29l-28.898,-0l-0,-67.901c-0,-16.329 -6.469,-27.897 -20.191,-27.897c-11.097,-0 -18.538,8.66 -21.201,16.848c-1.219,2.88 -1.681,6.232 -1.681,9.623l-0,69.336l-28.898,0l-0.01,-82.331Z" style="fill:#313e9c;fill-rule:nonzero;"/><path d="M2097.86,1110.91c0,-15.403 -0.462,-27.888 -0.944,-38.994l25.999,0l1.454,18.057l0.472,-0c8.67,-13.241 22.382,-20.682 40.221,-20.682c26.934,-0 49.325,23.08 49.325,59.713c0,42.336 -26.707,62.782 -53.442,62.782c-14.666,0 -26.972,-6.233 -32.978,-15.639l-0.463,0l0,60.686l-29.634,-0l-0.01,-125.923Zm29.644,29.143c0,2.909 0.236,5.534 0.945,8.188c2.899,12.022 13.485,20.71 25.989,20.71c18.784,0 29.88,-15.658 29.88,-38.767c0,-20.71 -10.114,-37.577 -29.134,-37.577c-12.258,0 -23.6,8.953 -26.499,21.929c-0.708,2.427 -1.181,5.043 -1.181,7.479l0,18.038Z" style="fill:#313e9c;fill-rule:nonzero;"/><rect x="2258.06" y="1018.23" width="29.88" height="170.951" style="fill:#313e9c;"/><path d="M2405.18,1189.17l-1.917,-13.023l-0.737,0c-7.224,9.18 -19.482,15.639 -34.668,15.639c-23.6,0 -36.802,-17.093 -36.802,-34.857c-0,-29.625 26.225,-44.565 69.544,-44.31l-0,-1.908c-0,-7.744 -3.136,-20.483 -23.827,-20.483c-11.578,-0 -23.609,3.607 -31.533,8.66l-5.798,-19.247c8.669,-5.298 23.836,-10.35 42.374,-10.35c37.577,-0 48.39,23.836 48.39,49.372l-0,42.317c-0,10.587 0.51,20.994 1.69,28.19l-26.716,0Zm-3.834,-57.314c-20.965,-0.463 -40.92,4.136 -40.92,21.919c-0,11.559 7.442,16.838 16.81,16.838c11.805,0 20.464,-7.697 23.137,-16.083c0.699,-2.2 0.973,-4.589 0.973,-6.525l-0,-16.149Z" style="fill:#313e9c;fill-rule:nonzero;"/><path d="M2480.86,1106.86c0,-13.495 -0.226,-24.837 -0.944,-34.932l25.999,-0l1.445,17.612l0.699,0c5.061,-9.207 17.848,-20.257 37.331,-20.257c20.465,0 41.628,13.203 41.628,50.307l0,69.563l-29.587,0l-0,-66.22c-0,-16.838 -6.271,-29.587 -22.382,-29.587c-11.805,0 -20.002,8.414 -23.137,17.339c-0.945,2.597 -1.171,6.261 -1.171,9.614l-0,68.854l-29.881,0l0,-82.293Z" style="fill:#313e9c;fill-rule:nonzero;"/><path d="M2670.61,1038.45l-0,33.459l28.19,0l-0,22.155l-28.19,0l-0,51.752c-0,14.204 3.844,21.693 15.167,21.693c5.062,-0 8.896,-0.737 11.559,-1.455l0.482,22.599c-4.364,1.7 -12.041,2.918 -21.447,2.918c-10.823,0 -19.955,-3.617 -25.48,-9.604c-6.28,-6.752 -9.17,-17.358 -9.17,-32.798l0,-55.105l-16.866,0l-0,-22.155l16.866,0l0,-26.452l28.889,-7.007Z" style="fill:#313e9c;fill-rule:nonzero;"/><path d="M2810.18,1156.93c9.613,5.496 24.081,10.35 39.191,10.35c19.067,0 29.644,-8.886 29.644,-22.155c0,-12.286 -8.187,-19.511 -28.907,-26.971c-26.745,-9.623 -43.829,-23.836 -43.829,-47.162c0,-26.528 22.156,-46.728 57.324,-46.728c17.556,-0 30.579,3.872 39.012,8.206l-7.252,23.827c-5.771,-3.145 -17.122,-7.687 -32.241,-7.687c-18.775,-0 -26.953,10.095 -26.953,19.482c-0,12.495 9.359,18.302 31.051,26.745c28.143,10.587 41.855,24.771 41.855,48.135c0,26.008 -19.719,48.598 -61.621,48.598c-17.102,-0 -34.894,-4.816 -43.791,-10.105l6.517,-24.535Z" style="fill:#313e9c;fill-rule:nonzero;"/><path d="M2969.62,1071.91l21.173,62.83c2.437,7.224 4.835,16.12 6.526,22.863l0.736,0c1.917,-6.743 4.061,-15.403 6.233,-23.071l18.302,-62.622l31.798,0l-29.399,79.923c-16.121,43.838 -26.934,63.339 -40.892,75.371c-11.587,10.341 -23.609,14.194 -31.098,15.148l-6.752,-25.045c5.071,-1.181 11.342,-3.835 17.376,-8.198c5.534,-3.598 12.041,-10.577 16.121,-18.509c1.199,-2.163 1.917,-3.872 1.917,-5.298c-0,-1.219 -0.217,-2.918 -1.681,-5.808l-42.865,-107.612l32.496,-0l-0,0.028l0.009,0Z" style="fill:#313e9c;fill-rule:nonzero;"/><path d="M3086.41,1161.99c6.753,4.08 19.53,8.405 30.107,8.405c13.042,-0 18.793,-5.27 18.793,-13.014c0,-7.932 -4.835,-12.022 -19.256,-17.083c-22.891,-7.933 -32.496,-20.456 -32.26,-34.196c0,-20.682 17.103,-36.803 44.282,-36.803c12.986,0 24.309,3.362 31.061,6.979l-5.751,20.946c-5.053,-2.908 -14.478,-6.761 -24.809,-6.761c-10.587,-0 -16.395,5.052 -16.395,12.267c0,7.499 5.572,11.106 20.475,16.395c21.21,7.677 31.079,18.538 31.315,35.858c0,21.173 -16.621,36.575 -47.663,36.575c-14.203,0 -26.98,-3.352 -35.65,-8.15l5.751,-21.418Z" style="fill:#313e9c;fill-rule:nonzero;"/><path d="M3241.55,1038.45l-0,33.459l28.18,0l0,22.155l-28.18,0l-0,51.752c-0,14.204 3.834,21.693 15.157,21.693c5.053,-0 8.906,-0.737 11.588,-1.455l0.481,22.599c-4.372,1.7 -12.04,2.918 -21.446,2.918c-10.823,0 -19.974,-3.617 -25.47,-9.604c-6.29,-6.752 -9.208,-17.358 -9.208,-32.798l-0,-55.105l-16.838,0l-0,-22.155l16.838,0l-0,-26.452l28.898,-7.007Z" style="fill:#313e9c;fill-rule:nonzero;"/><path d="M3330.94,1138.83c0.718,21.192 17.339,30.343 36.113,30.343c13.722,-0 23.553,-1.899 32.496,-5.308l4.297,20.484c-10.104,4.098 -24.053,7.196 -40.91,7.196c-38.03,-0 -60.403,-23.317 -60.403,-59.194c0,-32.496 19.719,-63.084 57.268,-63.084c38.067,-0 50.571,31.287 50.571,57.05c0,5.515 -0.482,9.859 -0.982,12.484l-78.469,0l0,0.029l0.019,-0Zm51.516,-20.692c0.236,-10.822 -4.589,-28.605 -24.346,-28.605c-18.283,0 -25.989,16.565 -27.17,28.605l51.516,0Z" style="fill:#313e9c;fill-rule:nonzero;"/><path d="M3453.54,1106.86c-0,-13.495 -0.237,-24.837 -0.945,-34.932l25.508,-0l1.18,17.338l0.737,0c5.751,-9.151 16.338,-19.964 36.094,-19.964c15.422,0 27.463,8.66 32.515,21.636l0.482,-0c4.117,-6.488 8.886,-11.285 14.458,-14.657c6.479,-4.59 13.967,-6.979 23.553,-6.979c19.511,0 39.248,13.212 39.248,50.77l0,69.11l-28.907,-0l-0,-64.756c-0,-19.483 -6.734,-31.042 -20.937,-31.042c-10.105,-0 -17.556,7.215 -20.691,15.639c-0.699,2.908 -1.436,6.497 -1.436,9.869l0,70.29l-28.907,-0l-0,-67.901c-0,-16.329 -6.479,-27.897 -20.182,-27.897c-11.106,-0 -18.557,8.66 -21.21,16.848c-1.237,2.88 -1.7,6.232 -1.7,9.623l-0,69.336l-28.889,0l0,-82.331l0.029,0Z" style="fill:#313e9c;fill-rule:nonzero;"/><path d="M3675.6,1161.99c6.733,4.08 19.511,8.405 30.107,8.405c13.004,-0 18.774,-5.27 18.774,-13.014c-0,-7.932 -4.798,-12.022 -19.237,-17.083c-22.911,-7.933 -32.496,-20.456 -32.279,-34.196c-0,-20.682 17.103,-36.803 44.301,-36.803c12.966,0 24.308,3.362 31.041,6.979l-5.77,20.946c-5.052,-2.908 -14.458,-6.761 -24.79,-6.761c-10.586,-0 -16.394,5.052 -16.394,12.267c-0,7.499 5.553,11.106 20.474,16.395c21.211,7.677 31.08,18.538 31.297,35.858c-0,21.173 -16.602,36.575 -47.663,36.575c-14.185,0 -26.962,-3.352 -35.631,-8.15l5.77,-21.418Z" style="fill:#313e9c;fill-rule:nonzero;"/></g></g></g></g></svg>