<?xml version="1.0" encoding="UTF-8" standalone="no"?><!DOCTYPE svg PUBLIC "-//W3C//DTD SVG 1.1//EN" "http://www.w3.org/Graphics/SVG/1.1/DTD/svg11.dtd"><svg width="100%" height="100%" viewBox="0 0 5556 1256" version="1.1" xmlns="http://www.w3.org/2000/svg" xmlns:xlink="http://www.w3.org/1999/xlink" xml:space="preserve" xmlns:serif="http://www.serif.com/" style="fill-rule:evenodd;clip-rule:evenodd;stroke-linejoin:round;stroke-miterlimit:2;"><g><g><path d="M1918.52,529.272l3.682,1.228c3.683,1.227 88.996,27.619 160.806,27.619c75.493,-0 152.213,-30.688 211.134,-84.699c52.783,-48.487 82.244,-115.387 82.244,-188.425c0,-73.651 -28.847,-140.552 -81.63,-189.039c-53.398,-49.101 -128.89,-76.72 -211.748,-76.72l-164.488,0l-0,510.036Zm163.874,-35.598c-41.736,-0 -77.948,-7.365 -91.45,-10.434l-1.842,-0.614l0,-399.559l93.292,0c129.504,0 219.727,82.244 219.727,200.087c0.614,119.683 -94.519,210.52 -219.727,210.52Zm540.11,-345.548c-54.624,0 -104.953,21.482 -141.165,60.149c-36.212,38.053 -55.852,89.609 -55.852,144.234c-0,58.307 20.868,109.249 60.149,147.302c37.439,36.826 88.995,57.08 144.847,57.08c69.355,0 120.911,-22.709 168.785,-73.651l3.682,-3.683l-44.804,-38.053l-3.069,3.069c-35.598,36.212 -74.879,52.783 -122.752,52.783c-71.811,0 -124.594,-45.418 -135.028,-115.387l-0.614,-2.455l316.701,0l0.614,-4.296c0.614,-6.752 0.614,-12.889 0.614,-18.413c-0,-57.694 -17.799,-109.863 -50.329,-147.303c-34.984,-40.508 -84.085,-61.376 -141.779,-61.376Zm120.911,178.605l-247.345,-0l0.613,-2.455c10.434,-71.197 60.763,-118.456 124.594,-118.456c52.17,-0 111.705,31.301 122.138,118.456l0,2.455Zm430.247,222.181l69.355,0l0,-243.663c0,-46.646 -14.73,-86.54 -41.735,-114.773c-28.233,-28.847 -68.128,-44.191 -116.615,-44.191c-120.297,-0 -196.404,41.122 -199.473,42.963l-2.455,1.228l0,357.823l69.355,-0l0,-317.315l1.228,-0.614c35.598,-15.958 69.355,-22.709 114.16,-22.709c33.143,-0 60.148,10.434 78.561,29.46c17.799,19.027 27.619,47.26 27.619,81.631l0,230.16Zm744.493,119.07l69.355,0l0,-137.482l3.069,1.227c50.328,19.64 84.085,25.778 135.641,25.778c114.774,0 185.97,-78.561 185.97,-205.61c0,-63.218 -19.027,-115.387 -55.238,-150.985c-35.599,-34.985 -87.155,-53.398 -149.145,-53.398c-103.725,0 -183.514,41.122 -186.583,42.964l-2.455,1.227l-0.614,476.279Zm206.838,-171.853c-44.191,-0 -82.858,-5.524 -138.71,-34.371l-1.228,-0.614l0,-227.705l1.228,-0.614c11.047,-5.524 52.169,-24.55 115.387,-24.55c92.064,-0 138.71,48.487 138.71,144.234c-0,92.678 -41.122,143.62 -115.387,143.62Zm-146.075,326.521c-124.594,0 -204.997,80.403 -204.997,204.996c0,61.99 17.186,114.16 50.329,150.986c31.301,34.984 76.106,54.625 125.821,54.625c50.942,-0 90.223,-9.821 145.461,-36.212l3.069,-1.228l0,29.461l69.355,-0l0,-357.823l-2.455,-1.228c-3.069,-1.841 -82.244,-43.577 -186.583,-43.577Zm-17.8,349.844c-36.825,0 -65.672,-12.275 -85.926,-37.439c-19.641,-24.551 -30.074,-61.376 -30.074,-106.181c-0,-119.684 76.106,-144.234 139.323,-144.234c63.832,-0 104.34,19.027 115.388,24.55l1.227,0.614l0,216.658l-1.227,0.614c-52.17,30.688 -96.361,45.418 -138.711,45.418Zm413.062,-623.582l69.355,0l0,-510.036l-69.355,0l0,510.036Zm147.303,99.43l4.296,1.841c30.074,14.117 55.239,19.64 87.154,19.64c63.831,0 103.726,-32.529 138.097,-111.704l171.239,-403.855l-74.265,-0l-125.821,313.018l-142.393,-313.018l-76.72,-0l184.742,387.897l-0.614,0.614c-22.095,48.487 -42.349,66.286 -76.72,66.286c-23.936,0 -41.122,-3.683 -60.762,-13.503l-4.296,-2.455l-23.937,55.239Zm-2629.36,496.533l3.683,3.069c67.513,57.693 138.71,84.699 225.25,84.699c54.625,-0 101.885,-14.117 136.255,-41.122c35.598,-27.619 54.011,-66.286 54.011,-111.705c0,-80.403 -54.011,-126.435 -180.446,-152.826c-121.524,-25.165 -143.62,-52.17 -143.62,-96.975c0,-47.259 45.419,-79.789 110.477,-79.789c56.466,0 104.953,17.799 153.441,55.239l3.682,3.069l41.736,-52.784l-3.683,-3.069c-58.921,-45.418 -117.228,-65.058 -193.948,-65.058c-106.181,-0 -183.515,61.989 -183.515,147.302c0,44.805 14.73,76.72 46.032,101.885c28.847,22.709 73.652,39.894 139.938,54.011c116.001,23.323 137.482,50.328 137.482,94.519c0,50.328 -46.645,84.085 -116.001,84.085c-70.582,0 -123.366,-20.868 -182.9,-72.424l-3.683,-3.068l-44.191,50.942Zm1153.87,-322.225c-120.297,0 -214.203,90.837 -214.203,206.224c0,114.773 93.292,204.996 212.975,204.996c58.922,0 113.546,-21.481 154.055,-61.376c39.28,-38.667 61.376,-90.223 61.376,-144.848c-1.228,-114.773 -94.52,-204.996 -214.203,-204.996Zm-0,350.458c-80.403,-0 -143.007,-63.831 -143.007,-145.462c0,-39.894 14.117,-76.106 39.281,-102.498c25.778,-27.005 61.99,-41.736 102.498,-41.736c81.017,0 144.234,63.832 144.234,146.076c0,39.28 -14.116,75.492 -39.894,101.884c-27.006,26.392 -63.218,41.736 -103.112,41.736Zm579.391,52.17l69.355,-0l-0,-243.664c-0,-46.646 -14.73,-86.54 -41.736,-114.773c-28.233,-28.847 -68.127,-44.191 -116.615,-44.191c-120.297,0 -196.403,41.122 -199.472,42.963l-2.455,1.228l-0,358.437l69.355,-0l-0,-317.315l1.227,-0.614c35.599,-15.958 69.356,-22.709 114.16,-22.709c33.143,-0 60.149,10.434 78.562,29.461c17.799,19.026 27.619,47.259 27.619,81.63l-0,229.547Zm-1228.14,-0l69.355,-0l-0,-394.035l-69.355,-0l-0,394.035Zm174.308,-0l69.355,-0l0,-321.611l0.614,-0.614c17.799,-12.275 43.577,-20.254 69.355,-20.254c42.35,-0 67.514,14.116 92.064,27.619l7.365,4.296l30.075,-55.238l-4.297,-2.455c-38.053,-21.482 -71.196,-34.371 -125.207,-34.371c-87.154,0 -135.641,35.598 -137.483,36.826l-1.841,1.227l0,364.575Zm762.292,-1186.4l0,407.538c0,39.281 11.048,68.742 31.916,87.154c20.868,18.413 46.032,22.096 63.831,22.096c22.095,-0 42.349,-4.297 62.604,-13.503l-20.868,-54.625c-9.207,4.297 -17.799,6.752 -26.392,6.752c-18.413,-0 -41.736,-0 -41.736,-55.239l0,-224.023l69.355,0l0,-60.149l-69.355,0l0,-116.001l-69.355,0Zm-937.828,743.88l74.266,-0l-0,-67.514l-74.266,-0l0,67.514Z" style="fill:#313e9c;fill-rule:nonzero;"/></g><g><path d="M907.044,19.236c384.828,0 656.111,244.277 654.27,594.735c-0.614,77.334 -10.434,119.07 -25.165,175.536c-58.921,-162.647 -225.864,-227.706 -478.12,-280.489c-362.119,-86.541 -411.22,-166.943 -423.495,-278.648l-0,-210.52l272.51,-0.614Zm480.575,963.606c0,-130.118 -69.969,-193.335 -393.421,-263.304c-195.79,-42.349 -279.875,-77.334 -360.892,-143.006l0,552.385c109.25,66.9 265.145,107.408 346.775,107.408c274.966,0 407.538,-120.297 407.538,-253.483Z" style="fill:#313e9c;fill-rule:nonzero;"/></g><g><path d="M3533.33,496.129l3.682,3.069c45.419,35.598 110.477,57.693 168.785,57.693c41.122,0 77.947,-11.047 104.339,-31.302c28.233,-21.481 43.577,-52.169 43.577,-88.995l0,-1.228c0,-76.72 -79.789,-99.429 -131.959,-114.773l-1.227,-0.614c-50.329,-14.73 -98.202,-28.846 -98.202,-60.762l0,-1.228c0,-30.074 30.074,-50.942 72.424,-50.942c36.826,0 77.948,12.889 116.001,36.212l4.296,2.455l32.53,-51.556l-4.297,-2.455c-42.963,-27.005 -97.588,-42.963 -146.689,-42.963c-83.471,-0 -141.165,47.259 -141.165,114.773l0,1.228c0,76.106 78.562,97.588 136.255,112.932c52.784,14.116 96.361,28.847 96.361,63.217l-0,1.228c-0,33.757 -31.302,55.852 -77.948,55.852c-45.418,0 -92.064,-16.571 -136.255,-47.873l-3.683,-3.069l-36.825,49.101Z" style="fill:#313e9c;fill-rule:nonzero;"/></g></g></svg>